<svg width="648" height="465" viewBox="0 0 648 465" fill="none" xmlns="http://www.w3.org/2000/svg">
<g clip-path="url(#clip0)">
<path opacity="0.1" d="M376.499 82.0062C334.957 80.5685 295.359 67.2126 257.606 52.6032C219.852 37.9938 182.432 21.804 141.863 14.0627C115.779 9.07799 85.9481 8.37693 64.9354 22.3031C44.7102 35.7005 38.1773 58.8296 34.6632 80.2892C32.0202 96.4374 30.4869 113.429 37.7119 128.55C42.7414 139.042 51.6667 147.864 57.8416 157.917C79.3197 192.893 64.1359 236.026 40.8561 270.206C29.938 286.247 17.2719 301.51 8.84774 318.567C0.423554 335.624 -3.4783 355.165 3.89585 372.561C11.2044 389.79 28.6136 402.754 47.4785 411.862C85.793 430.345 130.939 435.632 174.963 438.662C272.414 445.299 370.39 442.423 468.097 439.548C504.258 438.478 540.58 437.403 576.15 431.824C595.904 428.729 616.302 423.821 630.644 411.975C648.847 396.931 653.363 371.467 641.163 352.604C620.699 320.973 564.122 313.113 549.815 279.165C541.946 260.48 550.03 239.662 561.473 222.331C586.012 185.157 627.154 152.54 629.32 110.043C630.811 80.8536 611.034 51.6289 580.451 37.8156C548.401 23.325 503.953 25.1549 480.31 49.1039C455.962 73.7777 413.173 83.2717 376.499 82.0062Z" fill="#728FA3"/>
<path d="M144.53 430.761C144.53 430.761 111.716 406.057 105.517 374.634C103.003 361.437 96.2605 349.406 86.3001 340.348C81.5353 336.086 76.3889 332.268 70.9254 328.94" stroke="#535461" stroke-width="2" stroke-miterlimit="10"/>
<path d="M66.9102 309.145C69.7859 313.018 71.0865 329.434 71.0865 329.434C71.0865 329.434 55.7118 323.404 52.8301 319.536C51.4464 317.677 50.8611 315.346 51.2029 313.057C51.5447 310.768 52.7857 308.708 54.6528 307.33C56.5199 305.952 58.8603 305.369 61.159 305.709C63.4577 306.05 65.5265 307.285 66.9102 309.145Z" fill="#728FA3"/>
<path d="M94.4857 322.026C94.784 326.832 86.9266 341.317 86.9266 341.317C86.9266 341.317 77.3033 327.925 76.999 323.119C76.8833 320.827 77.6789 318.583 79.2134 316.872C80.748 315.16 82.8979 314.12 85.1973 313.976C87.4967 313.832 89.7604 314.597 91.4979 316.103C93.2354 317.61 94.3067 319.738 94.4798 322.026H94.4857Z" fill="#728FA3"/>
<path d="M121.214 359.051C119.042 363.352 104.909 371.908 104.909 371.908C104.909 371.908 103.399 355.51 105.571 351.209C106.64 349.186 108.464 347.662 110.65 346.965C112.836 346.267 115.209 346.452 117.26 347.48C119.31 348.508 120.873 350.297 121.613 352.46C122.352 354.624 122.209 356.991 121.214 359.051Z" fill="#728FA3"/>
<path d="M135.109 391.584C133.695 396.189 121.22 406.996 121.22 406.996C121.22 406.996 116.942 391.091 118.356 386.481C119.036 384.269 120.57 382.416 122.622 381.33C124.673 380.244 127.074 380.014 129.295 380.691C131.517 381.368 133.377 382.896 134.468 384.939C135.558 386.982 135.789 389.372 135.109 391.584Z" fill="#728FA3"/>
<path d="M72.7034 352.96C77.4763 353.602 92.5646 346.817 92.5646 346.817C92.5646 346.817 79.8329 336.313 75.0361 335.671C72.7338 335.363 70.403 335.979 68.5563 337.382C66.7096 338.785 65.4983 340.862 65.189 343.154C64.8797 345.447 65.4976 347.768 66.9068 349.607C68.316 351.446 70.4011 352.652 72.7034 352.96Z" fill="#728FA3"/>
<path d="M89.4383 390.812C94.2112 389.998 106.543 379.037 106.543 379.037C106.543 379.037 91.2341 372.81 86.4672 373.624C85.3259 373.81 84.2329 374.22 83.2514 374.829C82.2699 375.438 81.4193 376.235 80.7486 377.173C80.078 378.112 79.6005 379.173 79.3439 380.296C79.0874 381.419 79.0567 382.581 79.2536 383.716C79.4506 384.851 79.8713 385.936 80.4915 386.908C81.1117 387.88 81.9192 388.72 82.8672 389.38C83.8152 390.04 84.885 390.506 86.0149 390.752C87.1448 390.997 88.3124 391.018 89.4503 390.812H89.4383Z" fill="#728FA3"/>
<path d="M110.767 425.384C115.606 425.384 129.626 416.656 129.626 416.656C129.626 416.656 115.6 407.94 110.761 407.94C108.438 407.94 106.211 408.859 104.568 410.495C102.926 412.131 102.003 414.349 102.003 416.662C102.003 418.975 102.926 421.194 104.568 422.829C106.211 424.465 108.438 425.384 110.761 425.384H110.767Z" fill="#728FA3"/>
<path d="M463.3 217.098C463.3 217.098 483.526 181.421 514.012 171.143C526.814 166.909 537.892 158.656 545.585 147.621C549.193 142.346 552.307 136.752 554.886 130.909" stroke="#535461" stroke-width="2" stroke-miterlimit="10"/>
<path d="M574.026 124.373C570.554 127.724 554.391 131.194 554.391 131.194C554.391 131.194 558.359 115.212 561.831 111.855C563.507 110.292 565.732 109.448 568.028 109.503C570.323 109.557 572.505 110.508 574.103 112.149C575.702 113.79 576.59 115.99 576.575 118.277C576.561 120.563 575.645 122.752 574.026 124.373Z" fill="#728FA3"/>
<path d="M564.886 153.266C560.113 154.204 544.678 148.37 544.678 148.37C544.678 148.37 556.73 137.082 561.473 136.161C562.612 135.909 563.79 135.886 564.938 136.094C566.085 136.302 567.18 136.736 568.157 137.371C569.134 138.006 569.974 138.829 570.627 139.791C571.28 140.754 571.734 141.836 571.961 142.976C572.188 144.115 572.185 145.288 571.951 146.426C571.716 147.564 571.256 148.644 570.597 149.603C569.938 150.561 569.093 151.379 568.113 152.008C567.132 152.637 566.035 153.065 564.886 153.266Z" fill="#728FA3"/>
<path d="M531.619 184.563C527.049 182.988 516.661 170.179 516.661 170.179C516.661 170.179 532.77 166.507 537.352 168.082C538.453 168.446 539.47 169.023 540.345 169.782C541.22 170.54 541.935 171.464 542.448 172.5C542.962 173.535 543.263 174.662 543.336 175.815C543.408 176.968 543.25 178.124 542.87 179.215C542.491 180.306 541.897 181.312 541.124 182.173C540.351 183.034 539.414 183.734 538.367 184.231C537.32 184.729 536.185 185.014 535.026 185.071C533.868 185.128 532.709 184.955 531.619 184.563Z" fill="#728FA3"/>
<path d="M501.048 202.601C496.275 201.816 483.889 190.914 483.889 190.914C483.889 190.914 499.157 184.581 503.924 185.365C506.218 185.741 508.269 187.009 509.624 188.89C510.98 190.772 511.529 193.112 511.152 195.397C510.774 197.682 509.501 199.723 507.612 201.073C505.723 202.423 503.372 202.97 501.078 202.595L501.048 202.601Z" fill="#728FA3"/>
<path d="M531.201 135.875C531.195 140.694 539.971 154.673 539.971 154.673C539.971 154.673 548.735 140.711 548.735 135.899C548.766 134.735 548.562 133.577 548.136 132.492C547.709 131.408 547.069 130.419 546.253 129.585C545.437 128.751 544.462 128.088 543.384 127.636C542.307 127.183 541.15 126.95 539.98 126.95C538.811 126.95 537.653 127.183 536.576 127.636C535.498 128.088 534.523 128.751 533.707 129.585C532.891 130.419 532.251 131.408 531.825 132.492C531.398 133.577 531.194 134.735 531.225 135.899L531.201 135.875Z" fill="#728FA3"/>
<path d="M495.744 157.418C497.188 162.016 509.741 172.74 509.741 172.74C509.741 172.74 513.917 156.806 512.461 152.207C511.706 150.077 510.151 148.321 508.122 147.31C506.093 146.299 503.749 146.111 501.584 146.786C499.419 147.462 497.602 148.947 496.515 150.93C495.428 152.913 495.156 155.239 495.756 157.418H495.744Z" fill="#728FA3"/>
<path d="M464.201 183.067C464.846 187.82 475.394 200.516 475.394 200.516C475.394 200.516 482.201 185.514 481.557 180.744C481.429 179.588 481.07 178.469 480.502 177.453C479.933 176.437 479.167 175.545 478.247 174.828C477.327 174.112 476.273 173.586 475.146 173.281C474.019 172.977 472.842 172.899 471.684 173.054C470.527 173.209 469.412 173.593 468.406 174.183C467.4 174.773 466.522 175.558 465.825 176.491C465.128 177.424 464.625 178.486 464.346 179.615C464.067 180.745 464.018 181.918 464.201 183.067Z" fill="#728FA3"/>
<path opacity="0.25" d="M574.026 124.373C570.554 127.724 554.391 131.194 554.391 131.194C554.391 131.194 558.359 115.212 561.831 111.855C563.507 110.292 565.732 109.448 568.028 109.503C570.323 109.557 572.505 110.508 574.103 112.149C575.702 113.79 576.59 115.99 576.575 118.277C576.561 120.563 575.645 122.752 574.026 124.373Z" fill="black"/>
<path opacity="0.25" d="M564.886 153.266C560.113 154.204 544.678 148.37 544.678 148.37C544.678 148.37 556.73 137.082 561.473 136.161C562.612 135.909 563.79 135.886 564.938 136.094C566.085 136.302 567.18 136.736 568.157 137.371C569.134 138.006 569.974 138.829 570.627 139.791C571.28 140.754 571.734 141.836 571.961 142.976C572.188 144.115 572.185 145.288 571.951 146.426C571.716 147.564 571.256 148.644 570.597 149.603C569.938 150.561 569.093 151.379 568.113 152.008C567.132 152.637 566.035 153.065 564.886 153.266Z" fill="black"/>
<path opacity="0.25" d="M531.619 184.563C527.049 182.988 516.661 170.179 516.661 170.179C516.661 170.179 532.77 166.507 537.352 168.082C538.453 168.446 539.47 169.023 540.345 169.782C541.22 170.54 541.935 171.464 542.448 172.5C542.962 173.535 543.263 174.662 543.336 175.815C543.408 176.968 543.25 178.124 542.87 179.215C542.491 180.306 541.897 181.312 541.124 182.173C540.351 183.034 539.414 183.734 538.367 184.231C537.32 184.729 536.185 185.014 535.026 185.071C533.868 185.128 532.709 184.955 531.619 184.563Z" fill="black"/>
<path opacity="0.25" d="M501.048 202.601C496.275 201.816 483.889 190.914 483.889 190.914C483.889 190.914 499.157 184.581 503.924 185.365C506.218 185.741 508.269 187.009 509.624 188.89C510.98 190.772 511.529 193.112 511.152 195.397C510.774 197.682 509.501 199.723 507.612 201.073C505.723 202.423 503.372 202.97 501.078 202.595L501.048 202.601Z" fill="black"/>
<path opacity="0.25" d="M531.201 135.875C531.195 140.694 539.971 154.673 539.971 154.673C539.971 154.673 548.735 140.711 548.735 135.899C548.766 134.735 548.562 133.577 548.136 132.492C547.709 131.408 547.069 130.419 546.253 129.585C545.437 128.751 544.462 128.088 543.384 127.636C542.307 127.183 541.15 126.95 539.98 126.95C538.811 126.95 537.653 127.183 536.576 127.636C535.498 128.088 534.523 128.751 533.707 129.585C532.891 130.419 532.251 131.408 531.825 132.492C531.398 133.577 531.194 134.735 531.225 135.899L531.201 135.875Z" fill="black"/>
<path opacity="0.25" d="M495.744 157.418C497.188 162.016 509.741 172.74 509.741 172.74C509.741 172.74 513.917 156.806 512.461 152.207C511.706 150.077 510.151 148.321 508.122 147.31C506.093 146.299 503.749 146.111 501.584 146.786C499.419 147.462 497.602 148.947 496.515 150.93C495.428 152.913 495.156 155.239 495.756 157.418H495.744Z" fill="black"/>
<path opacity="0.25" d="M464.201 183.067C464.846 187.82 475.394 200.516 475.394 200.516C475.394 200.516 482.201 185.514 481.557 180.744C481.429 179.588 481.07 178.469 480.502 177.453C479.933 176.437 479.167 175.545 478.247 174.828C477.327 174.112 476.273 173.586 475.146 173.281C474.019 172.977 472.842 172.899 471.684 173.054C470.527 173.209 469.412 173.593 468.406 174.183C467.4 174.773 466.522 175.558 465.825 176.491C465.128 177.424 464.625 178.486 464.346 179.615C464.067 180.745 464.018 181.918 464.201 183.067Z" fill="black"/>
<path d="M464.464 216.391C464.464 216.391 468.437 175.61 492.099 153.925C502.079 144.887 508.849 132.872 511.393 119.68C512.551 113.408 513.129 107.044 513.118 100.668" stroke="#535461" stroke-width="2" stroke-miterlimit="10"/>
<path d="M527.949 86.9079C526.16 91.3757 512.772 101.072 512.772 101.072C512.772 101.072 509.896 84.8582 511.704 80.3904C512.574 78.2451 514.264 76.5319 516.403 75.6278C518.542 74.7236 520.954 74.7025 523.108 75.5692C525.262 76.4358 526.983 78.1192 527.891 80.2489C528.799 82.3787 528.82 84.7804 527.949 86.9258V86.9079Z" fill="#728FA3"/>
<path d="M531.356 117.041C527.4 119.81 510.892 120.719 510.892 120.719C510.892 120.719 517.324 105.545 521.279 102.777C522.217 102.078 523.287 101.573 524.424 101.293C525.562 101.013 526.744 100.963 527.901 101.146C529.058 101.329 530.167 101.741 531.161 102.358C532.155 102.976 533.015 103.786 533.69 104.74C534.364 105.694 534.839 106.773 535.087 107.914C535.335 109.054 535.351 110.232 535.133 111.379C534.915 112.525 534.469 113.617 533.82 114.588C533.171 115.56 532.334 116.392 531.356 117.036V117.041Z" fill="#728FA3"/>
<path d="M513.661 159.093C508.84 159.497 494.127 151.964 494.127 151.964C494.127 151.964 507.372 142.102 512.193 141.698C514.508 141.504 516.805 142.234 518.58 143.727C520.354 145.22 521.461 147.354 521.655 149.659C521.85 151.964 521.117 154.252 519.618 156.019C518.118 157.786 515.975 158.888 513.661 159.082V159.093Z" fill="#728FA3"/>
<path d="M493.071 187.902C488.388 189.091 472.613 184.177 472.613 184.177C472.613 184.177 483.991 172.23 488.674 171.018C490.923 170.437 493.311 170.77 495.313 171.942C497.315 173.115 498.768 175.032 499.351 177.271C499.934 179.51 499.6 181.888 498.422 183.882C497.245 185.875 495.32 187.322 493.071 187.902Z" fill="#728FA3"/>
<path d="M493.489 114.736C495.446 119.139 509.132 128.401 509.132 128.401C509.132 128.401 511.459 112.098 509.502 107.696C508.527 105.636 506.782 104.038 504.639 103.243C502.496 102.447 500.126 102.518 498.035 103.44C495.944 104.361 494.298 106.061 493.449 108.175C492.599 110.289 492.614 112.65 493.489 114.754V114.736Z" fill="#728FA3"/>
<path d="M469.839 148.732C473.031 152.35 488.865 157.091 488.865 157.091C488.865 157.091 486.192 140.842 483 137.224C482.247 136.345 481.326 135.624 480.29 135.103C479.254 134.581 478.125 134.27 476.968 134.187C475.81 134.104 474.648 134.251 473.548 134.619C472.448 134.988 471.432 135.57 470.56 136.332C469.688 137.095 468.977 138.022 468.468 139.061C467.959 140.099 467.662 141.228 467.595 142.382C467.528 143.536 467.692 144.691 468.077 145.781C468.462 146.871 469.061 147.874 469.839 148.732Z" fill="#728FA3"/>
<path d="M451.41 184.925C453.94 189.025 468.741 196.362 468.741 196.362C468.741 196.362 468.867 179.899 466.355 175.794C465.105 173.898 463.162 172.562 460.939 172.069C458.716 171.576 456.388 171.964 454.448 173.152C452.508 174.34 451.108 176.234 450.547 178.432C449.985 180.629 450.306 182.959 451.44 184.925H451.41Z" fill="#728FA3"/>
<path d="M434.036 56.6851C435.027 53.0669 436.22 49.4309 437.055 45.7651C436.053 49.4309 434.854 53.0788 434.036 56.6851Z" fill="url(#paint0_linear)"/>
<path d="M429.598 91.5361C429.514 91.3935 429.454 91.2509 429.389 91.1202C429.389 91.0608 429.329 91.0133 429.305 90.9539C429.175 91.015 429.042 91.0685 428.906 91.1143C428.643 91.2153 428.375 91.3103 428.1 91.3876C427.826 91.4648 427.712 91.5064 427.503 91.5539C427.33 91.6133 427.153 91.659 426.972 91.6906L427.02 91.7975C427.241 91.75 427.456 91.7084 427.677 91.649L427.736 92.3857C427.987 92.3857 428.219 92.3501 428.446 92.3501C428.553 92.3442 428.661 92.3442 428.768 92.3501C429.234 92.3501 429.639 92.3501 429.962 92.3501C429.836 92.0827 429.705 91.8035 429.598 91.5361ZM550.71 283.514C547.906 279.753 542.31 239.389 542.31 239.389C542.31 239.389 531.302 210.687 534.303 199.232C537.304 187.778 526.106 158.47 526.106 158.47C526.106 158.47 518.708 155.267 518.308 150.514C518.308 150.514 488.102 141.008 486.688 133.879C485.542 128.033 466.808 123.838 460.079 122.514C458.026 114.267 455.962 106.573 454.441 102.373C454.029 101.066 453.641 99.937 453.283 99.0458C450.712 92.5105 442.765 91.9164 437.002 92.4392C436.752 91.3253 436.288 90.2701 435.635 89.3319C435.54 89.0094 435.351 88.7221 435.092 88.5061C434.969 88.4011 434.837 88.3058 434.699 88.2209C434.594 88.0284 434.457 87.8554 434.293 87.71C434.129 87.5631 433.949 87.4355 433.756 87.3297C433.617 87.255 433.474 87.1895 433.326 87.1337C432.981 87.0026 432.623 86.9051 432.258 86.8426C431.834 86.7555 431.403 86.6999 430.97 86.6762C432.023 86.2175 432.962 85.534 433.72 84.674C434.236 84.0703 434.62 83.3661 434.848 82.6065C435.037 81.9747 435.121 81.3166 435.098 80.6578C434.944 80.9293 434.764 81.1858 434.561 81.4242C434.812 78.7922 433.416 76.1187 432.616 73.4986C431.648 70.0877 431.468 66.5024 432.091 63.0124C432.891 57.7485 434.872 52.4252 436.214 47.0662C436.217 47.0366 436.217 47.0067 436.214 46.9771C436.918 44.3157 437.354 41.5911 437.515 38.8436C437.747 33.3005 436.321 27.7692 434.03 22.7192C431.996 18.2455 428.995 13.843 424.401 12.025C420.988 10.6526 417.164 10.8724 413.489 10.6467C405.244 10.1357 397.38 7.24829 389.541 4.62228C381.701 1.99627 373.635 -0.392094 365.384 0.0653788C357.133 0.522851 348.643 4.48563 344.878 11.7577C343.685 14.0272 342.999 16.5522 341.573 18.6851C338.9 22.7073 334.116 24.7214 330.124 27.4959C326.133 30.2704 322.619 34.2095 321.175 38.909C320.387 41.4409 320.275 44.1339 320.853 46.7216C320.983 47.306 321.15 47.8815 321.354 48.4446C321.92 50.0144 322.803 51.452 323.949 52.6688C324.813 53.5681 325.807 54.3349 326.897 54.9443C328.265 55.6998 329.73 56.2674 331.252 56.6315C331.198 56.8098 331.144 56.9999 331.085 57.1841C330.989 57.4871 330.906 57.7782 330.816 58.105C330.619 58.8357 330.434 59.5784 330.279 60.327C330.273 60.3803 330.273 60.4341 330.279 60.4874C329.547 63.8667 329.179 67.3144 329.182 70.7716C329.18 72.4067 329.264 74.0407 329.432 75.6672C331.819 99.7766 351.805 118.794 376.499 120.03C377.346 120.072 378.199 120.095 379.064 120.095C379.458 120.095 379.846 120.095 380.258 120.095C380.645 120.606 381.027 121.129 381.391 121.64C381.755 122.151 382.089 122.674 382.405 123.185L381.54 122.294L380.675 121.504C380.441 121.824 380.179 122.124 379.894 122.401C379.33 122.203 378.754 122.04 378.169 121.913C375.694 121.367 371.923 121.165 366.959 122.656C362.395 124.017 356.817 126.815 350.29 132.132L318.484 151.144L301.278 161.565L295.079 176.656C295.079 176.656 290.42 194.586 285.235 215.131C285.032 215.19 284.835 215.25 284.638 215.321C284.218 215.273 283.796 215.25 283.374 215.25C280.365 215.243 277.472 216.397 275.3 218.47C273.129 220.542 271.848 223.373 271.728 226.366C261.418 238.842 260.833 251.319 263.256 257.046C263.475 257.583 263.751 258.095 264.079 258.573C265.666 260.854 268.631 266.736 271.638 273.004C271.561 273.521 271.513 273.955 271.489 274.282C271.484 274.388 271.484 274.495 271.489 274.602C271.489 274.602 273.279 301.522 267.313 309.24C266.006 310.921 266.203 313.131 267.313 315.579C271.31 324.384 287.114 336.141 287.114 336.141C287.114 336.141 306.069 336.04 316.629 334.894C316.599 335.951 316.575 337.003 316.551 338.031C316.313 348.416 316.313 357.12 316.313 357.12L315.919 368.01C315.919 368.01 312.339 390.961 310.549 397.288C309.422 401.257 310.722 438.003 311.856 465.018H498.608C500.803 449.036 497.707 400.479 497.707 400.479C497.707 400.479 494.766 387.925 494.658 376.981C494.652 376.969 494.649 376.956 494.649 376.942C494.649 376.929 494.652 376.916 494.658 376.904C494.658 375.947 494.658 375.015 494.694 374.1L496.048 374.052L498.483 373.969H498.703C498.703 373.969 498.763 373.743 498.9 373.375C499.222 372.457 499.661 371.585 500.207 370.778C501.245 369.252 502.868 367.754 505.308 367.653C506.656 367.6 508.744 366.513 511.101 364.909C511.117 364.912 511.133 364.912 511.149 364.909C517.491 360.637 525.873 352.753 527.908 351.458C530.706 349.675 544.106 337.793 544.106 337.793C544.106 337.793 546.104 335.274 548.234 332.238L548.312 332.131C550.961 328.329 553.777 323.784 553.085 322.352C551.891 319.785 553.884 313.648 553.884 313.648C560.107 302.306 553.514 287.275 550.71 283.514ZM435.343 100.775C435.4 100.952 435.436 101.136 435.45 101.321C435.301 101.125 435.152 100.917 435.003 100.727L434.86 100.537L434.758 100.394L434.985 100.085C434.985 100.085 434.985 100.086 434.985 100.127C435.143 100.32 435.264 100.539 435.343 100.775ZM433.338 95.5108C432.688 95.6415 432.175 95.7603 431.841 95.8494C431.417 95.1008 431.012 94.3522 430.648 93.5918C431.604 94.1443 432.505 94.7869 433.338 95.5108ZM432.217 96.4495C432.215 96.4377 432.215 96.4257 432.217 96.4138L432.264 96.4495C432.509 96.6099 432.748 96.7644 432.968 96.9248C433.165 97.0674 433.344 97.204 433.523 97.3466C433.404 97.5545 433.273 97.7684 433.141 97.9407C432.933 97.614 432.736 97.2991 432.545 96.9723C432.426 96.8416 432.318 96.6634 432.217 96.4495ZM428.637 89.118C429.79 89.0048 430.951 89.0048 432.103 89.118C432.264 89.118 432.408 89.1478 432.551 89.1715C432.874 89.2213 433.192 89.3029 433.499 89.4151C434.204 90.3974 434.639 91.5466 434.758 92.7481L434.436 92.7956L434.12 92.8551C433.523 92.9561 432.927 93.0571 432.461 93.1521L431.865 93.2769C431.071 93.4492 430.612 93.5799 430.594 93.5858C430.516 93.4254 430.439 93.2769 430.355 93.1224C430.224 92.8669 430.087 92.6055 429.967 92.3501C429.848 92.0946 429.693 91.8035 429.568 91.5361C429.484 91.3935 429.425 91.2509 429.359 91.1202C429.359 91.0608 429.299 91.0133 429.275 90.9539C429.241 90.8909 429.211 90.8253 429.186 90.7578C428.822 90.0211 428.488 89.2844 428.166 88.5596C428.13 88.4883 428.1 88.411 428.07 88.3398L428.524 88.31V88.4645L428.637 89.118ZM286.291 457.674C286.243 448.828 285.599 439.257 283.809 430.274C283.045 426.453 282.258 422.633 281.458 418.878C281.256 417.94 281.059 417.013 280.862 416.086L279.024 416.33H278.857C273.846 392.797 268.607 372.062 268.607 372.062C268.607 372.062 258.202 332.499 259.408 329.345C259.563 328.935 259.366 327.83 258.924 326.208C256.407 317.213 245.894 292.426 242.219 283.954C242.219 283.918 242.189 283.877 242.177 283.847C241.581 282.427 241.151 281.47 241.02 281.191L241.885 268.548L241.933 267.788L242.046 266.172L241.998 266.13L242.046 265.382C242.046 265.382 232.966 257.967 217.585 252.614C216.988 252.4 216.356 252.192 215.729 251.99C216.499 246.875 217.519 241.1 218.85 235.474C218.975 234.909 219.112 234.363 219.255 233.81C219.381 233.258 219.524 232.723 219.667 232.182C219.894 231.303 220.138 230.435 220.389 229.58C221.218 229.318 222.036 229.027 222.841 228.718L223.151 228.6C233.074 224.755 241.261 217.46 246.197 208.066C251.133 198.672 252.484 187.815 249.999 177.505C248.582 171.658 245.966 166.166 242.315 161.375C242.04 161.007 241.748 160.638 241.455 160.276C241.163 159.913 240.811 159.509 240.483 159.141C242.207 155.238 244.242 151.524 244.409 147.728C244.439 147.247 244.439 146.765 244.409 146.284V146.225C244.188 143.783 243.102 141.311 240.573 138.715C236.879 134.907 231.623 132.976 226.367 132.049C221.111 131.122 215.753 131.099 210.467 130.475C201.703 129.429 193.166 126.738 184.401 125.912C173.606 124.916 162.738 126.76 152.882 131.259C146.361 134.23 139.757 139.422 139.363 146.546C139.041 152.433 143.157 158.078 142.119 163.894C141.087 169.609 135.24 174.107 135.753 179.888C135.95 182.145 137.114 184.165 138.569 185.966C139.071 186.56 139.602 187.154 140.15 187.748C142.274 189.988 144.613 192.138 145.8 194.961C145.848 195.079 145.896 195.198 145.938 195.317C146.946 198.103 146.492 201.627 143.999 203.225C144.012 203.235 144.023 203.25 144.028 203.266C144.064 203.314 144.1 203.35 144.13 203.397C144.134 203.387 144.134 203.377 144.13 203.367C145.014 204.411 146.206 205.151 147.537 205.482L148.044 205.637C147.632 206.082 147.244 206.546 146.85 207.033L146.594 207.372C145.936 208.252 145.338 209.175 144.804 210.134C144.5 210.669 144.207 211.204 143.963 211.738C143.145 213.368 142.553 215.101 142.203 216.89C141.564 220.823 142.465 224.922 141.499 228.772C140.306 233.525 136.529 237.173 134.399 241.587C130.366 249.905 132.651 259.666 133.462 268.851C134.566 281.328 132.776 293.858 130.992 306.251C130.046 312.842 129.099 319.439 128.153 326.041C125.766 342.613 123.38 359.185 120.993 375.757C120.122 381.829 119.09 388.234 115.027 392.921H115.069C115.069 392.921 115.069 392.957 115.027 392.969C116.247 393.5 117.544 393.833 118.869 393.955C124.173 394.484 129.793 391.929 134.566 389.137C138.346 386.962 141.926 384.459 145.263 381.657C144.774 383.439 144.249 385.382 143.688 387.473C143.69 387.493 143.69 387.513 143.688 387.533C136.953 413.08 126.118 459.914 126.118 459.914C126.118 459.914 125.134 461.952 123.857 464.988H292.102C290.133 462.612 288.302 460.336 286.87 458.5L286.291 457.674ZM161.718 221.452C161.76 221.381 161.79 221.316 161.831 221.25C161.831 221.44 161.831 221.625 161.831 221.803C161.831 221.981 161.831 222.142 161.831 222.308C161.831 222.474 161.831 222.456 161.831 222.54C161.831 222.623 161.831 222.54 161.831 222.54C161.831 222.783 161.778 223.027 161.736 223.27C161.736 223.27 161.736 223.3 161.736 223.324L162.333 223.544L163.025 223.829C167.113 225.437 171.254 226.893 175.446 228.196C175.876 228.332 176.311 228.463 176.747 228.588L176.836 229.324C176.944 230.079 177.045 230.845 177.141 231.612C177.141 231.612 177.141 231.647 177.141 231.671C177.409 233.792 177.672 235.907 177.904 237.975C177.904 237.975 166.95 233.816 167.088 240.131C167.081 240.244 167.081 240.357 167.088 240.47C167.075 240.62 167.075 240.771 167.088 240.922C167.189 245.841 168.734 248.758 169.044 250.255C169.026 250.317 168.993 250.374 168.949 250.422C168.684 250.995 168.593 251.633 168.687 252.257C168.676 253.32 168.76 254.382 168.937 255.43C168.615 255.626 168.299 255.822 167.983 256.024C167.744 256.173 167.517 256.339 167.284 256.505C165.821 251.45 163.906 246.535 161.563 241.819C159.922 238.456 158.079 234.951 158.097 231.261C158.097 231.024 158.097 230.78 158.126 230.536C158.193 229.467 158.397 228.411 158.735 227.394C158.872 227.007 159.021 226.627 159.188 226.253C159.578 225.363 160.014 224.495 160.495 223.651C160.805 223.092 161.133 222.54 161.45 221.981C161.551 221.815 161.646 221.642 161.742 221.476L161.718 221.452ZM429.598 91.5361C429.514 91.3935 429.454 91.2509 429.389 91.1202C429.389 91.0608 429.329 91.0133 429.305 90.9539C429.175 91.015 429.042 91.0685 428.906 91.1143C428.643 91.2153 428.375 91.3103 428.1 91.3876C427.826 91.4648 427.712 91.5064 427.503 91.5539L426.972 91.6906L427.02 91.7975C427.241 91.75 427.456 91.7084 427.677 91.649L427.736 92.3857C427.987 92.3857 428.219 92.3501 428.446 92.3501H428.768C429.234 92.3501 429.639 92.3501 429.962 92.3501C429.836 92.0827 429.705 91.8035 429.598 91.5361Z" fill="url(#paint1_linear)"/>
<path d="M299.238 178.8L295.658 180.375C295.658 180.375 272.324 270.645 272.324 277.941C272.324 285.237 321.801 325.833 321.801 325.833L329.522 273.943C329.522 273.943 318.437 154.946 299.238 178.8Z" fill="#E8F5FF"/>
<path d="M407.768 150.086L387.095 139.345C385.937 134.429 383.882 129.767 381.033 125.591C378.008 121.242 373.987 116.97 368.976 114.742C356.31 109.086 422.552 79.3979 422.552 79.3979C423.595 82.9643 424.824 86.4744 426.233 89.9139C429.645 98.3028 435.307 109.151 442.604 112.241C455.007 117.499 407.768 150.086 407.768 150.086Z" fill="#FFC1C7"/>
<path opacity="0.1" d="M426.233 89.9139C423.402 99.8267 417.516 108.604 409.406 115.005C401.296 121.407 391.371 125.11 381.033 125.591C378.008 121.242 373.987 116.97 368.976 114.742C356.31 109.086 422.552 79.3979 422.552 79.3979C423.595 82.9643 424.824 86.4744 426.233 89.9139Z" fill="black"/>
<path d="M428.094 74.9249C428.097 84.6469 425.204 94.1512 419.781 102.236C414.359 110.32 406.651 116.622 397.632 120.344C388.613 124.066 378.688 125.041 369.112 123.145C359.537 121.249 350.741 116.568 343.837 109.694C336.933 102.82 332.232 94.0616 330.327 84.5265C328.422 74.9913 329.4 65.1077 333.136 56.1259C336.873 47.144 343.2 39.4673 351.318 34.0667C359.436 28.666 368.979 25.784 378.742 25.7852C385.231 25.7553 391.662 27.0059 397.663 29.4647C403.663 31.9236 409.116 35.5419 413.704 40.1109C418.293 44.6798 421.927 50.1087 424.397 56.0842C426.867 62.0596 428.123 68.4631 428.094 74.9249Z" fill="#FFC1C7"/>
<path d="M435.218 143.777L421.758 175.051L409.886 195.81H371.881L360.796 167.429L365.289 137.996H394.314L413.054 136.944L419.384 134.841L423.464 137.146L435.218 143.777Z" fill="#575A89"/>
<path opacity="0.1" d="M430.582 102.088C430.582 102.088 438.976 103.87 431.459 110.007C423.942 116.145 398.007 135.661 398.007 135.661C398.007 135.661 407.117 143.741 405.232 153.206L435.415 136.452L440.784 109.645C440.784 109.645 441.387 101.589 430.582 102.088Z" fill="black"/>
<path opacity="0.1" d="M403.943 135.662L384.744 138.816C384.744 138.816 388.706 153.402 386.725 157.543C386.665 157.672 386.615 157.805 386.576 157.941L378.742 179.026L384.613 195.585L404.934 167.988L398.007 157.543C398.007 157.543 405.327 147.883 409.683 144.532C414.038 141.181 403.943 135.662 403.943 135.662Z" fill="black"/>
<path d="M403.943 134.848L384.744 137.996C384.744 137.996 388.706 152.582 386.725 156.723C386.665 156.852 386.615 156.985 386.576 157.121L378.742 178.207L384.613 194.765L404.934 167.15L398.007 156.705C398.007 156.705 405.327 147.045 409.683 143.694C414.038 140.343 403.943 134.848 403.943 134.848Z" fill="#DCE6F2"/>
<path d="M431.387 100.513C431.387 100.513 439.782 102.295 432.259 108.433C424.735 114.57 398.007 135.661 398.007 135.661C398.007 135.661 407.905 142.167 406.025 151.625L436.208 134.877L441.578 108.07C441.578 108.07 442.174 100.014 431.387 100.513Z" fill="#575A89"/>
<path opacity="0.1" d="M382.352 127.451C382.352 127.451 384.183 130.861 392.268 137.01C392.268 137.01 378.808 144.14 383.957 154.162L363.368 148.815L360.2 138.959L382.352 127.451Z" fill="black"/>
<path d="M381.558 126.666C381.558 126.666 383.39 130.076 391.474 136.225C391.474 136.225 378.014 143.319 383.163 153.372L362.58 148.025L359.412 138.174L381.558 126.666Z" fill="#575A89"/>
<path opacity="0.1" d="M435.218 143.777L421.758 175.052L409.909 195.81H371.881L360.796 167.429L365.283 137.997H373.355C373.224 144.865 375.741 152.933 375.58 155.933C375.306 160.864 382.966 187.469 382.966 187.469C382.966 187.469 398.997 161.648 405.327 159.349C409.307 157.906 417.737 145.892 423.458 137.147L435.218 143.777Z" fill="black"/>
<path d="M488.239 308.354L486.873 310.065C486.873 310.065 496.77 359.537 494.032 370.772C493.566 372.797 493.301 374.863 493.238 376.939V377.028C492.755 388.459 496.221 403.294 496.221 403.294C496.221 403.294 498.99 447.022 497.415 465.006H312.095C311.009 438.413 309.839 403.96 310.901 400.14C312.691 393.836 316.271 370.968 316.271 370.968L316.665 360.132C316.665 360.132 316.665 349.657 316.987 337.989C317.124 332.743 317.327 327.235 317.619 322.351C317.995 316.208 318.52 311.033 319.242 308.491C319.687 306.563 319.942 304.597 320.006 302.621C320.006 302.437 320.006 302.246 320.041 302.056C320.041 301.462 320.101 300.821 320.125 300.161C320.125 299.977 320.125 299.793 320.125 299.567C320.238 295.741 320.197 291.202 320.071 286.496C320.071 286.241 320.071 285.979 320.071 285.718C319.97 282.189 319.821 278.589 319.654 275.166C319.135 264.472 318.46 255.43 318.46 255.43L295.7 180.333L301.833 165.29L318.854 154.905L350.326 135.982C365.676 123.416 375.783 124.925 379.637 126.304C380.012 126.431 380.378 126.58 380.735 126.749C380.854 126.809 380.95 126.856 381.039 126.91C381.162 126.967 381.28 127.035 381.391 127.112C380.336 127.617 379.419 128.369 378.718 129.304C377.929 130.368 377.367 131.581 377.066 132.869C376.864 133.667 376.723 134.479 376.642 135.299C376.565 136.16 376.535 137.051 376.535 137.948C376.577 139.916 376.747 141.878 377.042 143.824C377.042 143.86 377.042 143.907 377.042 143.955C377.239 145.345 377.483 146.706 377.722 147.983C377.719 148.005 377.719 148.027 377.722 148.048C377.997 149.54 378.271 150.918 378.456 152.106C378.492 152.32 378.522 152.516 378.551 152.7C378.683 153.486 378.745 154.281 378.736 155.077C378.804 156.999 379.063 158.91 379.512 160.78C379.667 161.565 379.846 162.402 380.043 163.276C380.311 164.464 380.604 165.759 380.92 167.078C381.093 167.803 381.278 168.552 381.469 169.294C381.54 169.591 381.618 169.888 381.69 170.191L381.809 170.661C383.08 175.693 384.458 180.701 385.305 183.731C385.806 185.514 386.122 186.613 386.122 186.613C386.122 186.613 395.107 172.146 402.279 163.911C402.386 163.793 402.482 163.68 402.583 163.573C403.293 162.759 403.991 162.016 404.659 161.363C406.121 159.913 407.433 158.879 408.489 158.499C408.715 158.417 408.932 158.315 409.14 158.196C412.075 156.538 416.812 150.52 421.245 144.216C421.681 143.622 422.104 142.975 422.534 142.363C423.518 140.949 424.473 139.529 425.374 138.168C426.066 137.129 426.728 136.119 427.354 135.156C430.337 130.534 432.438 127.088 432.438 127.088L436.578 126.904L437.3 126.868H437.783L456.582 126.001C456.582 126.001 457.394 126.137 458.73 126.405C458.802 126.405 458.874 126.405 458.951 126.452C465.621 127.771 484.152 131.948 485.286 137.74C486.67 144.834 516.56 154.299 516.56 154.299C516.954 159.052 524.274 162.183 524.274 162.183C524.274 162.183 535.359 191.354 532.394 202.785C529.465 214.073 540.019 241.997 540.299 242.781L538.277 245.324L488.239 308.354Z" fill="#E8F5FF"/>
<path opacity="0.1" d="M430.576 100.014C430.576 100.014 448.874 94.8451 453.033 105.486C457.191 116.126 466.492 159.099 466.492 159.099C466.492 159.099 442.341 163.632 436.011 159.099C432.298 156.409 427.703 155.212 423.142 155.748L409.486 165.011L405.453 163.822C405.453 163.822 427.301 131.479 432.05 120.487C436.799 109.496 438.404 104.583 430.576 100.014Z" fill="black"/>
<path d="M429.783 97.6375C429.783 97.6375 448.093 92.4686 452.269 103.109C456.445 113.75 465.729 156.723 465.729 156.723C465.729 156.723 441.584 161.256 435.248 156.723C431.537 154.032 426.943 152.836 422.385 153.372L408.716 162.634L404.683 161.446C404.683 161.446 426.531 129.102 431.28 118.111C436.029 107.12 437.61 102.218 429.783 97.6375Z" fill="#E8F5FF"/>
<path opacity="0.1" d="M306.958 269.071C306.958 269.071 320.614 272.422 323.192 280.11C325.769 287.798 313.097 287.994 313.097 287.994C313.097 287.994 305.377 274.395 306.958 269.071Z" fill="black"/>
<path opacity="0.1" d="M357.825 325.833C357.825 325.833 324.379 394.032 332.099 400.538C339.819 407.043 357.825 325.833 357.825 325.833Z" fill="black"/>
<path opacity="0.1" d="M403.943 275.577C403.943 275.577 430.666 341.822 425.32 352.052C419.974 362.283 436.799 352.052 436.799 352.052L403.943 275.577Z" fill="black"/>
<path d="M441.154 341.013C441.154 341.013 350.898 345.35 377.227 373.339C403.555 401.328 457.585 374.527 457.585 374.527L441.154 341.013Z" fill="#FFC1C7"/>
<path opacity="0.1" d="M428.094 74.9246C428.102 81.3709 426.831 87.7553 424.353 93.7107C423.524 93.8058 422.695 93.8652 421.895 93.9008C420.702 91.2927 421.34 88.2805 421.364 85.4109C421.388 82.5413 420.326 79.1667 417.552 78.3943C412.021 76.8436 408.203 87.1397 402.75 85.2802C398.574 83.8661 399.666 77.5566 397.261 73.9146C395.358 71.0332 391.546 70.2192 388.58 68.4131C382.274 64.5572 382.465 58.3903 379.536 52.556C376.469 46.4425 369.99 48.2486 364.364 51.855C360.092 54.5998 356.405 58.2774 351.835 60.4637C347.879 62.3649 343.435 63.0541 339.05 63.1551C336.35 63.2593 333.649 62.9752 331.031 62.3115C334.111 50.7819 341.296 40.7614 351.248 34.1185C361.2 27.4756 373.238 24.664 385.117 26.2078C396.997 27.7517 407.908 33.5457 415.814 42.5093C423.72 51.4729 428.083 62.9942 428.088 74.9246H428.094Z" fill="black"/>
<path d="M364.382 50.2802C360.104 53.0251 356.423 56.6967 351.853 58.895C347.897 60.7902 343.453 61.4794 339.068 61.5804C333.698 61.6992 327.917 60.7605 324.248 56.8987C320.877 53.334 320.071 47.8503 321.497 43.1746C322.923 38.4988 326.342 34.6192 330.357 31.809C334.372 28.9989 339.032 27.0561 341.693 23.0339C343.101 20.9069 343.781 18.3998 344.95 16.1362C348.691 8.89383 357.103 4.97264 365.235 4.48546C373.367 3.99828 381.427 6.41041 389.171 9.02454C396.915 11.6387 404.719 14.5142 412.892 15.0549C416.532 15.2806 420.314 15.0549 423.691 16.4273C428.231 18.2631 431.208 22.6537 433.237 27.1214C435.51 32.1596 436.924 37.6611 436.685 43.1627C436.184 54.9084 428.392 66.4344 431.817 77.687C432.724 80.6873 434.424 83.7649 433.517 86.7652C432.193 91.1438 426.519 92.142 421.931 92.3499C420.738 89.7417 421.376 86.7236 421.4 83.8599C421.424 80.9963 420.362 77.6157 417.594 76.8434C412.057 75.3046 408.239 85.5829 402.798 83.7292C398.651 82.3093 399.725 76.0057 397.315 72.3637C395.412 69.4763 391.593 68.6683 388.634 66.8621C382.328 63.0063 382.519 56.8393 379.589 51.0051C376.499 44.8619 370.014 46.668 364.382 50.2802Z" fill="#99607E"/>
<path d="M276.865 276.361L272.312 277.941C272.312 277.941 274.102 304.748 268.136 312.436C262.17 320.124 287.729 339.237 287.729 339.237C287.729 339.237 322.762 339.041 323.752 336.266C324.743 333.491 321.963 286.598 321.963 286.598C321.963 286.598 303.157 279.302 304.738 267.675C304.738 267.675 298.999 295.07 290.491 293.887C281.983 292.705 272.324 285.629 276.865 276.361Z" fill="#E8F5FF"/>
<path opacity="0.1" d="M292.048 302.181C298.681 302.181 304.058 297.284 304.058 291.243C304.058 285.203 298.681 280.306 292.048 280.306C285.416 280.306 280.039 285.203 280.039 291.243C280.039 297.284 285.416 302.181 292.048 302.181Z" fill="black"/>
<path d="M305.18 277.151C305.18 277.151 302.793 204.621 282.019 220.781C261.245 236.941 261.042 256.268 264.998 261.977C268.953 267.687 281.637 296.27 281.637 296.27C283.621 297.415 285.85 298.076 288.14 298.198C290.43 298.32 292.716 297.9 294.811 296.973C296.907 296.045 298.752 294.637 300.195 292.862C301.639 291.088 302.64 288.998 303.116 286.764L305.18 277.151Z" fill="#FFC1C7"/>
<path opacity="0.1" d="M434.77 93.4311C434.673 93.1124 434.487 92.828 434.233 92.6112C433.207 91.6784 431 91.3517 427.671 91.6369L427.808 93.2053C432.247 92.8251 433.124 93.7044 433.237 93.8529V94.0015L433.374 94.1975C433.928 94.9382 434.32 95.7859 434.525 96.6862C434.731 97.5865 434.745 98.5196 434.567 99.4258C433.595 104.268 427.623 108.124 427.563 108.165L427.42 108.248L427.33 108.385C424.753 112.193 410.178 122.941 406.365 125.722L406.031 125.341C404.325 126.815 389.326 139.891 388.515 144.9C387.99 148.043 384.434 149.261 383.145 149.599C381.785 148.571 377.37 145.072 375.073 141.151C372.919 137.461 381.588 130.261 382.352 127.45L381.159 126.232C381.033 126.684 369.9 137.045 372.997 142.339C375.479 146.587 380.013 150.223 381.6 151.423C381.093 156.01 377.937 182.941 373.086 189.322C367.061 197.254 361.995 237.226 362.556 251.182C363.051 263.581 359.8 287.001 348.941 297.06C347.061 298.878 344.794 300.249 342.307 301.072C339.821 301.895 337.179 302.148 334.581 301.813H334.45H334.318C334.163 301.813 318.413 303.417 305.18 292.307C294.351 283.235 288.218 268.429 286.941 248.289H286.679L286.571 242.425C289.507 241.968 292.152 240.396 293.948 238.039C295.745 235.682 296.554 232.724 296.206 229.785C295.858 226.846 294.38 224.156 292.082 222.28C289.784 220.404 286.845 219.488 283.883 219.724C280.921 219.961 278.166 221.331 276.198 223.548C274.229 225.764 273.2 228.654 273.326 231.611C273.452 234.567 274.725 237.36 276.875 239.402C279.026 241.444 281.888 242.576 284.859 242.561H284.99L285.098 248.39L284.573 248.425C285.885 269.219 292.329 284.601 303.664 294.101C312.28 301.211 323.286 304.798 334.456 304.136C335.248 304.222 336.045 304.266 336.842 304.267C341.962 304.293 346.888 302.32 350.564 298.771C362.001 288.166 365.48 263.884 364.937 251.063C364.34 236.275 369.656 197.741 374.99 190.724C380.216 183.838 383.384 157.008 383.939 151.809C385.83 151.281 390.108 149.611 390.836 145.274C391.361 142.137 401.378 132.471 407.541 127.118L407.356 126.904C410.673 124.492 420.988 116.887 426.101 112.003C427.688 110.488 429.263 108.973 430.91 107.53C432.891 105.783 435.409 103.008 436.071 99.7288C436.297 98.6462 436.298 97.5291 436.074 96.4461C435.85 95.3631 435.407 94.3371 434.77 93.4311Z" fill="black"/>
<path d="M381.397 151.049C381.147 150.877 375.204 146.641 372.227 141.544C369.137 136.25 380.27 125.894 380.389 125.443L381.582 126.661C380.824 129.465 372.156 136.672 374.309 140.355C377.024 145.007 382.74 149.077 382.799 149.119L381.397 151.049Z" fill="#353146"/>
<path d="M405.59 126.874L404.659 125.597C404.85 125.46 423.59 111.962 426.543 107.595L426.638 107.464L426.776 107.375C426.835 107.334 432.807 103.484 433.78 98.6357C433.959 97.7306 433.946 96.798 433.74 95.8984C433.535 94.9988 433.142 94.1522 432.587 93.4134L432.45 93.2114V93.0688C432.33 92.9144 431.453 92.041 427.014 92.4212L426.877 90.8468C430.212 90.5616 432.414 90.8884 433.44 91.8212C433.695 92.0401 433.883 92.3263 433.983 92.647C434.628 93.5503 435.08 94.5757 435.312 95.6598C435.544 96.7439 435.551 97.8639 435.331 98.9506C434.669 102.236 432.157 105.011 430.17 106.751C428.53 108.195 426.949 109.722 425.368 111.225C419.372 116.947 406.246 126.405 405.59 126.874Z" fill="#E8F5FF"/>
<path d="M285.802 240.356L284.221 240.385L284.397 249.954L285.978 249.926L285.802 240.356Z" fill="#E8F5FF"/>
<path d="M284.09 241.807C290.465 241.807 295.634 236.66 295.634 230.311C295.634 223.961 290.465 218.814 284.09 218.814C277.714 218.814 272.545 223.961 272.545 230.311C272.545 236.66 277.714 241.807 284.09 241.807Z" fill="#728FA3"/>
<path d="M284.09 239.858C289.385 239.858 293.677 235.583 293.677 230.31C293.677 225.037 289.385 220.763 284.09 220.763C278.794 220.763 274.502 225.037 274.502 230.31C274.502 235.583 278.794 239.858 284.09 239.858Z" fill="#E8F5FF"/>
<path d="M336.09 303.5C335.293 303.501 334.497 303.46 333.704 303.375C322.535 304.03 311.532 300.445 302.913 293.341C291.577 283.835 285.146 268.471 283.821 247.659L286.207 247.51C287.484 267.651 293.617 282.462 304.452 291.529C317.685 302.609 333.429 301.035 333.585 301.035H333.716H333.847C336.447 301.368 339.088 301.114 341.575 300.291C344.062 299.469 346.332 298.098 348.214 296.282C359.066 286.223 362.318 262.803 361.822 250.404C361.226 236.436 366.291 196.463 372.323 188.538C377.603 181.593 380.878 150.288 380.914 149.974L381.003 149.082L381.886 148.928C381.94 148.928 387.095 147.954 387.739 144.116C388.574 139.113 403.549 126.036 405.25 124.557L406.807 126.339C400.62 131.687 390.603 141.359 390.102 144.502C389.374 148.851 385.096 150.514 383.211 151.037C382.614 156.242 379.47 183.066 374.262 189.952C368.928 196.968 363.612 235.503 364.209 250.291C364.722 263.112 361.279 287.399 349.842 297.999C346.16 301.556 341.221 303.532 336.09 303.5Z" fill="#353146"/>
<g opacity="0.1">
<path opacity="0.1" d="M433.177 60.8797C434.156 57.2794 435.337 53.6552 436.16 50.0073C435.176 53.673 433.989 57.2794 433.177 60.8797Z" fill="black"/>
<path opacity="0.1" d="M423.196 89.1719C422.003 86.5637 422.641 83.5456 422.665 80.6819C422.689 77.8183 421.627 74.4674 418.859 73.6654C413.322 72.1266 409.504 82.4108 404.063 80.5512C399.886 79.1313 400.99 72.8276 398.58 69.1857C396.676 66.2983 392.864 65.4903 389.905 63.6841C383.593 59.8283 383.784 53.6613 380.86 47.8271C377.788 41.7076 371.314 43.5138 365.682 47.126C361.405 49.8708 357.724 53.5484 353.154 55.7408C349.198 57.636 344.753 58.3252 340.368 58.4262C335.028 58.5509 329.217 57.6063 325.548 53.7445C322.72 50.7739 321.7 46.419 322.285 42.3374C322.183 42.6166 322.094 42.8959 322.004 43.1751C320.572 47.8508 321.408 53.3464 324.755 56.8993C328.424 60.7611 334.235 61.6998 339.575 61.581C343.966 61.48 348.404 60.7908 352.366 58.8955C356.948 56.6973 360.629 53.0256 364.895 50.2808C370.527 46.6685 377.006 44.8624 380.073 50.9819C382.996 56.8161 382.811 62.9831 389.117 66.8389C392.1 68.6213 395.889 69.453 397.798 72.3405C400.185 75.9943 399.129 82.286 403.281 83.706C408.716 85.5596 412.534 75.2814 418.071 76.8201C420.839 77.5925 421.907 80.979 421.877 83.8367C421.848 86.6944 421.227 89.7185 422.408 92.3267C426.996 92.1187 432.67 91.1384 434.001 86.7419C434.184 86.111 434.268 85.4557 434.251 84.7992C432.312 88.1322 427.325 88.9877 423.196 89.1719Z" fill="black"/>
</g>
<path opacity="0.1" d="M531.022 235.563L537.949 242.859C537.949 242.859 543.491 283.063 546.259 286.824C549.028 290.585 555.567 305.545 549.427 316.78C549.427 316.78 547.447 322.893 548.634 325.454C549.821 328.014 539.732 340.83 539.732 340.83C539.732 340.83 526.47 352.652 523.696 354.429C520.921 356.205 506.28 370.393 501.334 370.589C496.389 370.785 494.772 376.899 494.772 376.899L466.862 377.885C466.862 377.885 451.446 377.083 448.093 379.251C448.093 379.251 449.882 355.795 432.658 340.42L454.626 332.536C454.626 332.536 462.942 328.971 465.514 325.246C467.131 322.962 469.426 321.24 472.077 320.321C472.077 320.321 478.21 315.983 478.407 313.619C478.603 311.254 485.906 308.355 485.906 308.355L481.771 273.213L483.949 214.87C483.949 214.87 490.876 165.986 505.523 168.749C520.17 171.511 531.022 235.563 531.022 235.563Z" fill="black"/>
<path d="M533.408 235.563L540.335 242.859C540.335 242.859 545.878 283.063 548.646 286.824C551.414 290.585 557.953 305.545 551.814 316.78C551.814 316.78 549.839 322.893 551.026 325.454C552.214 328.014 542.119 340.83 542.119 340.83C542.119 340.83 528.856 352.652 526.082 354.429C523.308 356.205 508.667 370.393 503.721 370.589C498.775 370.785 497.158 376.899 497.158 376.899L469.249 377.885C469.249 377.885 453.82 377.083 450.479 379.251C450.479 379.251 452.269 355.795 435.045 340.42L457.012 332.536C457.012 332.536 465.329 328.971 467.9 325.246C469.518 322.962 471.813 321.24 474.463 320.321C474.463 320.321 480.596 315.983 480.793 313.619C480.99 311.254 488.293 308.355 488.293 308.355L484.158 273.213L486.336 214.87C486.336 214.87 493.262 165.986 507.909 168.749C522.556 171.511 533.408 235.563 533.408 235.563Z" fill="#E8F5FF"/>
<path opacity="0.1" d="M507.659 294.499C507.659 294.499 528.045 289.152 533.391 295.688C538.736 302.223 507.659 294.499 507.659 294.499Z" fill="black"/>
<path opacity="0.1" d="M502.91 303.464C509.836 308.294 531.213 308.49 531.213 308.49L502.91 303.464Z" fill="black"/>
<path opacity="0.1" d="M513.398 327.609C513.995 327.805 528.093 342.789 534.011 338.256C539.929 333.723 513.398 327.609 513.398 327.609Z" fill="black"/>
<path opacity="0.1" d="M323.532 201.858C323.532 201.858 327.672 230.245 325.632 241.807C323.591 253.369 331.037 267.693 331.037 267.693L323.532 201.858Z" fill="black"/>
<path d="M231.868 213.401C227.095 217.126 223.611 225.943 221.087 235.633C216.684 252.536 215.246 272.136 215.246 272.136C215.246 272.136 177.242 263.462 180.01 259.523C181.752 257.045 179.414 238.378 177.463 224.844C176.299 216.847 175.261 210.639 175.261 210.639C175.261 210.639 244.934 203.147 231.868 213.401Z" fill="#FFCCD0"/>
<path opacity="0.1" d="M231.868 212.612C227.095 216.343 223.611 225.154 221.087 234.844C213.515 237.133 205.462 237.34 197.782 235.441C190.102 233.543 183.081 229.61 177.463 224.06C176.299 216.058 175.261 209.849 175.261 209.849C175.261 209.849 244.934 202.363 231.868 212.612Z" fill="black"/>
<path d="M252.296 191.378C252.3 201.712 248.633 211.714 241.943 219.614C235.254 227.514 225.974 232.802 215.745 234.544C205.516 236.285 194.999 234.367 186.054 229.129C177.109 223.89 170.313 215.67 166.87 205.921C163.426 196.173 163.557 185.526 167.238 175.865C170.92 166.203 177.915 158.15 186.985 153.131C196.056 148.112 206.617 146.45 216.8 148.439C226.983 150.429 236.131 155.941 242.625 164.001C248.883 171.765 252.294 181.423 252.296 191.378Z" fill="#FFCCD0"/>
<path opacity="0.1" d="M286.947 465.007H274.418L273.362 442.971L272.259 420.162C272.259 420.162 275.105 419.741 279.639 419.111L281.47 418.867H281.62C282.61 423.495 283.588 428.248 284.531 432.995C286.1 441.423 286.917 449.972 286.971 458.543C286.971 459.137 286.971 459.731 286.971 460.289C287.007 461.876 286.971 463.462 286.947 465.007Z" fill="black"/>
<path d="M284.543 465.006H127.419C128.099 463.467 128.552 462.534 128.552 462.534C128.552 462.534 141.123 407.768 147.513 384.597C147.515 384.578 147.515 384.558 147.513 384.538C148.311 381.391 149.275 378.287 150.4 375.24C150.473 375.033 150.567 374.834 150.681 374.646C153.843 369.525 157.804 364.005 152.262 356.121C146.719 348.237 148.682 313.547 148.682 313.547C148.682 313.547 155.412 283.977 162.535 268.209C163.617 265.767 165.151 263.55 167.058 261.674C167.678 261.07 168.34 260.51 169.039 259.999C169.57 259.601 170.124 259.234 170.697 258.899L170.81 258.828C173.803 257.139 177.126 256.111 180.553 255.816C182.988 255.563 185.445 255.631 187.862 256.018C199.412 257.705 208.66 260.527 216.01 263.742C235.931 272.457 241.963 284.138 242.082 284.381L242.13 284.482C242.929 286.342 254.623 313.529 258.835 326.213C259.927 329.517 260.523 331.84 260.285 332.475C259.091 335.624 269.389 375.044 269.389 375.044C269.389 375.044 274.162 394.056 278.935 416.341C279.144 417.268 279.34 418.195 279.531 419.134C280.384 423.18 281.232 427.303 282.049 431.42C283.633 439.905 284.449 448.515 284.489 457.145C284.577 459.835 284.595 462.455 284.543 465.006Z" fill="#FF748E"/>
<path opacity="0.1" d="M179.617 242.259C179.617 242.259 168.776 238.1 168.907 244.41C169.039 250.719 171.55 253.737 170.757 254.658C169.963 255.579 171.151 261.098 171.151 261.098C171.151 261.098 185.797 261.098 192.527 264.117C199.257 267.135 224.064 273.183 227.232 275.025C230.4 276.866 242.148 285.125 242.148 285.125L243.204 269.487C243.204 269.487 231.063 259.5 211.142 254.379C191.221 249.258 179.617 242.259 179.617 242.259Z" fill="black"/>
<path d="M179.617 241.469C179.617 241.469 168.776 237.31 168.907 243.62C169.039 249.929 171.55 252.947 170.757 253.868C169.963 254.789 171.151 260.308 171.151 260.308C171.151 260.308 185.797 260.308 192.527 263.332C199.257 266.357 224.064 272.399 227.232 274.235C230.4 276.07 242.148 284.335 242.148 284.335L243.216 268.745C243.216 268.745 231.074 258.758 211.154 253.636C191.233 248.515 179.617 241.469 179.617 241.469Z" fill="#FF748E"/>
<path opacity="0.1" d="M212.341 279.1C212.341 279.1 233.055 301.433 231.999 307.617C230.943 313.802 212.341 279.1 212.341 279.1Z" fill="black"/>
<path opacity="0.1" d="M178.692 359.775C178.692 359.775 163.508 373.707 159.033 374.498C154.559 375.288 162.464 377.914 167.607 375.817C172.749 373.719 183.715 368.2 183.715 368.2L178.692 359.775Z" fill="black"/>
<path d="M290.712 465.005H255.303C250.351 460.728 245.668 456.765 242.685 454.383C237.912 450.568 234.469 444.954 232.274 440.439C231.778 439.411 231.349 438.448 230.985 437.575C230.333 436.07 229.76 434.534 229.267 432.97L255.488 417.464C256.937 418.691 258.299 420.017 259.563 421.433L259.879 421.795C261.335 423.506 262.617 425.449 262.731 427.041C262.862 428.895 268.041 436.066 273.333 442.952C278.702 449.956 284.203 456.652 284.567 457.104C284.567 457.104 285.474 458.333 286.953 460.223C287.997 461.589 289.286 463.229 290.712 465.005Z" fill="#FFCCD0"/>
<path opacity="0.1" d="M242.625 164.001C241.366 166.829 240.238 169.764 240.071 172.913C239.6 182.003 240.364 202.328 230.257 206.891C225.251 209.136 219.894 204.205 214.405 204.086C210.455 204.003 206.834 206.498 204.424 209.618C202.013 212.737 200.516 216.438 198.768 219.967C197.176 223.17 195.344 226.249 193.285 229.176C192.67 230.072 191.992 230.924 191.256 231.725C185.094 229.135 179.606 225.179 175.211 220.158C170.817 215.136 167.631 209.182 165.897 202.749C164.163 196.315 163.927 189.573 165.206 183.035C166.485 176.497 169.246 170.336 173.279 165.022C177.311 159.708 182.508 155.38 188.475 152.369C194.441 149.358 201.019 147.742 207.707 147.646C214.395 147.55 221.017 148.975 227.068 151.814C233.119 154.652 238.44 158.829 242.625 164.025V164.001Z" fill="black"/>
<path d="M239.278 171.309C238.801 180.399 239.57 200.724 229.458 205.281C224.452 207.527 219.094 202.601 213.606 202.482C209.656 202.393 206.041 204.895 203.624 208.008C201.208 211.121 199.722 214.828 197.968 218.363C196.377 221.566 194.544 224.645 192.485 227.572C191.256 229.307 189.896 231.048 188.005 232.022C184.712 233.733 180.72 232.771 177.188 231.672C172.606 230.234 168.092 228.614 163.645 226.812C163.747 226.143 163.799 225.468 163.8 224.792C163.669 225.041 163.526 225.273 163.383 225.522L163.102 226.01C162.595 226.901 162.1 227.792 161.647 228.707C161.473 229.057 161.306 229.42 161.157 229.782C160.557 231.131 160.18 232.568 160.042 234.036C159.737 237.999 161.7 241.76 163.442 245.324C170.142 259.114 174.283 275.238 169.241 289.705C167.058 295.997 163.275 301.588 160.513 307.665C155.684 318.43 154.263 330.404 156.438 341.994C157.816 349.194 160.579 356.324 159.898 363.626C158.705 376.191 147.823 385.543 136.923 391.971C131.034 395.429 123.827 398.506 117.575 395.773C121.56 391.139 122.586 384.729 123.445 378.681C125.796 362.184 128.153 345.679 130.515 329.167C131.458 322.596 132.399 316.025 133.337 309.454C135.091 297.108 136.869 284.626 135.771 272.202C134.972 263.047 132.717 253.327 136.702 245.039C138.808 240.649 142.561 237.013 143.73 232.284C144.691 228.44 143.796 224.352 144.428 220.437C144.774 218.655 145.36 216.929 146.17 215.304C147.202 213.098 148.548 211.053 150.168 209.232C148.569 208.768 147.077 208.133 146.17 206.802C148.736 205.138 149.124 201.389 147.96 198.573C146.797 195.757 144.47 193.612 142.376 191.39C140.282 189.168 138.265 186.578 138.003 183.548C137.496 177.779 143.283 173.311 144.303 167.619C145.335 161.827 141.254 156.195 141.582 150.331C141.964 143.243 148.503 138.092 154.958 135.103C164.7 130.613 175.461 128.768 186.149 129.756C194.848 130.576 203.266 133.256 211.941 134.295C217.173 134.889 222.477 134.949 227.674 135.864C232.87 136.779 238.079 138.71 241.736 142.506C251.377 152.517 239.827 160.757 239.278 171.309Z" fill="#FFE0D0"/>
<path opacity="0.1" d="M231.212 440.445C228.169 439.132 222.632 439.916 213.128 437.035C203.624 434.153 201.793 421.13 201.793 421.13V421.088C201.679 420.791 200.796 418.854 194.818 412.07C188.214 404.578 173.937 366.738 173.937 366.738C173.937 366.738 161.277 353.198 161.676 348.208C162.076 343.217 159.427 329.938 159.69 315.085C159.952 300.232 188.19 290.382 188.19 290.382C242.559 280.787 229.756 343.205 228.306 347.934C226.856 352.664 234.38 365.437 234.38 365.437C233.318 370.998 238.735 379.607 238.735 379.607C238.735 379.607 240.047 387.224 240.316 390.117C240.331 390.251 240.361 390.382 240.405 390.509C241.277 393.236 248.376 395.708 251.264 397.211C254.301 398.791 264.067 412.587 264.067 412.587C266.173 422.716 234.242 441.776 231.212 440.445Z" fill="black"/>
<path d="M232.793 438.068C229.756 436.75 224.213 437.54 214.715 434.652C205.217 431.765 203.38 418.754 203.38 418.754V418.712C203.272 418.409 202.383 416.478 196.405 409.693C189.801 402.201 175.524 364.356 175.524 364.356C175.524 364.356 162.864 350.822 163.257 345.831C163.651 340.841 161.014 327.562 161.277 312.721C161.539 297.88 189.759 288.035 189.759 288.035C244.128 278.44 231.325 340.859 229.875 345.588C228.425 350.317 235.949 363.091 235.949 363.091C234.887 368.651 240.304 377.26 240.304 377.26C240.304 377.26 241.617 384.877 241.891 387.77C241.901 387.904 241.929 388.036 241.975 388.162C242.846 390.889 249.945 393.361 252.839 394.864C255.87 396.438 265.642 410.24 265.642 410.24C267.76 420.352 235.829 439.411 232.793 438.068Z" fill="#FF748E"/>
<path opacity="0.1" d="M190.833 320.623C190.833 320.623 214.584 345.576 220.783 345.576C226.982 345.576 190.833 320.623 190.833 320.623Z" fill="black"/>
<path d="M232.793 438.069C229.756 436.75 224.213 437.54 214.715 434.652C205.217 431.765 203.38 418.754 203.38 418.754V418.712C209.674 414.553 225.615 402.807 231.898 398.512C236.319 395.5 239.928 391.074 242.04 388.139C242.911 390.866 250.011 393.337 252.905 394.84C255.935 396.415 265.708 410.216 265.708 410.216C267.76 420.352 235.829 439.411 232.793 438.069Z" fill="#FF748E"/>
<g opacity="0.1">
<path opacity="0.1" d="M146.206 206.868C146.236 206.915 146.278 206.957 146.314 207.004C146.492 206.779 146.677 206.553 146.868 206.339C146.665 206.536 146.443 206.713 146.206 206.868Z" fill="black"/>
<path opacity="0.1" d="M160.048 234.101C160.298 230.804 162.07 227.899 163.729 224.999C162.643 224.584 161.557 224.162 160.483 223.722C160.585 223.056 160.637 222.382 160.638 221.708C158.962 224.679 157.136 227.602 156.88 230.947C156.575 234.915 158.538 238.67 160.28 242.235C166.986 256.018 171.121 272.143 166.079 286.616C163.89 292.901 160.113 298.498 157.351 304.576C152.524 315.339 151.105 327.311 153.282 338.898C154.648 346.105 157.417 353.228 156.736 360.53C155.543 373.096 144.667 382.447 133.761 388.87C129.304 391.496 124.096 393.902 119.114 393.73C118.653 394.469 118.138 395.174 117.575 395.839C123.833 398.589 131.034 395.494 136.923 392.024C147.835 385.608 158.735 376.28 159.928 363.691C160.608 356.389 157.84 349.266 156.468 342.059C154.29 330.473 155.705 318.502 160.525 307.737C163.269 301.665 167.088 296.062 169.253 289.776C174.295 275.304 170.154 259.179 163.454 245.396C161.718 241.807 159.743 238.07 160.048 234.101Z" fill="black"/>
<path opacity="0.1" d="M241.724 142.578C241.137 141.978 240.507 141.422 239.839 140.914C247.07 150.254 236.629 158.191 236.11 168.244C235.644 177.334 236.408 197.664 226.296 202.215C221.296 204.467 215.932 199.536 210.449 199.417C206.494 199.334 202.878 201.835 200.462 204.948C198.046 208.062 196.56 211.769 194.812 215.298C193.218 218.5 191.383 221.579 189.323 224.507C188.13 226.248 186.734 227.982 184.837 228.963C181.555 230.668 177.564 229.711 174.026 228.606C170.586 227.529 167.177 226.341 163.8 225.041C163.793 225.66 163.741 226.278 163.645 226.889C168.096 228.695 172.612 230.315 177.194 231.749C180.726 232.854 184.718 233.811 188.005 232.106C189.896 231.125 191.268 229.384 192.491 227.644C194.552 224.72 196.385 221.643 197.974 218.441C199.728 214.912 201.208 211.198 203.63 208.085C206.052 204.972 209.662 202.477 213.612 202.56C219.1 202.679 224.464 207.61 229.464 205.358C239.576 200.807 238.807 180.477 239.278 171.386C239.827 160.817 251.377 152.583 241.724 142.578Z" fill="black"/>
</g>
<path opacity="0.1" d="M163.108 226.015C162.601 226.906 162.106 227.797 161.652 228.712C161.479 229.063 161.312 229.425 161.163 229.788C158.037 226.651 150.424 219.195 146.176 216.883C147.209 214.679 148.555 212.634 150.174 210.812C150.174 210.812 160.298 216.141 163.108 226.015Z" fill="black"/>
<path d="M163.389 225.528C161.044 214.959 150.174 209.237 150.174 209.237C148.554 211.059 147.208 213.104 146.176 215.309C150.657 217.751 158.914 225.938 161.652 228.713L163.389 225.528Z" fill="#FF748E"/>
</g>
<defs>
<linearGradient id="paint0_linear" x1="435.546" y1="56.6851" x2="435.546" y2="45.7651" gradientUnits="userSpaceOnUse">
<stop stop-color="#808080" stop-opacity="0.25"/>
<stop offset="0.54" stop-color="#808080" stop-opacity="0.12"/>
<stop offset="1" stop-color="#808080" stop-opacity="0.1"/>
</linearGradient>
<linearGradient id="paint1_linear" x1="273710" y1="391231" x2="273710" y2="27277.4" gradientUnits="userSpaceOnUse">
<stop stop-color="#808080" stop-opacity="0.25"/>
<stop offset="0.54" stop-color="#808080" stop-opacity="0.12"/>
<stop offset="1" stop-color="#808080" stop-opacity="0.1"/>
</linearGradient>
<clipPath id="clip0">
<rect width="648" height="465" fill="white"/>
</clipPath>
</defs>
</svg>
