<svg width="245" height="493" viewBox="0 0 245 493" fill="none" xmlns="http://www.w3.org/2000/svg">
<path d="M282.527 287.06C261.571 308.016 227.855 308.048 207.221 287.413C186.586 266.779 186.618 233.063 207.574 212.107C228.531 191.15 262.246 191.118 282.881 211.753C303.515 232.388 303.484 266.103 282.527 287.06Z" stroke="url(#paint0_linear)" stroke-opacity="0.8" stroke-width="25"/>
<path d="M376.5 246.5C376.5 319.964 317.391 379.5 244.5 379.5C171.609 379.5 112.5 319.964 112.5 246.5C112.5 173.036 171.609 113.5 244.5 113.5C317.391 113.5 376.5 173.036 376.5 246.5Z" stroke="#3DB5E7" stroke-opacity="0.15" stroke-width="3"/>
<path d="M487.5 246.5C487.5 381.821 378.694 491.5 244.5 491.5C110.306 491.5 1.5 381.821 1.5 246.5C1.5 111.179 110.306 1.5 244.5 1.5C378.694 1.5 487.5 111.179 487.5 246.5Z" stroke="#3DB5E7" stroke-opacity="0.06" stroke-width="3"/>
<path d="M233.31 290.951C230.926 289.527 223.398 286.974 217.937 286.698C211.295 286.362 202.28 287.386 192.429 289.597C182.885 291.738 175.334 293.183 170.459 293.803C158.006 295.386 147.819 293.703 141.211 288.972C138.787 287.236 135.718 284.036 135.61 283.133C135.584 282.913 135.869 283.116 136.243 283.585C137.85 285.6 142.821 289.197 145.532 290.308C153.949 293.757 175.273 279.16 191.513 275.47C207.291 271.885 207.97 285.087 216.244 285.433C223.213 285.725 231.269 287.273 233.279 289.232C233.828 289.767 233.501 290.259 233.006 289.964L233.006 289.964L233.187 289.222L233.308 290.95L233.31 290.951Z" fill="url(#paint1_linear)"/>
<path d="M148.464 291.776C147.237 294.247 182.569 303.884 196.038 302.557C210.274 300.987 209.026 290.856 213.897 286.448C213.641 285.892 214.263 286.157 214.126 285.581C208.491 286.702 200.297 288.005 192.275 288.911C177.792 292.717 164.23 291.608 149.828 291.284C149.018 291.374 148.579 291.546 148.463 291.778L148.464 291.776Z" fill="url(#paint2_linear)"/>
<path d="M252.466 298.751C251.995 294.505 248.12 282.903 243.379 275.952C237.612 267.498 227.971 257.401 216.097 247.38C204.595 237.674 195.799 229.763 190.504 224.363C176.98 210.571 169.566 196.518 169.219 184.017C169.091 179.432 170.158 172.693 171.166 171.721C171.411 171.484 171.427 172.022 171.2 172.917C170.226 176.761 170.439 186.2 171.6 190.556C175.203 204.083 212.932 216.642 232.562 233.117C251.632 249.122 236.082 262.236 243.355 272.7C249.48 281.513 255.075 292.829 254.544 297.115C254.399 298.286 253.492 298.343 253.394 297.462L253.394 297.462L254.471 296.993L252.466 298.748L252.466 298.751Z" fill="url(#paint3_linear)"/>
<path d="M172.528 195.517C168.357 196.311 189.412 248.585 203.568 263.861C218.735 279.851 229.992 268.896 239.927 270.766C240.371 269.936 240.624 270.944 241.203 270.241C234.586 264.376 225.367 255.545 216.794 246.555C198.656 232.341 187.399 214.686 174.4 196.731C173.535 195.822 172.917 195.443 172.525 195.517L172.528 195.517Z" fill="url(#paint4_linear)"/>
<defs>
<linearGradient id="paint0_linear" x1="198.735" y1="203.268" x2="291.366" y2="295.899" gradientUnits="userSpaceOnUse">
<stop stop-color="#11CDD7"/>
<stop offset="1" stop-color="#3DB5E7" stop-opacity="0"/>
</linearGradient>
<linearGradient id="paint1_linear" x1="190.993" y1="277.435" x2="191.017" y2="289.499" gradientUnits="userSpaceOnUse">
<stop stop-color="#37A42C"/>
<stop offset="1" stop-color="#00892C"/>
</linearGradient>
<linearGradient id="paint2_linear" x1="194.807" y1="303.185" x2="196.712" y2="289.092" gradientUnits="userSpaceOnUse">
<stop stop-color="#00892C"/>
<stop offset="1" stop-color="#006E29"/>
</linearGradient>
<linearGradient id="paint3_linear" x1="229.669" y1="234.308" x2="214.903" y2="245.559" gradientUnits="userSpaceOnUse">
<stop stop-color="#37A42C"/>
<stop offset="1" stop-color="#00892C"/>
</linearGradient>
<linearGradient id="paint4_linear" x1="201.653" y1="262.936" x2="220.699" y2="252.161" gradientUnits="userSpaceOnUse">
<stop stop-color="#00892C"/>
<stop offset="1" stop-color="#006E29"/>
</linearGradient>
</defs>
</svg>
