<svg width="63" height="94" viewBox="0 0 63 94" fill="none" xmlns="http://www.w3.org/2000/svg">
<ellipse cx="48.9608" cy="28.7225" rx="1.30555" ry="1.35999" transform="rotate(90 48.9608 28.7225)" fill="#728FA3"/>
<ellipse cx="48.9603" cy="1.30555" rx="1.30555" ry="1.35999" transform="rotate(90 48.9603 1.30555)" fill="#728FA3"/>
<ellipse cx="39.4405" cy="28.7225" rx="1.30555" ry="1.35999" transform="rotate(90 39.4405 28.7225)" fill="#728FA3"/>
<ellipse cx="39.4401" cy="1.30555" rx="1.30555" ry="1.35999" transform="rotate(90 39.4401 1.30555)" fill="#728FA3"/>
<ellipse cx="29.9203" cy="28.7225" rx="1.30555" ry="1.35999" transform="rotate(90 29.9203 28.7225)" fill="#728FA3"/>
<ellipse cx="29.9203" cy="1.30555" rx="1.30555" ry="1.35999" transform="rotate(90 29.9203 1.30555)" fill="#728FA3"/>
<ellipse cx="20.4003" cy="28.7221" rx="1.30555" ry="1.35999" transform="rotate(90 20.4003 28.7221)" fill="#728FA3"/>
<ellipse cx="20.4007" cy="1.30604" rx="1.30555" ry="1.35999" transform="rotate(90 20.4007 1.30604)" fill="#728FA3"/>
<ellipse cx="10.8805" cy="28.7221" rx="1.30555" ry="1.35999" transform="rotate(90 10.8805 28.7221)" fill="#728FA3"/>
<ellipse cx="10.8805" cy="1.30604" rx="1.30555" ry="1.35999" transform="rotate(90 10.8805 1.30604)" fill="#728FA3"/>
<ellipse cx="1.36022" cy="28.7221" rx="1.30555" ry="1.35999" transform="rotate(90 1.36022 28.7221)" fill="#728FA3"/>
<ellipse cx="1.36071" cy="1.30604" rx="1.30555" ry="1.35999" transform="rotate(90 1.36071 1.30604)" fill="#728FA3"/>
<ellipse cx="58.4806" cy="28.7225" rx="1.30555" ry="1.35999" transform="rotate(90 58.4806 28.7225)" fill="#728FA3"/>
<ellipse cx="58.4803" cy="1.30555" rx="1.30555" ry="1.35999" transform="rotate(90 58.4803 1.30555)" fill="#728FA3"/>
<ellipse cx="48.9606" cy="37.8612" rx="1.30555" ry="1.35999" transform="rotate(90 48.9606 37.8612)" fill="#728FA3"/>
<ellipse cx="48.9603" cy="10.4447" rx="1.30555" ry="1.35999" transform="rotate(90 48.9603 10.4447)" fill="#728FA3"/>
<ellipse cx="39.4403" cy="37.8612" rx="1.30555" ry="1.35999" transform="rotate(90 39.4403 37.8612)" fill="#728FA3"/>
<ellipse cx="39.4403" cy="10.4447" rx="1.30555" ry="1.35999" transform="rotate(90 39.4403 10.4447)" fill="#728FA3"/>
<ellipse cx="29.9203" cy="37.8612" rx="1.30555" ry="1.35999" transform="rotate(90 29.9203 37.8612)" fill="#728FA3"/>
<ellipse cx="29.9203" cy="10.4442" rx="1.30555" ry="1.35999" transform="rotate(90 29.9203 10.4442)" fill="#728FA3"/>
<ellipse cx="20.4003" cy="37.8612" rx="1.30555" ry="1.35999" transform="rotate(90 20.4003 37.8612)" fill="#728FA3"/>
<ellipse cx="20.4003" cy="10.4442" rx="1.30555" ry="1.35999" transform="rotate(90 20.4003 10.4442)" fill="#728FA3"/>
<ellipse cx="10.8802" cy="37.8607" rx="1.30555" ry="1.35999" transform="rotate(90 10.8802 37.8607)" fill="#728FA3"/>
<ellipse cx="10.88" cy="10.4442" rx="1.30555" ry="1.35999" transform="rotate(90 10.88 10.4442)" fill="#728FA3"/>
<ellipse cx="1.36022" cy="37.8607" rx="1.30555" ry="1.35999" transform="rotate(90 1.36022 37.8607)" fill="#728FA3"/>
<ellipse cx="1.35998" cy="10.4442" rx="1.30555" ry="1.35999" transform="rotate(90 1.35998 10.4442)" fill="#728FA3"/>
<ellipse cx="58.4803" cy="37.8612" rx="1.30555" ry="1.35999" transform="rotate(90 58.4803 37.8612)" fill="#728FA3"/>
<ellipse cx="58.4803" cy="10.4447" rx="1.30555" ry="1.35999" transform="rotate(90 58.4803 10.4447)" fill="#728FA3"/>
<ellipse cx="48.9608" cy="47.0004" rx="1.30555" ry="1.35999" transform="rotate(90 48.9608 47.0004)" fill="#728FA3"/>
<ellipse cx="48.9608" cy="19.5839" rx="1.30555" ry="1.35999" transform="rotate(90 48.9608 19.5839)" fill="#728FA3"/>
<ellipse cx="39.441" cy="47.0004" rx="1.30555" ry="1.35999" transform="rotate(90 39.441 47.0004)" fill="#728FA3"/>
<ellipse cx="39.4408" cy="19.5839" rx="1.30555" ry="1.35999" transform="rotate(90 39.4408 19.5839)" fill="#728FA3"/>
<ellipse cx="29.9208" cy="47.0004" rx="1.30555" ry="1.35999" transform="rotate(90 29.9208 47.0004)" fill="#728FA3"/>
<ellipse cx="29.9205" cy="19.5839" rx="1.30555" ry="1.35999" transform="rotate(90 29.9205 19.5839)" fill="#728FA3"/>
<ellipse cx="20.4007" cy="47.0004" rx="1.30555" ry="1.35999" transform="rotate(90 20.4007 47.0004)" fill="#728FA3"/>
<ellipse cx="20.4005" cy="19.5834" rx="1.30555" ry="1.35999" transform="rotate(90 20.4005 19.5834)" fill="#728FA3"/>
<ellipse cx="10.8805" cy="47.0004" rx="1.30555" ry="1.35999" transform="rotate(90 10.8805 47.0004)" fill="#728FA3"/>
<ellipse cx="10.8805" cy="19.5834" rx="1.30555" ry="1.35999" transform="rotate(90 10.8805 19.5834)" fill="#728FA3"/>
<ellipse cx="1.36071" cy="46.9999" rx="1.30555" ry="1.35999" transform="rotate(90 1.36071 46.9999)" fill="#728FA3"/>
<ellipse cx="1.36047" cy="19.5834" rx="1.30555" ry="1.35999" transform="rotate(90 1.36047 19.5834)" fill="#728FA3"/>
<ellipse cx="58.4808" cy="47.0009" rx="1.30555" ry="1.35999" transform="rotate(90 58.4808 47.0009)" fill="#728FA3"/>
<ellipse cx="58.4806" cy="19.5839" rx="1.30555" ry="1.35999" transform="rotate(90 58.4806 19.5839)" fill="#728FA3"/>
<ellipse cx="48.9608" cy="56.139" rx="1.30555" ry="1.35999" transform="rotate(90 48.9608 56.139)" fill="#728FA3"/>
<ellipse cx="39.4408" cy="56.139" rx="1.30555" ry="1.35999" transform="rotate(90 39.4408 56.139)" fill="#728FA3"/>
<ellipse cx="29.9205" cy="56.139" rx="1.30555" ry="1.35999" transform="rotate(90 29.9205 56.139)" fill="#728FA3"/>
<ellipse cx="20.4005" cy="56.139" rx="1.30555" ry="1.35999" transform="rotate(90 20.4005 56.139)" fill="#728FA3"/>
<ellipse cx="10.8805" cy="56.139" rx="1.30555" ry="1.35999" transform="rotate(90 10.8805 56.139)" fill="#728FA3"/>
<ellipse cx="1.36047" cy="56.139" rx="1.30555" ry="1.35999" transform="rotate(90 1.36047 56.139)" fill="#728FA3"/>
<ellipse cx="58.4808" cy="56.1395" rx="1.30555" ry="1.35999" transform="rotate(90 58.4808 56.1395)" fill="#728FA3"/>
<ellipse cx="48.9606" cy="65.2782" rx="1.30555" ry="1.35999" transform="rotate(90 48.9606 65.2782)" fill="#728FA3"/>
<ellipse cx="39.4405" cy="65.2777" rx="1.30555" ry="1.35999" transform="rotate(90 39.4405 65.2777)" fill="#728FA3"/>
<ellipse cx="29.9198" cy="65.2772" rx="1.30555" ry="1.35999" transform="rotate(90 29.9198 65.2772)" fill="#728FA3"/>
<ellipse cx="20.4003" cy="65.2777" rx="1.30555" ry="1.35999" transform="rotate(90 20.4003 65.2777)" fill="#728FA3"/>
<ellipse cx="10.8805" cy="65.2777" rx="1.30555" ry="1.35999" transform="rotate(90 10.8805 65.2777)" fill="#728FA3"/>
<ellipse cx="1.36047" cy="65.2777" rx="1.30555" ry="1.35999" transform="rotate(90 1.36047 65.2777)" fill="#728FA3"/>
<ellipse cx="58.4806" cy="65.2782" rx="1.30555" ry="1.35999" transform="rotate(90 58.4806 65.2782)" fill="#728FA3"/>
<ellipse cx="48.9606" cy="74.4169" rx="1.30555" ry="1.35999" transform="rotate(90 48.9606 74.4169)" fill="#728FA3"/>
<ellipse cx="39.4405" cy="74.4164" rx="1.30555" ry="1.35999" transform="rotate(90 39.4405 74.4164)" fill="#728FA3"/>
<ellipse cx="29.9203" cy="74.4164" rx="1.30555" ry="1.35999" transform="rotate(90 29.9203 74.4164)" fill="#728FA3"/>
<ellipse cx="20.4007" cy="74.4169" rx="1.30555" ry="1.35999" transform="rotate(90 20.4007 74.4169)" fill="#728FA3"/>
<ellipse cx="10.8807" cy="74.4169" rx="1.30555" ry="1.35999" transform="rotate(90 10.8807 74.4169)" fill="#728FA3"/>
<ellipse cx="1.36071" cy="74.4169" rx="1.30555" ry="1.35999" transform="rotate(90 1.36071 74.4169)" fill="#728FA3"/>
<ellipse cx="58.4803" cy="74.4169" rx="1.30555" ry="1.35999" transform="rotate(90 58.4803 74.4169)" fill="#728FA3"/>
<ellipse cx="48.9603" cy="83.5555" rx="1.30555" ry="1.35999" transform="rotate(90 48.9603 83.5555)" fill="#728FA3"/>
<ellipse cx="39.4403" cy="83.5555" rx="1.30555" ry="1.35999" transform="rotate(90 39.4403 83.5555)" fill="#728FA3"/>
<ellipse cx="29.9203" cy="83.5551" rx="1.30555" ry="1.35999" transform="rotate(90 29.9203 83.5551)" fill="#728FA3"/>
<ellipse cx="20.4007" cy="83.5555" rx="1.30555" ry="1.35999" transform="rotate(90 20.4007 83.5555)" fill="#728FA3"/>
<ellipse cx="10.8807" cy="83.5555" rx="1.30555" ry="1.35999" transform="rotate(90 10.8807 83.5555)" fill="#728FA3"/>
<ellipse cx="1.36071" cy="83.5555" rx="1.30555" ry="1.35999" transform="rotate(90 1.36071 83.5555)" fill="#728FA3"/>
<ellipse cx="58.4803" cy="83.5555" rx="1.30555" ry="1.35999" transform="rotate(90 58.4803 83.5555)" fill="#728FA3"/>
<ellipse cx="48.9603" cy="92.6942" rx="1.30555" ry="1.35999" transform="rotate(90 48.9603 92.6942)" fill="#728FA3"/>
<ellipse cx="39.4403" cy="92.6942" rx="1.30555" ry="1.35999" transform="rotate(90 39.4403 92.6942)" fill="#728FA3"/>
<ellipse cx="29.92" cy="92.6942" rx="1.30555" ry="1.35999" transform="rotate(90 29.92 92.6942)" fill="#728FA3"/>
<ellipse cx="20.4005" cy="92.6942" rx="1.30555" ry="1.35999" transform="rotate(90 20.4005 92.6942)" fill="#728FA3"/>
<ellipse cx="10.8805" cy="92.6942" rx="1.30555" ry="1.35999" transform="rotate(90 10.8805 92.6942)" fill="#728FA3"/>
<ellipse cx="1.36047" cy="92.6942" rx="1.30555" ry="1.35999" transform="rotate(90 1.36047 92.6942)" fill="#728FA3"/>
<ellipse cx="58.4803" cy="92.6942" rx="1.30555" ry="1.35999" transform="rotate(90 58.4803 92.6942)" fill="#728FA3"/>
</svg>
