<svg width="141" height="194" viewBox="0 0 141 194" fill="none" xmlns="http://www.w3.org/2000/svg">
<path d="M83.8982 129.267C82.0821 127.889 76.1697 125.125 71.7386 124.405C66.3486 123.53 58.8995 123.55 50.6599 124.462C42.6783 125.345 36.3855 125.842 32.3508 125.906C22.0452 126.07 13.8845 123.775 8.92032 119.316C7.09939 117.681 4.88423 114.791 4.87845 114.045C4.87703 113.862 5.09096 114.054 5.35398 114.471C6.48299 116.26 10.2135 119.646 12.3252 120.798C18.8824 124.374 37.6046 114.392 51.1914 112.851C64.391 111.354 63.7505 122.188 70.4713 123.22C76.1317 124.088 82.5656 126.081 84.0286 127.862C84.4285 128.348 84.1171 128.72 83.7402 128.434L83.7401 128.434L83.9546 127.845L83.8971 129.266L83.8982 129.267Z" fill="url(#paint0_linear)"/>
<path d="M14.5855 122.261C13.36 124.167 41.3206 135.228 52.4325 135.365C64.1917 135.372 64.0899 126.992 68.4637 123.835C68.3058 123.358 68.7888 123.631 68.7295 123.149C64.0291 123.554 57.2253 123.875 50.5968 123.889C38.433 125.683 27.4661 123.551 15.743 121.983C15.0736 121.983 14.6997 122.084 14.5845 122.263L14.5855 122.261Z" fill="url(#paint1_linear)"/>
<path d="M146.801 138.619C144.272 137.471 136.505 135.782 131.048 136.121C124.41 136.534 115.568 138.566 106.027 141.87C96.7849 145.07 89.4444 147.356 84.6695 148.52C72.4734 151.493 62.1619 150.966 55.0639 147.008C52.4602 145.556 49.0505 142.722 48.8423 141.836C48.7915 141.62 49.0974 141.791 49.522 142.214C51.3453 144.036 56.6887 147.051 59.5073 147.85C68.2596 150.33 87.8064 133.428 103.529 127.936C118.803 122.6 120.963 135.642 129.223 135.055C136.18 134.561 144.36 135.194 146.577 136.914C147.183 137.384 146.913 137.91 146.389 137.672L146.389 137.672L146.485 136.914L146.799 138.618L146.801 138.619Z" fill="url(#paint2_linear)"/>
<path d="M62.5865 148.979C61.6444 151.573 97.8361 157.175 111.071 154.342C125.04 151.182 122.66 141.255 127.005 136.327C126.688 135.803 127.336 135.997 127.135 135.44C121.661 137.188 113.667 139.404 105.798 141.206C91.8337 146.616 78.2331 147.04 63.8862 148.337C63.0913 148.518 62.6742 148.737 62.5856 148.981L62.5865 148.979Z" fill="url(#paint3_linear)"/>
<path d="M127.384 128.543C126.438 124.377 121.284 113.284 115.791 106.911C109.111 99.1579 98.3948 90.209 85.4697 81.5875C72.9491 73.236 63.3189 66.3644 57.4506 61.594C42.4613 49.4097 33.5145 36.2802 31.7635 23.8975C31.1212 19.3554 31.4239 12.5389 32.3157 11.4601C32.5332 11.197 32.6089 11.7303 32.4844 12.6451C31.9482 16.5742 33.222 25.9295 34.8649 30.1275C39.9662 43.1632 78.868 51.4002 100.226 65.563C120.975 79.3228 106.998 94.1017 115.401 103.682C122.479 111.75 129.311 122.365 129.265 126.683C129.253 127.864 128.357 128.022 128.161 127.158L128.161 127.158L129.179 126.57L127.384 128.54L127.384 128.543Z" fill="url(#paint4_linear)"/>
<path d="M36.345 34.9524C32.2899 36.2099 59.089 85.7849 74.8734 99.3725C91.7418 113.556 101.696 101.405 111.778 102.145C112.126 101.271 112.491 102.244 112.987 101.481C105.752 96.3968 95.5994 88.6584 86.0696 80.689C66.4484 68.605 53.2776 52.3274 38.3421 35.9476C37.3807 35.1416 36.7232 34.8347 36.342 34.953L36.345 34.9524Z" fill="url(#paint5_linear)"/>
<defs>
<linearGradient id="paint0_linear" x1="50.5894" y1="114.407" x2="49.5164" y2="124.254" gradientUnits="userSpaceOnUse">
<stop stop-color="#37A42C"/>
<stop offset="1" stop-color="#00892C"/>
</linearGradient>
<linearGradient id="paint1_linear" x1="51.3708" y1="135.766" x2="54.2006" y2="124.438" gradientUnits="userSpaceOnUse">
<stop stop-color="#00892C"/>
<stop offset="1" stop-color="#006E29"/>
</linearGradient>
<linearGradient id="paint2_linear" x1="103.233" y1="129.947" x2="104.613" y2="141.932" gradientUnits="userSpaceOnUse">
<stop stop-color="#37A42C"/>
<stop offset="1" stop-color="#00892C"/>
</linearGradient>
<linearGradient id="paint3_linear" x1="109.918" y1="155.104" x2="110.226" y2="140.887" gradientUnits="userSpaceOnUse">
<stop stop-color="#00892C"/>
<stop offset="1" stop-color="#006E29"/>
</linearGradient>
<linearGradient id="paint4_linear" x1="97.4859" y1="67.0719" x2="84.0781" y2="79.9119" gradientUnits="userSpaceOnUse">
<stop stop-color="#37A42C"/>
<stop offset="1" stop-color="#00892C"/>
</linearGradient>
<linearGradient id="paint5_linear" x1="72.8664" y1="98.6685" x2="90.5801" y2="85.8205" gradientUnits="userSpaceOnUse">
<stop stop-color="#00892C"/>
<stop offset="1" stop-color="#006E29"/>
</linearGradient>
</defs>
</svg>
