<svg width="94" height="136" viewBox="0 0 94 136" fill="none" xmlns="http://www.w3.org/2000/svg">
<ellipse cx="28.7225" cy="1.35999" rx="1.30555" ry="1.35999" fill="white"/>
<ellipse cx="1.30592" cy="1.36048" rx="1.30555" ry="1.35999" fill="white"/>
<ellipse cx="28.7225" cy="87.0392" rx="1.30555" ry="1.35999" fill="white"/>
<ellipse cx="1.30573" cy="87.0397" rx="1.30555" ry="1.35999" fill="white"/>
<ellipse cx="28.7224" cy="10.8805" rx="1.30555" ry="1.35999" fill="white"/>
<ellipse cx="1.30573" cy="10.8805" rx="1.30555" ry="1.35999" fill="white"/>
<ellipse cx="28.7225" cy="96.5592" rx="1.30555" ry="1.35999" fill="white"/>
<ellipse cx="1.30573" cy="96.5597" rx="1.30555" ry="1.35999" fill="white"/>
<ellipse cx="28.7223" cy="20.4" rx="1.30555" ry="1.35999" fill="white"/>
<ellipse cx="1.30555" cy="20.4" rx="1.30555" ry="1.35999" fill="white"/>
<ellipse cx="28.7224" cy="106.08" rx="1.30555" ry="1.35999" fill="white"/>
<ellipse cx="1.30555" cy="106.08" rx="1.30555" ry="1.35999" fill="white"/>
<ellipse cx="28.7221" cy="29.9201" rx="1.30555" ry="1.35999" fill="white"/>
<ellipse cx="1.30555" cy="29.9205" rx="1.30555" ry="1.35999" fill="white"/>
<ellipse cx="28.7222" cy="115.6" rx="1.30555" ry="1.35999" fill="white"/>
<ellipse cx="1.3061" cy="115.599" rx="1.30555" ry="1.35999" fill="white"/>
<ellipse cx="28.7221" cy="39.4401" rx="1.30555" ry="1.35999" fill="white"/>
<ellipse cx="1.3061" cy="39.4401" rx="1.30555" ry="1.35999" fill="white"/>
<ellipse cx="28.7222" cy="125.12" rx="1.30555" ry="1.35999" fill="white"/>
<ellipse cx="1.3061" cy="125.119" rx="1.30555" ry="1.35999" fill="white"/>
<ellipse cx="28.722" cy="48.9606" rx="1.30555" ry="1.35999" fill="white"/>
<ellipse cx="1.30598" cy="48.9596" rx="1.30555" ry="1.35999" fill="white"/>
<ellipse cx="28.7221" cy="134.64" rx="1.30555" ry="1.35999" fill="white"/>
<ellipse cx="1.30592" cy="134.639" rx="1.30555" ry="1.35999" fill="white"/>
<ellipse cx="28.7219" cy="58.4801" rx="1.30555" ry="1.35999" fill="white"/>
<ellipse cx="1.30592" cy="58.4796" rx="1.30555" ry="1.35999" fill="white"/>
<ellipse cx="28.7223" cy="67.9996" rx="1.30555" ry="1.35999" fill="white"/>
<ellipse cx="1.30592" cy="67.9996" rx="1.30555" ry="1.35999" fill="white"/>
<ellipse cx="28.7227" cy="77.5192" rx="1.30555" ry="1.35999" fill="white"/>
<ellipse cx="1.30573" cy="77.5197" rx="1.30555" ry="1.35999" fill="white"/>
<ellipse cx="37.8607" cy="1.36097" rx="1.30555" ry="1.35999" fill="white"/>
<ellipse cx="10.4445" cy="1.36048" rx="1.30555" ry="1.35999" fill="white"/>
<ellipse cx="37.8613" cy="87.0397" rx="1.30555" ry="1.35999" fill="white"/>
<ellipse cx="10.4446" cy="87.0397" rx="1.30555" ry="1.35999" fill="white"/>
<ellipse cx="37.8611" cy="10.8805" rx="1.30555" ry="1.35999" fill="white"/>
<ellipse cx="10.4444" cy="10.8805" rx="1.30555" ry="1.35999" fill="white"/>
<ellipse cx="37.8612" cy="96.5597" rx="1.30555" ry="1.35999" fill="white"/>
<ellipse cx="10.4445" cy="96.5597" rx="1.30555" ry="1.35999" fill="white"/>
<ellipse cx="37.861" cy="20.4" rx="1.30555" ry="1.35999" fill="white"/>
<ellipse cx="10.4442" cy="20.4" rx="1.30555" ry="1.35999" fill="white"/>
<ellipse cx="37.8612" cy="106.08" rx="1.30555" ry="1.35999" fill="white"/>
<ellipse cx="10.4443" cy="106.08" rx="1.30555" ry="1.35999" fill="white"/>
<ellipse cx="37.8608" cy="29.9205" rx="1.30555" ry="1.35999" fill="white"/>
<ellipse cx="10.4442" cy="29.9205" rx="1.30555" ry="1.35999" fill="white"/>
<ellipse cx="37.861" cy="115.6" rx="1.30555" ry="1.35999" fill="white"/>
<ellipse cx="10.4443" cy="115.6" rx="1.30555" ry="1.35999" fill="white"/>
<ellipse cx="37.8608" cy="39.4406" rx="1.30555" ry="1.35999" fill="white"/>
<ellipse cx="10.4446" cy="39.4401" rx="1.30555" ry="1.35999" fill="white"/>
<ellipse cx="37.8609" cy="125.12" rx="1.30555" ry="1.35999" fill="white"/>
<ellipse cx="10.4442" cy="125.12" rx="1.30555" ry="1.35999" fill="white"/>
<ellipse cx="37.8607" cy="48.9606" rx="1.30555" ry="1.35999" fill="white"/>
<ellipse cx="10.4445" cy="48.9601" rx="1.30555" ry="1.35999" fill="white"/>
<ellipse cx="37.8608" cy="134.64" rx="1.30555" ry="1.35999" fill="white"/>
<ellipse cx="10.4441" cy="134.64" rx="1.30555" ry="1.35999" fill="white"/>
<ellipse cx="37.8606" cy="58.4801" rx="1.30555" ry="1.35999" fill="white"/>
<ellipse cx="10.4444" cy="58.4801" rx="1.30555" ry="1.35999" fill="white"/>
<ellipse cx="37.861" cy="67.9996" rx="1.30555" ry="1.35999" fill="white"/>
<ellipse cx="10.4448" cy="67.9996" rx="1.30555" ry="1.35999" fill="white"/>
<ellipse cx="37.8614" cy="77.5197" rx="1.30555" ry="1.35999" fill="white"/>
<ellipse cx="10.4446" cy="77.5197" rx="1.30555" ry="1.35999" fill="white"/>
<ellipse cx="46.9999" cy="1.36048" rx="1.30555" ry="1.35999" fill="white"/>
<ellipse cx="19.5837" cy="1.35999" rx="1.30555" ry="1.35999" fill="white"/>
<ellipse cx="47.0005" cy="87.0392" rx="1.30555" ry="1.35999" fill="white"/>
<ellipse cx="19.5838" cy="87.0392" rx="1.30555" ry="1.35999" fill="white"/>
<ellipse cx="47.0003" cy="10.8795" rx="1.30555" ry="1.35999" fill="white"/>
<ellipse cx="19.5836" cy="10.88" rx="1.30555" ry="1.35999" fill="white"/>
<ellipse cx="47.0004" cy="96.5592" rx="1.30555" ry="1.35999" fill="white"/>
<ellipse cx="19.5837" cy="96.5592" rx="1.30555" ry="1.35999" fill="white"/>
<ellipse cx="47.0003" cy="20.4" rx="1.30555" ry="1.35999" fill="white"/>
<ellipse cx="19.5834" cy="20.4" rx="1.30555" ry="1.35999" fill="white"/>
<ellipse cx="47.0004" cy="106.079" rx="1.30555" ry="1.35999" fill="white"/>
<ellipse cx="19.5837" cy="106.08" rx="1.30555" ry="1.35999" fill="white"/>
<ellipse cx="47.0001" cy="29.9196" rx="1.30555" ry="1.35999" fill="white"/>
<ellipse cx="19.5834" cy="29.9201" rx="1.30555" ry="1.35999" fill="white"/>
<ellipse cx="47.0002" cy="115.599" rx="1.30555" ry="1.35999" fill="white"/>
<ellipse cx="19.5835" cy="115.599" rx="1.30555" ry="1.35999" fill="white"/>
<ellipse cx="47" cy="39.4401" rx="1.30555" ry="1.35999" fill="white"/>
<ellipse cx="19.5838" cy="39.4396" rx="1.30555" ry="1.35999" fill="white"/>
<ellipse cx="47.0001" cy="125.12" rx="1.30555" ry="1.35999" fill="white"/>
<ellipse cx="19.5834" cy="125.12" rx="1.30555" ry="1.35999" fill="white"/>
<ellipse cx="46.9999" cy="48.9601" rx="1.30555" ry="1.35999" fill="white"/>
<ellipse cx="19.5837" cy="48.9596" rx="1.30555" ry="1.35999" fill="white"/>
<ellipse cx="47.0001" cy="134.639" rx="1.30555" ry="1.35999" fill="white"/>
<ellipse cx="19.5834" cy="134.639" rx="1.30555" ry="1.35999" fill="white"/>
<ellipse cx="46.9998" cy="58.4801" rx="1.30555" ry="1.35999" fill="white"/>
<ellipse cx="19.5831" cy="58.4801" rx="1.30555" ry="1.35999" fill="white"/>
<ellipse cx="47.0002" cy="67.9996" rx="1.30555" ry="1.35999" fill="white"/>
<ellipse cx="19.5835" cy="67.9996" rx="1.30555" ry="1.35999" fill="white"/>
<ellipse cx="47.0006" cy="77.5192" rx="1.30555" ry="1.35999" fill="white"/>
<ellipse cx="19.5839" cy="77.5192" rx="1.30555" ry="1.35999" fill="white"/>
<ellipse cx="56.1387" cy="1.36048" rx="1.30555" ry="1.35999" fill="white"/>
<ellipse cx="56.1392" cy="87.0392" rx="1.30555" ry="1.35999" fill="white"/>
<ellipse cx="56.139" cy="10.88" rx="1.30555" ry="1.35999" fill="white"/>
<ellipse cx="56.1392" cy="96.5592" rx="1.30555" ry="1.35999" fill="white"/>
<ellipse cx="56.139" cy="20.4" rx="1.30555" ry="1.35999" fill="white"/>
<ellipse cx="56.1391" cy="106.08" rx="1.30555" ry="1.35999" fill="white"/>
<ellipse cx="56.1388" cy="29.9196" rx="1.30555" ry="1.35999" fill="white"/>
<ellipse cx="56.1389" cy="115.599" rx="1.30555" ry="1.35999" fill="white"/>
<ellipse cx="56.1387" cy="39.4401" rx="1.30555" ry="1.35999" fill="white"/>
<ellipse cx="56.1389" cy="125.12" rx="1.30555" ry="1.35999" fill="white"/>
<ellipse cx="56.1387" cy="48.9606" rx="1.30555" ry="1.35999" fill="white"/>
<ellipse cx="56.1388" cy="134.639" rx="1.30555" ry="1.35999" fill="white"/>
<ellipse cx="56.1386" cy="58.4801" rx="1.30555" ry="1.35999" fill="white"/>
<ellipse cx="56.1389" cy="67.9996" rx="1.30555" ry="1.35999" fill="white"/>
<ellipse cx="56.1394" cy="77.5192" rx="1.30555" ry="1.35999" fill="white"/>
<ellipse cx="65.2774" cy="1.36097" rx="1.30555" ry="1.35999" fill="white"/>
<ellipse cx="65.2781" cy="87.0397" rx="1.30555" ry="1.35999" fill="white"/>
<ellipse cx="65.2778" cy="10.88" rx="1.30555" ry="1.35999" fill="white"/>
<ellipse cx="65.2779" cy="96.5592" rx="1.30555" ry="1.35999" fill="white"/>
<ellipse cx="65.2777" cy="20.4" rx="1.30555" ry="1.35999" fill="white"/>
<ellipse cx="65.2774" cy="106.08" rx="1.30555" ry="1.35999" fill="white"/>
<ellipse cx="65.2775" cy="29.9201" rx="1.30555" ry="1.35999" fill="white"/>
<ellipse cx="65.2778" cy="115.6" rx="1.30555" ry="1.35999" fill="white"/>
<ellipse cx="65.2775" cy="39.4401" rx="1.30555" ry="1.35999" fill="white"/>
<ellipse cx="65.2776" cy="125.12" rx="1.30555" ry="1.35999" fill="white"/>
<ellipse cx="65.2774" cy="48.9606" rx="1.30555" ry="1.35999" fill="white"/>
<ellipse cx="65.2775" cy="134.639" rx="1.30555" ry="1.35999" fill="white"/>
<ellipse cx="65.2774" cy="58.4801" rx="1.30555" ry="1.35999" fill="white"/>
<ellipse cx="65.2777" cy="67.9996" rx="1.30555" ry="1.35999" fill="white"/>
<ellipse cx="65.2781" cy="77.5192" rx="1.30555" ry="1.35999" fill="white"/>
<ellipse cx="74.4168" cy="1.36048" rx="1.30555" ry="1.35999" fill="white"/>
<ellipse cx="74.4168" cy="87.0397" rx="1.30555" ry="1.35999" fill="white"/>
<ellipse cx="74.417" cy="10.8795" rx="1.30555" ry="1.35999" fill="white"/>
<ellipse cx="74.4166" cy="96.5592" rx="1.30555" ry="1.35999" fill="white"/>
<ellipse cx="74.4169" cy="20.4" rx="1.30555" ry="1.35999" fill="white"/>
<ellipse cx="74.4166" cy="106.08" rx="1.30555" ry="1.35999" fill="white"/>
<ellipse cx="74.4169" cy="29.9196" rx="1.30555" ry="1.35999" fill="white"/>
<ellipse cx="74.417" cy="115.599" rx="1.30555" ry="1.35999" fill="white"/>
<ellipse cx="74.4167" cy="39.4401" rx="1.30555" ry="1.35999" fill="white"/>
<ellipse cx="74.4168" cy="125.119" rx="1.30555" ry="1.35999" fill="white"/>
<ellipse cx="74.4166" cy="48.9596" rx="1.30555" ry="1.35999" fill="white"/>
<ellipse cx="74.4168" cy="134.639" rx="1.30555" ry="1.35999" fill="white"/>
<ellipse cx="74.4166" cy="58.4801" rx="1.30555" ry="1.35999" fill="white"/>
<ellipse cx="74.4169" cy="67.9996" rx="1.30555" ry="1.35999" fill="white"/>
<ellipse cx="74.4168" cy="77.5197" rx="1.30555" ry="1.35999" fill="white"/>
<ellipse cx="83.5555" cy="1.36048" rx="1.30555" ry="1.35999" fill="white"/>
<ellipse cx="83.5555" cy="87.0397" rx="1.30555" ry="1.35999" fill="white"/>
<ellipse cx="83.5552" cy="10.8805" rx="1.30555" ry="1.35999" fill="white"/>
<ellipse cx="83.5554" cy="96.5597" rx="1.30555" ry="1.35999" fill="white"/>
<ellipse cx="83.5552" cy="20.4" rx="1.30555" ry="1.35999" fill="white"/>
<ellipse cx="83.5553" cy="106.08" rx="1.30555" ry="1.35999" fill="white"/>
<ellipse cx="83.5551" cy="29.9205" rx="1.30555" ry="1.35999" fill="white"/>
<ellipse cx="83.5557" cy="115.599" rx="1.30555" ry="1.35999" fill="white"/>
<ellipse cx="83.5554" cy="39.4401" rx="1.30555" ry="1.35999" fill="white"/>
<ellipse cx="83.5555" cy="125.119" rx="1.30555" ry="1.35999" fill="white"/>
<ellipse cx="83.5554" cy="48.9601" rx="1.30555" ry="1.35999" fill="white"/>
<ellipse cx="83.5555" cy="134.639" rx="1.30555" ry="1.35999" fill="white"/>
<ellipse cx="83.5553" cy="58.4801" rx="1.30555" ry="1.35999" fill="white"/>
<ellipse cx="83.5556" cy="67.9996" rx="1.30555" ry="1.35999" fill="white"/>
<ellipse cx="83.5555" cy="77.5197" rx="1.30555" ry="1.35999" fill="white"/>
<ellipse cx="92.6942" cy="1.36097" rx="1.30555" ry="1.35999" fill="white"/>
<ellipse cx="92.6942" cy="87.0397" rx="1.30555" ry="1.35999" fill="white"/>
<ellipse cx="92.694" cy="10.8805" rx="1.30555" ry="1.35999" fill="white"/>
<ellipse cx="92.6941" cy="96.5597" rx="1.30555" ry="1.35999" fill="white"/>
<ellipse cx="92.6939" cy="20.4005" rx="1.30555" ry="1.35999" fill="white"/>
<ellipse cx="92.694" cy="106.08" rx="1.30555" ry="1.35999" fill="white"/>
<ellipse cx="92.6939" cy="29.9205" rx="1.30555" ry="1.35999" fill="white"/>
<ellipse cx="92.6945" cy="115.599" rx="1.30555" ry="1.35999" fill="white"/>
<ellipse cx="92.6942" cy="39.4401" rx="1.30555" ry="1.35999" fill="white"/>
<ellipse cx="92.6943" cy="125.12" rx="1.30555" ry="1.35999" fill="white"/>
<ellipse cx="92.6941" cy="48.9601" rx="1.30555" ry="1.35999" fill="white"/>
<ellipse cx="92.6942" cy="134.639" rx="1.30555" ry="1.35999" fill="white"/>
<ellipse cx="92.694" cy="58.4801" rx="1.30555" ry="1.35999" fill="white"/>
<ellipse cx="92.6943" cy="67.9996" rx="1.30555" ry="1.35999" fill="white"/>
<ellipse cx="92.6943" cy="77.5197" rx="1.30555" ry="1.35999" fill="white"/>
</svg>
