<svg width="199" height="200" viewBox="0 0 199 200" fill="none" xmlns="http://www.w3.org/2000/svg">
<ellipse cx="136.391" cy="27.1523" rx="1.70241" ry="1.592" transform="rotate(43.9772 136.391 27.1523)" fill="white" fill-opacity="0.63"/>
<ellipse cx="110.664" cy="2.32859" rx="1.70241" ry="1.592" transform="rotate(43.9772 110.664 2.32859)" fill="white" fill-opacity="0.63"/>
<ellipse cx="66.7487" cy="99.327" rx="1.70241" ry="1.592" transform="rotate(43.9772 66.7487 99.327)" fill="white" fill-opacity="0.63"/>
<ellipse cx="41.0215" cy="74.5028" rx="1.70241" ry="1.592" transform="rotate(43.9772 41.0215 74.5028)" fill="white" fill-opacity="0.63"/>
<ellipse cx="128.653" cy="35.1717" rx="1.70241" ry="1.592" transform="rotate(43.9772 128.653 35.1717)" fill="white" fill-opacity="0.63"/>
<ellipse cx="102.926" cy="10.3476" rx="1.70241" ry="1.592" transform="rotate(43.9772 102.926 10.3476)" fill="white" fill-opacity="0.63"/>
<ellipse cx="59.0105" cy="107.346" rx="1.70241" ry="1.592" transform="rotate(43.9772 59.0105 107.346)" fill="white" fill-opacity="0.63"/>
<ellipse cx="33.2833" cy="82.5223" rx="1.70241" ry="1.592" transform="rotate(43.9772 33.2833 82.5223)" fill="white" fill-opacity="0.63"/>
<ellipse cx="120.915" cy="43.1913" rx="1.70241" ry="1.592" transform="rotate(43.9772 120.915 43.1913)" fill="white" fill-opacity="0.63"/>
<ellipse cx="95.188" cy="18.3669" rx="1.70241" ry="1.592" transform="rotate(43.9772 95.188 18.3669)" fill="white" fill-opacity="0.63"/>
<ellipse cx="51.2722" cy="115.366" rx="1.70241" ry="1.592" transform="rotate(43.9772 51.2722 115.366)" fill="white" fill-opacity="0.63"/>
<ellipse cx="25.5451" cy="90.5416" rx="1.70241" ry="1.592" transform="rotate(43.9772 25.5451 90.5416)" fill="white" fill-opacity="0.63"/>
<ellipse cx="113.177" cy="51.2104" rx="1.70241" ry="1.592" transform="rotate(43.9772 113.177 51.2104)" fill="white" fill-opacity="0.63"/>
<ellipse cx="87.4497" cy="26.3863" rx="1.70241" ry="1.592" transform="rotate(43.9772 87.4497 26.3863)" fill="white" fill-opacity="0.63"/>
<ellipse cx="43.5339" cy="123.385" rx="1.70241" ry="1.592" transform="rotate(43.9772 43.5339 123.385)" fill="white" fill-opacity="0.63"/>
<ellipse cx="17.8078" cy="98.5611" rx="1.70241" ry="1.592" transform="rotate(43.9772 17.8078 98.5611)" fill="white" fill-opacity="0.63"/>
<ellipse cx="105.438" cy="59.23" rx="1.70241" ry="1.592" transform="rotate(43.9772 105.438 59.23)" fill="white" fill-opacity="0.63"/>
<ellipse cx="79.7125" cy="34.4059" rx="1.70241" ry="1.592" transform="rotate(43.9772 79.7125 34.4059)" fill="white" fill-opacity="0.63"/>
<ellipse cx="35.7957" cy="131.405" rx="1.70241" ry="1.592" transform="rotate(43.9772 35.7957 131.405)" fill="white" fill-opacity="0.63"/>
<ellipse cx="10.0696" cy="106.581" rx="1.70241" ry="1.592" transform="rotate(43.9772 10.0696 106.581)" fill="white" fill-opacity="0.63"/>
<ellipse cx="97.7" cy="67.2495" rx="1.70241" ry="1.592" transform="rotate(43.9772 97.7 67.2495)" fill="white" fill-opacity="0.63"/>
<ellipse cx="71.9743" cy="42.4251" rx="1.70241" ry="1.592" transform="rotate(43.9772 71.9743 42.4251)" fill="white" fill-opacity="0.63"/>
<ellipse cx="28.0574" cy="139.424" rx="1.70241" ry="1.592" transform="rotate(43.9772 28.0574 139.424)" fill="white" fill-opacity="0.63"/>
<ellipse cx="2.33143" cy="114.6" rx="1.70241" ry="1.592" transform="rotate(43.9772 2.33143 114.6)" fill="white" fill-opacity="0.63"/>
<ellipse cx="89.9617" cy="75.2688" rx="1.70241" ry="1.592" transform="rotate(43.9772 89.9617 75.2688)" fill="white" fill-opacity="0.63"/>
<ellipse cx="64.2361" cy="50.4446" rx="1.70241" ry="1.592" transform="rotate(43.9772 64.2361 50.4446)" fill="white" fill-opacity="0.63"/>
<ellipse cx="82.2244" cy="83.2882" rx="1.70241" ry="1.592" transform="rotate(43.9772 82.2244 83.2882)" fill="white" fill-opacity="0.63"/>
<ellipse cx="56.4979" cy="58.4641" rx="1.70241" ry="1.592" transform="rotate(43.9772 56.4979 58.4641)" fill="white" fill-opacity="0.63"/>
<ellipse cx="74.487" cy="91.3076" rx="1.70241" ry="1.592" transform="rotate(43.9772 74.487 91.3076)" fill="white" fill-opacity="0.63"/>
<ellipse cx="48.7597" cy="66.4834" rx="1.70241" ry="1.592" transform="rotate(43.9772 48.7597 66.4834)" fill="white" fill-opacity="0.63"/>
<ellipse cx="144.966" cy="35.4272" rx="1.70241" ry="1.592" transform="rotate(43.9772 144.966 35.4272)" fill="white" fill-opacity="0.63"/>
<ellipse cx="119.24" cy="10.603" rx="1.70241" ry="1.592" transform="rotate(43.9772 119.24 10.603)" fill="white" fill-opacity="0.63"/>
<ellipse cx="75.3241" cy="107.602" rx="1.70241" ry="1.592" transform="rotate(43.9772 75.3241 107.602)" fill="white" fill-opacity="0.63"/>
<ellipse cx="49.5971" cy="82.7776" rx="1.70241" ry="1.592" transform="rotate(43.9772 49.5971 82.7776)" fill="white" fill-opacity="0.63"/>
<ellipse cx="137.228" cy="43.4464" rx="1.70241" ry="1.592" transform="rotate(43.9772 137.228 43.4464)" fill="white" fill-opacity="0.63"/>
<ellipse cx="111.501" cy="18.6223" rx="1.70241" ry="1.592" transform="rotate(43.9772 111.501 18.6223)" fill="white" fill-opacity="0.63"/>
<ellipse cx="67.5858" cy="115.621" rx="1.70241" ry="1.592" transform="rotate(43.9772 67.5858 115.621)" fill="white" fill-opacity="0.63"/>
<ellipse cx="41.8589" cy="90.797" rx="1.70241" ry="1.592" transform="rotate(43.9772 41.8589 90.797)" fill="white" fill-opacity="0.63"/>
<ellipse cx="129.49" cy="51.4659" rx="1.70241" ry="1.592" transform="rotate(43.9772 129.49 51.4659)" fill="white" fill-opacity="0.63"/>
<ellipse cx="103.763" cy="26.6416" rx="1.70241" ry="1.592" transform="rotate(43.9772 103.763 26.6416)" fill="white" fill-opacity="0.63"/>
<ellipse cx="59.8476" cy="123.641" rx="1.70241" ry="1.592" transform="rotate(43.9772 59.8476 123.641)" fill="white" fill-opacity="0.63"/>
<ellipse cx="34.1206" cy="98.8163" rx="1.70241" ry="1.592" transform="rotate(43.9772 34.1206 98.8163)" fill="white" fill-opacity="0.63"/>
<ellipse cx="121.752" cy="59.4852" rx="1.70241" ry="1.592" transform="rotate(43.9772 121.752 59.4852)" fill="white" fill-opacity="0.63"/>
<ellipse cx="96.0249" cy="34.6611" rx="1.70241" ry="1.592" transform="rotate(43.9772 96.0249 34.6611)" fill="white" fill-opacity="0.63"/>
<ellipse cx="52.1093" cy="131.66" rx="1.70241" ry="1.592" transform="rotate(43.9772 52.1093 131.66)" fill="white" fill-opacity="0.63"/>
<ellipse cx="26.3823" cy="106.836" rx="1.70241" ry="1.592" transform="rotate(43.9772 26.3823 106.836)" fill="white" fill-opacity="0.63"/>
<ellipse cx="114.014" cy="67.5047" rx="1.70241" ry="1.592" transform="rotate(43.9772 114.014 67.5047)" fill="white" fill-opacity="0.63"/>
<ellipse cx="88.2876" cy="42.6805" rx="1.70241" ry="1.592" transform="rotate(43.9772 88.2876 42.6805)" fill="white" fill-opacity="0.63"/>
<ellipse cx="44.371" cy="139.679" rx="1.70241" ry="1.592" transform="rotate(43.9772 44.371 139.679)" fill="white" fill-opacity="0.63"/>
<ellipse cx="18.644" cy="114.855" rx="1.70241" ry="1.592" transform="rotate(43.9772 18.644 114.855)" fill="white" fill-opacity="0.63"/>
<ellipse cx="106.275" cy="75.5243" rx="1.70241" ry="1.592" transform="rotate(43.9772 106.275 75.5243)" fill="white" fill-opacity="0.63"/>
<ellipse cx="80.5493" cy="50.6998" rx="1.70241" ry="1.592" transform="rotate(43.9772 80.5493 50.6998)" fill="white" fill-opacity="0.63"/>
<ellipse cx="36.6327" cy="147.699" rx="1.70241" ry="1.592" transform="rotate(43.9772 36.6327 147.699)" fill="white" fill-opacity="0.63"/>
<ellipse cx="10.9058" cy="122.875" rx="1.70241" ry="1.592" transform="rotate(43.9772 10.9058 122.875)" fill="white" fill-opacity="0.63"/>
<ellipse cx="98.5371" cy="83.5436" rx="1.70241" ry="1.592" transform="rotate(43.9772 98.5371 83.5436)" fill="white" fill-opacity="0.63"/>
<ellipse cx="72.811" cy="58.7193" rx="1.70241" ry="1.592" transform="rotate(43.9772 72.811 58.7193)" fill="white" fill-opacity="0.63"/>
<ellipse cx="90.7997" cy="91.563" rx="1.70241" ry="1.592" transform="rotate(43.9772 90.7997 91.563)" fill="white" fill-opacity="0.63"/>
<ellipse cx="65.0737" cy="66.7387" rx="1.70241" ry="1.592" transform="rotate(43.9772 65.0737 66.7387)" fill="white" fill-opacity="0.63"/>
<ellipse cx="83.0624" cy="99.5824" rx="1.70241" ry="1.592" transform="rotate(43.9772 83.0624 99.5824)" fill="white" fill-opacity="0.63"/>
<ellipse cx="57.3354" cy="74.758" rx="1.70241" ry="1.592" transform="rotate(43.9772 57.3354 74.758)" fill="white" fill-opacity="0.63"/>
<ellipse cx="153.542" cy="43.7019" rx="1.70241" ry="1.592" transform="rotate(43.9772 153.542 43.7019)" fill="white" fill-opacity="0.63"/>
<ellipse cx="127.816" cy="18.8777" rx="1.70241" ry="1.592" transform="rotate(43.9772 127.816 18.8777)" fill="white" fill-opacity="0.63"/>
<ellipse cx="83.9004" cy="115.876" rx="1.70241" ry="1.592" transform="rotate(43.9772 83.9004 115.876)" fill="white" fill-opacity="0.63"/>
<ellipse cx="58.1734" cy="91.0522" rx="1.70241" ry="1.592" transform="rotate(43.9772 58.1734 91.0522)" fill="white" fill-opacity="0.63"/>
<ellipse cx="145.805" cy="51.7212" rx="1.70241" ry="1.592" transform="rotate(43.9772 145.805 51.7212)" fill="white" fill-opacity="0.63"/>
<ellipse cx="120.078" cy="26.8971" rx="1.70241" ry="1.592" transform="rotate(43.9772 120.078 26.8971)" fill="white" fill-opacity="0.63"/>
<ellipse cx="76.1621" cy="123.896" rx="1.70241" ry="1.592" transform="rotate(43.9772 76.1621 123.896)" fill="white" fill-opacity="0.63"/>
<ellipse cx="50.4351" cy="99.0718" rx="1.70241" ry="1.592" transform="rotate(43.9772 50.4351 99.0718)" fill="white" fill-opacity="0.63"/>
<ellipse cx="138.066" cy="59.7406" rx="1.70241" ry="1.592" transform="rotate(43.9772 138.066 59.7406)" fill="white" fill-opacity="0.63"/>
<ellipse cx="112.339" cy="34.9164" rx="1.70241" ry="1.592" transform="rotate(43.9772 112.339 34.9164)" fill="white" fill-opacity="0.63"/>
<ellipse cx="68.4238" cy="131.915" rx="1.70241" ry="1.592" transform="rotate(43.9772 68.4238 131.915)" fill="white" fill-opacity="0.63"/>
<ellipse cx="42.6968" cy="107.091" rx="1.70241" ry="1.592" transform="rotate(43.9772 42.6968 107.091)" fill="white" fill-opacity="0.63"/>
<ellipse cx="130.328" cy="67.76" rx="1.70241" ry="1.592" transform="rotate(43.9772 130.328 67.76)" fill="white" fill-opacity="0.63"/>
<ellipse cx="104.601" cy="42.9358" rx="1.70241" ry="1.592" transform="rotate(43.9772 104.601 42.9358)" fill="white" fill-opacity="0.63"/>
<ellipse cx="60.6856" cy="139.935" rx="1.70241" ry="1.592" transform="rotate(43.9772 60.6856 139.935)" fill="white" fill-opacity="0.63"/>
<ellipse cx="34.9586" cy="115.11" rx="1.70241" ry="1.592" transform="rotate(43.9772 34.9586 115.11)" fill="white" fill-opacity="0.63"/>
<ellipse cx="122.59" cy="75.7794" rx="1.70241" ry="1.592" transform="rotate(43.9772 122.59 75.7794)" fill="white" fill-opacity="0.63"/>
<ellipse cx="96.8638" cy="50.9552" rx="1.70241" ry="1.592" transform="rotate(43.9772 96.8638 50.9552)" fill="white" fill-opacity="0.63"/>
<ellipse cx="52.9473" cy="147.954" rx="1.70241" ry="1.592" transform="rotate(43.9772 52.9473 147.954)" fill="white" fill-opacity="0.63"/>
<ellipse cx="27.2203" cy="123.13" rx="1.70241" ry="1.592" transform="rotate(43.9772 27.2203 123.13)" fill="white" fill-opacity="0.63"/>
<ellipse cx="114.852" cy="83.7989" rx="1.70241" ry="1.592" transform="rotate(43.9772 114.852 83.7989)" fill="white" fill-opacity="0.63"/>
<ellipse cx="89.1255" cy="58.9747" rx="1.70241" ry="1.592" transform="rotate(43.9772 89.1255 58.9747)" fill="white" fill-opacity="0.63"/>
<ellipse cx="45.209" cy="155.974" rx="1.70241" ry="1.592" transform="rotate(43.9772 45.209 155.974)" fill="white" fill-opacity="0.63"/>
<ellipse cx="19.482" cy="131.15" rx="1.70241" ry="1.592" transform="rotate(43.9772 19.482 131.15)" fill="white" fill-opacity="0.63"/>
<ellipse cx="107.113" cy="91.8182" rx="1.70241" ry="1.592" transform="rotate(43.9772 107.113 91.8182)" fill="white" fill-opacity="0.63"/>
<ellipse cx="81.3864" cy="66.994" rx="1.70241" ry="1.592" transform="rotate(43.9772 81.3864 66.994)" fill="white" fill-opacity="0.63"/>
<ellipse cx="99.376" cy="99.8376" rx="1.70241" ry="1.592" transform="rotate(43.9772 99.376 99.8376)" fill="white" fill-opacity="0.63"/>
<ellipse cx="73.649" cy="75.0135" rx="1.70241" ry="1.592" transform="rotate(43.9772 73.649 75.0135)" fill="white" fill-opacity="0.63"/>
<ellipse cx="91.6386" cy="107.857" rx="1.70241" ry="1.592" transform="rotate(43.9772 91.6386 107.857)" fill="white" fill-opacity="0.63"/>
<ellipse cx="65.9117" cy="83.0329" rx="1.70241" ry="1.592" transform="rotate(43.9772 65.9117 83.0329)" fill="white" fill-opacity="0.63"/>
<ellipse cx="162.117" cy="51.9765" rx="1.70241" ry="1.592" transform="rotate(43.9772 162.117 51.9765)" fill="white" fill-opacity="0.63"/>
<ellipse cx="92.4757" cy="124.151" rx="1.70241" ry="1.592" transform="rotate(43.9772 92.4757 124.151)" fill="white" fill-opacity="0.63"/>
<ellipse cx="154.38" cy="59.9958" rx="1.70241" ry="1.592" transform="rotate(43.9772 154.38 59.9958)" fill="white" fill-opacity="0.63"/>
<ellipse cx="84.7375" cy="132.171" rx="1.70241" ry="1.592" transform="rotate(43.9772 84.7375 132.171)" fill="white" fill-opacity="0.63"/>
<ellipse cx="146.642" cy="68.0154" rx="1.70241" ry="1.592" transform="rotate(43.9772 146.642 68.0154)" fill="white" fill-opacity="0.63"/>
<ellipse cx="76.9992" cy="140.19" rx="1.70241" ry="1.592" transform="rotate(43.9772 76.9992 140.19)" fill="white" fill-opacity="0.63"/>
<ellipse cx="138.904" cy="76.0346" rx="1.70241" ry="1.592" transform="rotate(43.9772 138.904 76.0346)" fill="white" fill-opacity="0.63"/>
<ellipse cx="69.2609" cy="148.209" rx="1.70241" ry="1.592" transform="rotate(43.9772 69.2609 148.209)" fill="white" fill-opacity="0.63"/>
<ellipse cx="131.165" cy="84.0542" rx="1.70241" ry="1.592" transform="rotate(43.9772 131.165 84.0542)" fill="white" fill-opacity="0.63"/>
<ellipse cx="61.5226" cy="156.229" rx="1.70241" ry="1.592" transform="rotate(43.9772 61.5226 156.229)" fill="white" fill-opacity="0.63"/>
<ellipse cx="123.427" cy="92.0737" rx="1.70241" ry="1.592" transform="rotate(43.9772 123.427 92.0737)" fill="white" fill-opacity="0.63"/>
<ellipse cx="53.7844" cy="164.248" rx="1.70241" ry="1.592" transform="rotate(43.9772 53.7844 164.248)" fill="white" fill-opacity="0.63"/>
<ellipse cx="115.689" cy="100.093" rx="1.70241" ry="1.592" transform="rotate(43.9772 115.689 100.093)" fill="white" fill-opacity="0.63"/>
<ellipse cx="107.951" cy="108.112" rx="1.70241" ry="1.592" transform="rotate(43.9772 107.951 108.112)" fill="white" fill-opacity="0.63"/>
<ellipse cx="100.214" cy="116.132" rx="1.70241" ry="1.592" transform="rotate(43.9772 100.214 116.132)" fill="white" fill-opacity="0.63"/>
<ellipse cx="170.693" cy="60.2513" rx="1.70241" ry="1.592" transform="rotate(43.9772 170.693 60.2513)" fill="white" fill-opacity="0.63"/>
<ellipse cx="101.051" cy="132.426" rx="1.70241" ry="1.592" transform="rotate(43.9772 101.051 132.426)" fill="white" fill-opacity="0.63"/>
<ellipse cx="162.955" cy="68.2706" rx="1.70241" ry="1.592" transform="rotate(43.9772 162.955 68.2706)" fill="white" fill-opacity="0.63"/>
<ellipse cx="93.3128" cy="140.445" rx="1.70241" ry="1.592" transform="rotate(43.9772 93.3128 140.445)" fill="white" fill-opacity="0.63"/>
<ellipse cx="155.217" cy="76.2901" rx="1.70241" ry="1.592" transform="rotate(43.9772 155.217 76.2901)" fill="white" fill-opacity="0.63"/>
<ellipse cx="85.5736" cy="148.465" rx="1.70241" ry="1.592" transform="rotate(43.9772 85.5736 148.465)" fill="white" fill-opacity="0.63"/>
<ellipse cx="147.479" cy="84.3094" rx="1.70241" ry="1.592" transform="rotate(43.9772 147.479 84.3094)" fill="white" fill-opacity="0.63"/>
<ellipse cx="77.8363" cy="156.484" rx="1.70241" ry="1.592" transform="rotate(43.9772 77.8363 156.484)" fill="white" fill-opacity="0.63"/>
<ellipse cx="139.741" cy="92.3288" rx="1.70241" ry="1.592" transform="rotate(43.9772 139.741 92.3288)" fill="white" fill-opacity="0.63"/>
<ellipse cx="70.098" cy="164.504" rx="1.70241" ry="1.592" transform="rotate(43.9772 70.098 164.504)" fill="white" fill-opacity="0.63"/>
<ellipse cx="132.002" cy="100.348" rx="1.70241" ry="1.592" transform="rotate(43.9772 132.002 100.348)" fill="white" fill-opacity="0.63"/>
<ellipse cx="62.3597" cy="172.523" rx="1.70241" ry="1.592" transform="rotate(43.9772 62.3597 172.523)" fill="white" fill-opacity="0.63"/>
<ellipse cx="124.264" cy="108.368" rx="1.70241" ry="1.592" transform="rotate(43.9772 124.264 108.368)" fill="white" fill-opacity="0.63"/>
<ellipse cx="116.527" cy="116.387" rx="1.70241" ry="1.592" transform="rotate(43.9772 116.527 116.387)" fill="white" fill-opacity="0.63"/>
<ellipse cx="108.789" cy="124.407" rx="1.70241" ry="1.592" transform="rotate(43.9772 108.789 124.407)" fill="white" fill-opacity="0.63"/>
<ellipse cx="179.269" cy="68.5262" rx="1.70241" ry="1.592" transform="rotate(43.9772 179.269 68.5262)" fill="white" fill-opacity="0.63"/>
<ellipse cx="109.626" cy="140.701" rx="1.70241" ry="1.592" transform="rotate(43.9772 109.626 140.701)" fill="white" fill-opacity="0.63"/>
<ellipse cx="171.532" cy="76.5453" rx="1.70241" ry="1.592" transform="rotate(43.9772 171.532 76.5453)" fill="white" fill-opacity="0.63"/>
<ellipse cx="101.888" cy="148.72" rx="1.70241" ry="1.592" transform="rotate(43.9772 101.888 148.72)" fill="white" fill-opacity="0.63"/>
<ellipse cx="163.793" cy="84.5648" rx="1.70241" ry="1.592" transform="rotate(43.9772 163.793 84.5648)" fill="white" fill-opacity="0.63"/>
<ellipse cx="94.1499" cy="156.74" rx="1.70241" ry="1.592" transform="rotate(43.9772 94.1499 156.74)" fill="white" fill-opacity="0.63"/>
<ellipse cx="156.055" cy="92.5843" rx="1.70241" ry="1.592" transform="rotate(43.9772 156.055 92.5843)" fill="white" fill-opacity="0.63"/>
<ellipse cx="86.4125" cy="164.759" rx="1.70241" ry="1.592" transform="rotate(43.9772 86.4125 164.759)" fill="white" fill-opacity="0.63"/>
<ellipse cx="148.317" cy="100.604" rx="1.70241" ry="1.592" transform="rotate(43.9772 148.317 100.604)" fill="white" fill-opacity="0.63"/>
<ellipse cx="78.6743" cy="172.778" rx="1.70241" ry="1.592" transform="rotate(43.9772 78.6743 172.778)" fill="white" fill-opacity="0.63"/>
<ellipse cx="140.579" cy="108.623" rx="1.70241" ry="1.592" transform="rotate(43.9772 140.579 108.623)" fill="white" fill-opacity="0.63"/>
<ellipse cx="70.936" cy="180.798" rx="1.70241" ry="1.592" transform="rotate(43.9772 70.936 180.798)" fill="white" fill-opacity="0.63"/>
<ellipse cx="132.84" cy="116.643" rx="1.70241" ry="1.592" transform="rotate(43.9772 132.84 116.643)" fill="white" fill-opacity="0.63"/>
<ellipse cx="125.103" cy="124.662" rx="1.70241" ry="1.592" transform="rotate(43.9772 125.103 124.662)" fill="white" fill-opacity="0.63"/>
<ellipse cx="117.365" cy="132.681" rx="1.70241" ry="1.592" transform="rotate(43.9772 117.365 132.681)" fill="white" fill-opacity="0.63"/>
<ellipse cx="187.844" cy="76.801" rx="1.70241" ry="1.592" transform="rotate(43.9772 187.844 76.801)" fill="white" fill-opacity="0.63"/>
<ellipse cx="118.202" cy="148.975" rx="1.70241" ry="1.592" transform="rotate(43.9772 118.202 148.975)" fill="white" fill-opacity="0.63"/>
<ellipse cx="180.106" cy="84.82" rx="1.70241" ry="1.592" transform="rotate(43.9772 180.106 84.82)" fill="white" fill-opacity="0.63"/>
<ellipse cx="110.464" cy="156.995" rx="1.70241" ry="1.592" transform="rotate(43.9772 110.464 156.995)" fill="white" fill-opacity="0.63"/>
<ellipse cx="172.368" cy="92.8396" rx="1.70241" ry="1.592" transform="rotate(43.9772 172.368 92.8396)" fill="white" fill-opacity="0.63"/>
<ellipse cx="102.725" cy="165.014" rx="1.70241" ry="1.592" transform="rotate(43.9772 102.725 165.014)" fill="white" fill-opacity="0.63"/>
<ellipse cx="164.63" cy="100.859" rx="1.70241" ry="1.592" transform="rotate(43.9772 164.63 100.859)" fill="white" fill-opacity="0.63"/>
<ellipse cx="94.9879" cy="173.034" rx="1.70241" ry="1.592" transform="rotate(43.9772 94.9879 173.034)" fill="white" fill-opacity="0.63"/>
<ellipse cx="156.892" cy="108.878" rx="1.70241" ry="1.592" transform="rotate(43.9772 156.892 108.878)" fill="white" fill-opacity="0.63"/>
<ellipse cx="87.2496" cy="181.053" rx="1.70241" ry="1.592" transform="rotate(43.9772 87.2496 181.053)" fill="white" fill-opacity="0.63"/>
<ellipse cx="149.154" cy="116.898" rx="1.70241" ry="1.592" transform="rotate(43.9772 149.154 116.898)" fill="white" fill-opacity="0.63"/>
<ellipse cx="79.5114" cy="189.072" rx="1.70241" ry="1.592" transform="rotate(43.9772 79.5114 189.072)" fill="white" fill-opacity="0.63"/>
<ellipse cx="141.416" cy="124.917" rx="1.70241" ry="1.592" transform="rotate(43.9772 141.416 124.917)" fill="white" fill-opacity="0.63"/>
<ellipse cx="133.678" cy="132.936" rx="1.70241" ry="1.592" transform="rotate(43.9772 133.678 132.936)" fill="white" fill-opacity="0.63"/>
<ellipse cx="125.94" cy="140.956" rx="1.70241" ry="1.592" transform="rotate(43.9772 125.94 140.956)" fill="white" fill-opacity="0.63"/>
<ellipse cx="196.42" cy="85.0757" rx="1.70241" ry="1.592" transform="rotate(43.9772 196.42 85.0757)" fill="white" fill-opacity="0.63"/>
<ellipse cx="126.777" cy="157.25" rx="1.70241" ry="1.592" transform="rotate(43.9772 126.777 157.25)" fill="white" fill-opacity="0.63"/>
<ellipse cx="188.681" cy="93.0948" rx="1.70241" ry="1.592" transform="rotate(43.9772 188.681 93.0948)" fill="white" fill-opacity="0.63"/>
<ellipse cx="119.039" cy="165.27" rx="1.70241" ry="1.592" transform="rotate(43.9772 119.039 165.27)" fill="white" fill-opacity="0.63"/>
<ellipse cx="180.943" cy="101.114" rx="1.70241" ry="1.592" transform="rotate(43.9772 180.943 101.114)" fill="white" fill-opacity="0.63"/>
<ellipse cx="111.301" cy="173.289" rx="1.70241" ry="1.592" transform="rotate(43.9772 111.301 173.289)" fill="white" fill-opacity="0.63"/>
<ellipse cx="173.205" cy="109.134" rx="1.70241" ry="1.592" transform="rotate(43.9772 173.205 109.134)" fill="white" fill-opacity="0.63"/>
<ellipse cx="103.563" cy="181.308" rx="1.70241" ry="1.592" transform="rotate(43.9772 103.563 181.308)" fill="white" fill-opacity="0.63"/>
<ellipse cx="165.468" cy="117.153" rx="1.70241" ry="1.592" transform="rotate(43.9772 165.468 117.153)" fill="white" fill-opacity="0.63"/>
<ellipse cx="95.825" cy="189.328" rx="1.70241" ry="1.592" transform="rotate(43.9772 95.825 189.328)" fill="white" fill-opacity="0.63"/>
<ellipse cx="157.729" cy="125.172" rx="1.70241" ry="1.592" transform="rotate(43.9772 157.729 125.172)" fill="white" fill-opacity="0.63"/>
<ellipse cx="88.0867" cy="197.347" rx="1.70241" ry="1.592" transform="rotate(43.9772 88.0867 197.347)" fill="white" fill-opacity="0.63"/>
<ellipse cx="149.991" cy="133.192" rx="1.70241" ry="1.592" transform="rotate(43.9772 149.991 133.192)" fill="white" fill-opacity="0.63"/>
<ellipse cx="142.254" cy="141.211" rx="1.70241" ry="1.592" transform="rotate(43.9772 142.254 141.211)" fill="white" fill-opacity="0.63"/>
<ellipse cx="134.515" cy="149.231" rx="1.70241" ry="1.592" transform="rotate(43.9772 134.515 149.231)" fill="white" fill-opacity="0.63"/>
</svg>
