<svg width="46" height="55" viewBox="0 0 46 55" fill="none" xmlns="http://www.w3.org/2000/svg">
<path d="M43.8 46.8C43.8 36.7 42.5 28.3 29 26.4C27.5 28.4 25.4 29.3 23 29.3C20.6 29.3 18.5 28.4 17 26.4C3.59995 28.2 2.19995 36.6 2.19995 46.8" fill="white"/>
<path d="M43.8 46.8C43.8 36.7 42.5 28.3 29 26.4C27.5 28.4 25.4 29.3 23 29.3C20.6 29.3 18.5 28.4 17 26.4C3.59995 28.2 2.19995 36.6 2.19995 46.8" stroke="#273947" stroke-width="2.592" stroke-miterlimit="10" stroke-linecap="round" stroke-linejoin="round"/>
<path d="M31.3 12.6001C31.3 18.4001 27.2 23.4 23.1 23.4C19 23.4 15.2 18.3001 14.9 12.6001C14.6 6.80006 18 2.20005 23.1 2.20005C28.2 2.10005 31.3 6.80006 31.3 12.6001Z" fill="white"/>
<path d="M31.3 12.6001C31.3 18.4001 27.2 23.4 23.1 23.4C19 23.4 15.2 18.3001 14.9 12.6001C14.6 6.80006 18 2.20005 23.1 2.20005C28.2 2.10005 31.3 6.80006 31.3 12.6001Z" stroke="#273947" stroke-width="2.592" stroke-miterlimit="10" stroke-linecap="round" stroke-linejoin="round"/>
<path d="M10.1999 37C8.79992 40.7 8.79993 46.3 8.79993 50.1C12.4999 51.6 17.5999 52.9 23.0999 52.9C28.6999 52.9 33.6999 51.6 37.3999 50.1C37.3999 46.6 37.3999 41.6 36.3999 38.1" fill="white"/>
<path d="M10.1999 37C8.79992 40.7 8.79993 46.3 8.79993 50.1C12.4999 51.6 17.5999 52.9 23.0999 52.9C28.6999 52.9 33.6999 51.6 37.3999 50.1C37.3999 46.6 37.3999 41.6 36.3999 38.1" stroke="#273947" stroke-width="2.592" stroke-miterlimit="10" stroke-linecap="round" stroke-linejoin="round"/>
<path d="M2.29993 46.8C2.29993 47.5 5.29992 49.2 8.69992 49.2L2.29993 46.8Z" fill="white"/>
<path d="M2.29993 46.8C2.29993 47.5 5.29992 49.2 8.69992 49.2" stroke="#273947" stroke-width="2.592" stroke-miterlimit="10" stroke-linecap="round" stroke-linejoin="round"/>
<path d="M43.7999 46.8C43.7999 47.5 40.7999 49.2 37.3999 49.2L43.7999 46.8Z" fill="white"/>
<path d="M43.7999 46.8C43.7999 47.5 40.7999 49.2 37.3999 49.2" stroke="#273947" stroke-width="2.592" stroke-miterlimit="10" stroke-linecap="round" stroke-linejoin="round"/>
<path d="M30.2999 23.9L26.1999 32.8C24.4999 36.5 21.6999 36.5 19.9999 32.8L15.8999 23.9" stroke="#273947" stroke-width="1.5552" stroke-miterlimit="10" stroke-linecap="round" stroke-linejoin="round"/>
<path d="M23.1 35.5V42.3" stroke="#273947" stroke-width="1.5552" stroke-miterlimit="10" stroke-linecap="round" stroke-linejoin="round"/>
<path d="M23.0999 48.9C24.9225 48.9 26.3999 47.4226 26.3999 45.6001C26.3999 43.7775 24.9225 42.3 23.0999 42.3C21.2774 42.3 19.7999 43.7775 19.7999 45.6001C19.7999 47.4226 21.2774 48.9 23.0999 48.9Z" fill="white" stroke="#273947" stroke-width="2.0736" stroke-miterlimit="10" stroke-linecap="round" stroke-linejoin="round"/>
</svg>
