<svg width="43" height="59" viewBox="0 0 43 59" fill="none" xmlns="http://www.w3.org/2000/svg">
<path d="M39.2 10.8999H3.40002C2.30002 10.8999 1.40002 11.7999 1.40002 12.8999V55.6999C1.40002 56.7999 2.30002 57.6999 3.40002 57.6999H32.5H39.2C40.3 57.6999 41.2 56.7999 41.2 55.6999V48.9999V12.8999C41.2 11.7999 40.3 10.8999 39.2 10.8999Z" fill="white" stroke="#273947" stroke-width="2.592" stroke-miterlimit="10" stroke-linecap="round" stroke-linejoin="round"/>
<path d="M25.9 27.2999C23.5 27.2999 21.5 29.1999 21.3 31.4999C21.1 28.9999 18.9 26.9999 16.2 27.2999C13.6 27.4999 11.8 29.9999 12 32.5999C12.2 34.8999 13.4 36.8999 15.9 39.1999C17.9 41.0999 21 43.4999 21.2 43.6999C21.4 43.4999 24.9 40.7999 26.6 39.1999C28.9 37.0999 30.2 35.0999 30.5 32.9999C30.9 30.0999 28.9 27.2999 25.9 27.2999Z" fill="white" stroke="#273947" stroke-width="2.3328" stroke-miterlimit="10" stroke-linecap="round" stroke-linejoin="round"/>
<path d="M25.1 7.59998V5.79996C25.1 3.79996 23.5 2.09998 21.4 2.09998C19.4 2.09998 17.7 3.69996 17.7 5.79996V7.59998H10V14.9H32.8V7.59998H25.1Z" fill="white" stroke="#273947" stroke-width="2.592" stroke-miterlimit="10" stroke-linecap="round" stroke-linejoin="round"/>
</svg>
