<svg width="54" height="72" viewBox="0 0 54 72" fill="none" xmlns="http://www.w3.org/2000/svg">
<path d="M47.25 9H36C36 4.03594 31.9641 0 27 0C22.0359 0 18 4.03594 18 9H6.75C3.02344 9 0 12.0234 0 15.75V65.25C0 68.9766 3.02344 72 6.75 72H47.25C50.9766 72 54 68.9766 54 65.25V15.75C54 12.0234 50.9766 9 47.25 9ZM13.5 59.625C11.6297 59.625 10.125 58.1203 10.125 56.25C10.125 54.3797 11.6297 52.875 13.5 52.875C15.3703 52.875 16.875 54.3797 16.875 56.25C16.875 58.1203 15.3703 59.625 13.5 59.625ZM13.5 46.125C11.6297 46.125 10.125 44.6203 10.125 42.75C10.125 40.8797 11.6297 39.375 13.5 39.375C15.3703 39.375 16.875 40.8797 16.875 42.75C16.875 44.6203 15.3703 46.125 13.5 46.125ZM13.5 32.625C11.6297 32.625 10.125 31.1203 10.125 29.25C10.125 27.3797 11.6297 25.875 13.5 25.875C15.3703 25.875 16.875 27.3797 16.875 29.25C16.875 31.1203 15.3703 32.625 13.5 32.625ZM27 5.625C28.8703 5.625 30.375 7.12969 30.375 9C30.375 10.8703 28.8703 12.375 27 12.375C25.1297 12.375 23.625 10.8703 23.625 9C23.625 7.12969 25.1297 5.625 27 5.625ZM45 57.375C45 57.9938 44.4938 58.5 43.875 58.5H23.625C23.0063 58.5 22.5 57.9938 22.5 57.375V55.125C22.5 54.5062 23.0063 54 23.625 54H43.875C44.4938 54 45 54.5062 45 55.125V57.375ZM45 43.875C45 44.4938 44.4938 45 43.875 45H23.625C23.0063 45 22.5 44.4938 22.5 43.875V41.625C22.5 41.0062 23.0063 40.5 23.625 40.5H43.875C44.4938 40.5 45 41.0062 45 41.625V43.875ZM45 30.375C45 30.9937 44.4938 31.5 43.875 31.5H23.625C23.0063 31.5 22.5 30.9937 22.5 30.375V28.125C22.5 27.5063 23.0063 27 23.625 27H43.875C44.4938 27 45 27.5063 45 28.125V30.375Z" fill="url(#paint0_linear)"/>
<defs>
<linearGradient id="paint0_linear" x1="0" y1="36" x2="54" y2="36" gradientUnits="userSpaceOnUse">
<stop stop-color="#11CDD7"/>
<stop offset="1" stop-color="#3DB5E7"/>
</linearGradient>
</defs>
</svg>
