<svg width="24" height="24" viewBox="0 0 24 24" fill="none" xmlns="http://www.w3.org/2000/svg">
<path d="M14.5875 15.995L16.0015 14.5815L22.011 20.591L20.597 22.0045L14.5875 15.995Z" fill="#EBEBEB"/>
<path d="M10 18C14.4183 18 18 14.4183 18 10C18 5.58172 14.4183 2 10 2C5.58172 2 2 5.58172 2 10C2 14.4183 5.58172 18 10 18Z" fill="white"/>
<path d="M16.225 17.67L17.6385 16.256L21.9865 20.604L20.5725 22.018L16.225 17.67Z" fill="white"/>
<path d="M10 16.5C13.5899 16.5 16.5 13.5899 16.5 10C16.5 6.41015 13.5899 3.5 10 3.5C6.41015 3.5 3.5 6.41015 3.5 10C3.5 13.5899 6.41015 16.5 10 16.5Z" fill="#3CB6E6"/>
<path d="M13.45 7.1C12.6 6.1 11.35 5.5 9.99999 5.5C8.64999 5.5 7.39999 6.1 6.54999 7.1C6.34999 7.3 6.39999 7.65 6.59999 7.8C6.79999 8 7.14999 7.95 7.29999 7.75C7.99999 6.95 8.94999 6.5 9.99999 6.5C11.05 6.5 12 6.95 12.7 7.75C12.8 7.85 12.95 7.95 13.1 7.95C13.2 7.95 13.35 7.9 13.4 7.85C13.6 7.65 13.6 7.3 13.45 7.1Z" fill="#FCFCFC"/>
</svg>
