<svg width="123" height="123" viewBox="0 0 123 123" fill="none" xmlns="http://www.w3.org/2000/svg">
<circle cx="61.5" cy="61.5" r="61.5" fill="url(#paint0_linear)"/>
<path d="M80.2422 48.2402L75.042 43.0449C74.6752 42.6765 74.2392 42.3842 73.759 42.1847C73.2789 41.9853 72.7641 41.8827 72.2441 41.8828C71.1846 41.8828 70.1885 42.2979 69.4414 43.0449L63.8457 48.6406C63.4773 49.0075 63.1849 49.4435 62.9855 49.9236C62.7861 50.4037 62.6835 50.9186 62.6836 51.4385C62.6836 52.498 63.0986 53.4941 63.8457 54.2412L67.9375 58.333C66.9797 60.4441 65.6481 62.3647 64.0068 64.002C62.3697 65.6472 60.4494 66.9837 58.3379 67.9473L54.2461 63.8555C53.8793 63.487 53.4433 63.1947 52.9631 62.9953C52.483 62.7958 51.9682 62.6932 51.4482 62.6934C50.3887 62.6934 49.3926 63.1084 48.6455 63.8555L43.0449 69.4463C42.676 69.8138 42.3834 70.2506 42.184 70.7316C41.9846 71.2126 41.8822 71.7283 41.8828 72.249C41.8828 73.3086 42.2979 74.3047 43.0449 75.0518L48.2354 80.2422C49.4268 81.4385 51.0723 82.1172 52.7617 82.1172C53.1182 82.1172 53.46 82.0879 53.7969 82.0293C60.3789 80.9453 66.9072 77.4443 72.1758 72.1807C77.4395 66.9219 80.9356 60.3984 82.0342 53.7969C82.3662 51.7803 81.6973 49.7051 80.2422 48.2402Z" fill="white"/>
<defs>
<linearGradient id="paint0_linear" x1="0" y1="61.5" x2="123" y2="61.5" gradientUnits="userSpaceOnUse">
<stop stop-color="#11CDD7"/>
<stop offset="1" stop-color="#3DB5E7"/>
</linearGradient>
</defs>
</svg>
