<svg width="94" height="96" viewBox="0 0 94 96" fill="none" xmlns="http://www.w3.org/2000/svg">
<path d="M34.4269 51.652C32.985 51.881 31.5064 52 30 52C14.536 52 2 39.464 2 24" stroke="#273947" stroke-width="4" stroke-miterlimit="10" stroke-linecap="round"/>
<path d="M42.5246 49.0496C41.81 49.4076 41.078 49.7359 40.3301 50.0329" stroke="#273947" stroke-width="4" stroke-miterlimit="10" stroke-linecap="round"/>
<path d="M58 24C58 31.8589 54.7623 38.9616 49.5479 44.0469" stroke="#273947" stroke-width="4" stroke-miterlimit="10" stroke-linecap="round"/>
<path d="M11 16C9.35001 16 8 14.65 8 13V5C8 3.35 9.35001 2 11 2C12.65 2 14 3.35 14 5V13C14 14.65 12.65 16 11 16Z" stroke="#273947" stroke-width="4" stroke-miterlimit="10" stroke-linecap="round"/>
<path d="M49 16C47.35 16 46 14.65 46 13V5C46 3.35 47.35 2 49 2C50.65 2 52 3.35 52 5V13C52 14.65 50.65 16 49 16Z" stroke="#273947" stroke-width="4" stroke-miterlimit="10" stroke-linecap="round"/>
<path d="M81 50C87.0751 50 92 45.0751 92 39C92 32.9249 87.0751 28 81 28C74.9249 28 70 32.9249 70 39C70 45.0751 74.9249 50 81 50Z" stroke="#273947" stroke-width="4" stroke-miterlimit="10" stroke-linecap="round"/>
<path d="M81 41C82.1046 41 83 40.1046 83 39C83 37.8954 82.1046 37 81 37C79.8954 37 79 37.8954 79 39C79 40.1046 79.8954 41 81 41Z" stroke="#273947" stroke-width="4" stroke-miterlimit="10" stroke-linecap="round"/>
<path d="M30 62V86C30 90.4183 33.5817 94 38 94C44 93.5 47.5 79 54 79C60.5 79 64.0011 89.7312 72.5 93C79 95.5 82 90.4183 82 86V50" stroke="#273947" stroke-width="4" stroke-miterlimit="10" stroke-linecap="round"/>
<path d="M52 9H54C56.2091 9 58 10.7909 58 13V34C58 49.464 45.464 62 30 62C14.536 62 2 49.464 2 34V13C2 10.7909 3.79089 9 6 9H8" stroke="#273947" stroke-width="4" stroke-miterlimit="10" stroke-linecap="round"/>
</svg>
