<svg width="50" height="55" viewBox="0 0 50 55" fill="none" xmlns="http://www.w3.org/2000/svg">
<path d="M25 27.5C32.8906 27.5 39.2857 21.3447 39.2857 13.75C39.2857 6.15527 32.8906 0 25 0C17.1094 0 10.7143 6.15527 10.7143 13.75C10.7143 21.3447 17.1094 27.5 25 27.5ZM11.6071 45.5469C11.6071 46.9756 12.8013 48.125 14.2857 48.125C15.7701 48.125 16.9643 46.9756 16.9643 45.5469C16.9643 44.1182 15.7701 42.9688 14.2857 42.9688C12.8013 42.9688 11.6071 44.1182 11.6071 45.5469ZM35.7143 31.002V36.2656C39.7879 37.0605 42.8571 40.541 42.8571 44.6875V49.167C42.8571 49.9834 42.2545 50.6924 41.4174 50.8535L37.8237 51.541C37.3438 51.6377 36.875 51.3369 36.7746 50.8643L36.4286 49.1777C36.3281 48.7158 36.6406 48.2539 37.1317 48.168L39.2857 47.749V44.6875C39.2857 37.9414 28.5714 37.6943 28.5714 44.8916V47.7598L30.7254 48.1787C31.2054 48.2754 31.5179 48.7266 31.4286 49.1885L31.0826 50.875C30.9821 51.3369 30.5134 51.6377 30.0335 51.5518L26.5513 51.1006C25.6696 50.9824 25.0112 50.2627 25.0112 49.3926V44.6875C25.0112 40.541 28.0804 37.0713 32.154 36.2656V31.4102C31.9085 31.4854 31.6629 31.5283 31.4174 31.6143C29.4085 32.291 27.2545 32.667 25.0112 32.667C22.7679 32.667 20.6138 32.291 18.6049 31.6143C17.779 31.335 16.942 31.1631 16.0826 31.0557V39.8213C18.6607 40.5625 20.5469 42.8398 20.5469 45.5576C20.5469 48.877 17.7455 51.5732 14.2969 51.5732C10.8482 51.5732 8.04688 48.877 8.04688 45.5576C8.04688 42.8398 9.93304 40.5625 12.5112 39.8213V31.1846C5.41295 32.334 0 38.2207 0 45.375V50.1875C0 52.8408 2.2433 55 5 55H45C47.7567 55 50 52.8408 50 50.1875V45.375C50 37.6406 43.6607 31.3779 35.7143 31.002Z" fill="#728FA3"/>
</svg>
