<svg width="96" height="86" viewBox="0 0 96 86" fill="none" xmlns="http://www.w3.org/2000/svg">
<path d="M43 54V46C43 45.4077 43.4077 45 44 45H52C52.5923 45 53 45.4077 53 46V54H61C61.5923 54 62 54.4077 62 55V63C62 63.5923 61.5923 64 61 64H53V72C53 72.5923 52.5923 73 52 73H44C43.4077 73 43 72.5923 43 72V64H35C34.4077 64 34 63.5923 34 63V55C34 54.4077 34.4077 54 35 54H43Z" stroke="#454545" stroke-width="4" stroke-miterlimit="10" stroke-linecap="round"/>
<path d="M76.8947 42H71.1053C69.9474 42 69 41.1052 69 40.0115V27.9885C69 26.8948 69.9474 26 71.1053 26H76.8947C78.0526 26 79 26.8948 79 27.9885V40.0115C79 41.1052 78.0526 42 76.8947 42Z" stroke="#454545" stroke-width="4" stroke-miterlimit="10" stroke-linecap="round"/>
<path d="M25 42H19C17.9 42 17 41.1052 17 40.0115V27.9885C17 26.8948 17.9 26 19 26H25C26.1 26 27 26.8948 27 27.9885V40.0115C27 41.1052 26.1 42 25 42Z" stroke="#454545" stroke-width="4" stroke-miterlimit="10" stroke-linecap="round"/>
<path d="M32 16V10C32 5.60001 35.6 2 40 2H56C60.4 2 64 5.60001 64 10V16" stroke="#454545" stroke-width="4" stroke-miterlimit="10" stroke-linecap="round"/>
<path d="M2 34H17" stroke="#454545" stroke-width="4" stroke-miterlimit="10" stroke-linecap="round"/>
<path d="M79 34H94" stroke="#454545" stroke-width="4" stroke-miterlimit="10" stroke-linecap="round"/>
<path d="M27 34H32" stroke="#454545" stroke-width="4" stroke-miterlimit="10" stroke-linecap="round"/>
<path d="M38 34H40" stroke="#454545" stroke-width="4" stroke-miterlimit="10" stroke-linecap="round"/>
<path d="M49 34H69" stroke="#454545" stroke-width="4" stroke-miterlimit="10" stroke-linecap="round"/>
<path d="M32.2622 8H63.7452" stroke="#454545" stroke-width="4" stroke-miterlimit="10" stroke-linecap="round"/>
<path d="M86 84H10C5.60001 84 2 80.4 2 76V24C2 19.6 5.60001 16 10 16H86C90.4 16 94 19.6 94 24V76C94 80.4 90.4 84 86 84Z" stroke="#454545" stroke-width="4" stroke-miterlimit="10" stroke-linecap="round"/>
</svg>
