<svg width="123" height="123" viewBox="0 0 123 123" fill="none" xmlns="http://www.w3.org/2000/svg">
<circle cx="61.5" cy="61.5" r="61.5" fill="url(#paint0_linear)"/>
<path d="M76.5832 55.7503C76.5832 53.8352 76.206 51.9389 75.4731 50.1695C74.7402 48.4002 73.666 46.7925 72.3118 45.4384C70.9576 44.0842 69.35 43.01 67.5806 42.2771C65.8113 41.5442 63.9149 41.167 61.9998 41.167C60.0847 41.167 58.1884 41.5442 56.419 42.2771C54.6497 43.01 53.0421 44.0842 51.6879 45.4384C50.3337 46.7925 49.2595 48.4002 48.5266 50.1695C47.7937 51.9389 47.4165 53.8352 47.4165 55.7503C47.4165 58.6399 48.2707 61.3274 49.7186 63.5941H49.7019C54.6186 71.292 61.9998 82.8337 61.9998 82.8337L74.2978 63.5941H74.2832C75.784 61.2532 76.5822 58.531 76.5832 55.7503ZM61.9998 62.0003C60.3422 62.0003 58.7525 61.3418 57.5804 60.1697C56.4083 58.9976 55.7498 57.4079 55.7498 55.7503C55.7498 54.0927 56.4083 52.503 57.5804 51.3309C58.7525 50.1588 60.3422 49.5003 61.9998 49.5003C63.6574 49.5003 65.2472 50.1588 66.4193 51.3309C67.5914 52.503 68.2498 54.0927 68.2498 55.7503C68.2498 57.4079 67.5914 58.9976 66.4193 60.1697C65.2472 61.3418 63.6574 62.0003 61.9998 62.0003Z" fill="white"/>
<defs>
<linearGradient id="paint0_linear" x1="0" y1="61.5" x2="123" y2="61.5" gradientUnits="userSpaceOnUse">
<stop stop-color="#11CDD7"/>
<stop offset="1" stop-color="#3DB5E7"/>
</linearGradient>
</defs>
</svg>
