<svg width="506" height="374" viewBox="0 0 506 374" fill="none" xmlns="http://www.w3.org/2000/svg">
<g clip-path="url(#clip0)">
<path opacity="0.1" d="M33.1176 146.589H77.0954V206.546H36.3332C36.2292 207.166 36.1252 207.781 36.0082 208.401H77.0954V256.747C77.0261 256.747 76.9567 256.695 76.8917 256.669C75.7361 256.209 74.5805 255.722 73.4248 255.208C73.1778 255.095 72.9351 254.978 72.6838 254.87C71.5281 254.324 70.3725 253.746 69.2169 253.136C68.8138 252.924 68.4108 252.703 68.0164 252.477C61.6008 248.897 55.7698 244.357 50.7252 239.015C50.5735 238.872 50.4349 238.716 50.2919 238.581C49.5898 237.818 48.9008 237.047 48.2334 236.258C47.982 235.968 47.7393 235.673 47.4923 235.391C46.7036 234.429 45.9409 233.432 45.2042 232.431C45.0915 232.279 44.9875 232.132 44.8791 231.997C41.8612 227.821 39.3585 223.294 37.4253 218.518C37.3646 218.375 37.3083 218.218 37.2519 218.084C36.6539 216.567 36.1122 215.028 35.6442 213.459C35.4448 212.805 35.2498 212.159 35.0851 211.479C35.0244 211.283 34.9768 211.084 34.9248 210.889C32.4893 201.288 32.2076 191.311 32.2076 181.381C32.2076 180.225 32.2076 179.069 32.2076 177.913C32.2422 173.859 32.2899 169.809 32.3506 165.764C32.3737 164.724 32.3954 163.679 32.4156 162.63C32.4763 159.975 32.5629 157.313 32.6756 154.646C32.7016 153.909 32.7363 153.168 32.7753 152.436C32.7926 152.011 32.8143 151.586 32.8403 151.161C32.9183 149.627 33.0108 148.103 33.1176 146.589Z" fill="#728FA3"/>
<path opacity="0.1" d="M77.0955 79.8305H52.9701C56.8936 73.6952 61.1784 67.7987 65.802 62.1723C69.3903 57.7686 73.1692 53.4775 77.0955 49.3425V79.8305Z" fill="#728FA3"/>
<path opacity="0.1" d="M77.0954 81.677V144.733H33.2563C33.2563 144.551 33.2823 144.365 33.2997 144.183C33.3387 143.685 33.3777 143.19 33.421 142.692C33.4644 142.111 33.5207 141.53 33.577 140.958C33.6334 140.386 33.6897 139.693 33.759 139.064C33.8284 138.436 33.8847 137.798 33.9541 137.17C34.0234 136.541 34.0927 135.913 34.1707 135.289C34.2488 134.665 34.3181 134.032 34.4048 133.408C34.4698 132.892 34.5348 132.372 34.6084 131.852C34.7081 131.119 34.8121 130.387 34.9205 129.659C34.9205 129.546 34.9551 129.437 34.9725 129.329C35.7645 123.999 36.8408 118.715 38.1967 113.5C39.6206 108.03 41.4382 102.67 43.6354 97.4628C45.9701 92.0064 48.7049 86.7301 51.8173 81.677H77.0954Z" fill="#728FA3"/>
<path opacity="0.1" d="M87.6002 146.588V206.546H181.536V146.588H87.6002ZM87.6002 208.401V259.893C88.1376 260.002 88.6663 260.11 89.1993 260.201C89.9144 260.34 90.6338 260.465 91.3662 260.574L91.7995 260.634C92.0855 260.682 92.3759 260.721 92.6662 260.756C93.39 260.86 94.1137 260.938 94.8331 261.007C95.1711 261.042 95.5221 261.068 95.8645 261.098L96.7009 261.159C97.1559 261.194 97.6066 261.22 98.0573 261.237C98.3346 261.237 98.612 261.259 98.8937 261.267C99.1754 261.276 99.327 261.267 99.5524 261.267H100.371C100.744 261.267 101.117 261.267 101.485 261.267H101.962C102.335 261.267 102.707 261.267 103.076 261.233H103.097C103.357 261.233 103.613 261.233 103.873 261.202C103.947 261.206 104.02 261.206 104.094 261.202C104.311 261.202 104.527 261.202 104.735 261.176C104.784 261.172 104.834 261.172 104.883 261.176C105.364 261.146 105.849 261.107 106.339 261.063C106.829 261.02 107.292 260.968 107.782 260.916L108.766 260.795C112.786 260.232 116.761 259.386 120.662 258.263C129.429 255.819 137.996 252.399 146.759 249.898C158.078 246.669 170.594 245.078 181.532 249.01V208.401H87.6002ZM181.536 79.8303V0.008527C171.253 -0.104631 160.997 1.09705 151.019 3.58438C127.231 9.56148 105.871 22.5256 87.6002 39.0829V79.826H92.3282V81.6768H87.6002V144.733H181.536V81.6768H111.669V79.8217L181.536 79.8303ZM302.219 52.8662C296.334 52.6582 290.484 50.7987 285.188 47.9164C275.073 42.416 266.987 33.912 257.956 26.7429C239.191 11.8024 215.919 2.78253 192.045 0.545989V79.8303H326.132L326.466 79.4792L302.219 52.8662ZM314.436 50.699L327.389 64.9201V46.9585C323.029 47.5089 319.233 48.7876 314.436 50.6817V50.699ZM327.389 272.68V208.401H299.767C299.697 208.128 299.619 207.85 299.533 207.573C299.615 207.85 299.688 208.128 299.762 208.401H192.045V254.883C193.068 255.641 194.078 256.443 195.079 257.249C196.159 258.133 197.233 259.028 198.299 259.932L199.373 260.821C199.889 261.254 200.413 261.688 200.934 262.099C201.977 262.94 203.027 263.772 204.084 264.596C204.613 265.012 205.144 265.421 205.679 265.823C214.143 272.293 223.072 278.132 232.391 283.294C234.48 284.46 236.591 285.583 238.714 286.68C240.127 287.408 241.55 288.121 242.983 288.821C245.132 289.87 247.299 290.881 249.483 291.855C269.62 300.895 290.913 307.098 312.754 310.285C317.602 310.998 322.472 311.562 327.363 311.975V272.671H327.796L327.389 272.68ZM192.045 81.6768V144.733H327.389V81.6768H192.045ZM192.045 146.58V206.546H327.389V146.588L192.045 146.58ZM337.894 46.8718V66.9399L354.422 48.7919C348.945 47.8875 343.435 47.2474 337.894 46.8718ZM337.894 146.588V206.546H469.528V146.588H337.894ZM469.064 277.434L469.528 208.401H337.894V312.673C346.373 313.025 354.864 312.923 363.332 312.365H363.48C367.524 312.105 371.55 311.735 375.557 311.255H375.649C397.033 308.766 417.942 303.18 437.719 294.672L469.064 277.434ZM494.923 156.436C494.423 155.28 493.911 154.124 493.385 152.969C492.405 150.801 491.374 148.695 490.308 146.593H480.037V206.546H506C505.978 189.564 501.679 172.226 494.923 156.436ZM480.037 208.401V267.782C487.348 260.773 493.532 252.75 497.979 243.579C503.331 232.53 505.779 220.576 505.983 208.396L480.037 208.401ZM480.037 129.117V144.72H489.346C486.524 139.356 483.417 134.148 480.037 129.117ZM390.764 58.6396C390.08 58.3752 389.391 58.1108 388.701 57.8594C381.436 55.1739 374.011 52.9417 366.47 51.1758L341.17 78.9418L340.676 79.4749L341.001 79.826H431.045C418.504 71.1946 404.982 64.0827 390.764 58.6396ZM433.689 81.6768H339.74L337.894 83.3629V144.733H354.08H469.528V114.999C459.089 102.373 447.04 91.1702 433.689 81.6768Z" fill="#728FA3"/>
<path opacity="0.1" d="M77.0954 113.487V144.733H33.2563C33.2563 144.551 33.2823 144.365 33.2997 144.183C33.3387 143.684 33.3777 143.19 33.421 142.692C33.4644 142.111 33.5207 141.53 33.577 140.958C33.6334 140.386 33.6897 139.692 33.759 139.064C33.8284 138.435 33.8847 137.798 33.9541 137.17C34.0234 136.541 34.0927 135.913 34.1707 135.289C34.2488 134.665 34.3181 134.032 34.4048 133.408C34.4698 132.892 34.5348 132.372 34.6084 131.852C34.7081 131.119 34.8121 130.387 34.9205 129.658C34.9205 129.546 34.9551 129.437 34.9725 129.329C35.7645 123.999 36.8408 118.715 38.1967 113.5L77.0954 113.487Z" fill="#728FA3"/>
<path opacity="0.1" d="M33.1176 146.589H77.0954V206.546H36.3332C36.2292 207.166 36.1252 207.781 36.0082 208.401H77.0954V256.747C77.0261 256.747 76.9567 256.695 76.8917 256.669C75.7361 256.209 74.5805 255.722 73.4248 255.208C73.1778 255.095 72.9351 254.978 72.6838 254.87C71.5281 254.324 70.3725 253.746 69.2169 253.136C68.8138 252.924 68.4108 252.703 68.0164 252.477C61.6008 248.897 55.7698 244.357 50.7252 239.015C50.5735 238.872 50.4349 238.716 50.2919 238.581C49.5898 237.818 48.9008 237.047 48.2334 236.258C47.982 235.968 47.7393 235.673 47.4923 235.391C46.7036 234.429 45.9409 233.432 45.2042 232.431C45.0915 232.279 44.9875 232.132 44.8791 231.997C41.8612 227.821 39.3585 223.294 37.4253 218.518C37.3646 218.375 37.3083 218.218 37.2519 218.084C36.6539 216.567 36.1122 215.028 35.6442 213.459C35.4448 212.805 35.2498 212.159 35.0851 211.479C35.0244 211.283 34.9768 211.084 34.9248 210.889C32.4893 201.288 32.2076 191.311 32.2076 181.381C32.2076 180.225 32.2076 179.069 32.2076 177.913C32.2422 173.859 32.2899 169.809 32.3506 165.764C32.3737 164.724 32.3954 163.679 32.4156 162.63C32.4763 159.975 32.5629 157.313 32.6756 154.646C32.7016 153.909 32.7363 153.168 32.7753 152.436C32.7926 152.011 32.8143 151.586 32.8403 151.161C32.9183 149.627 33.0108 148.103 33.1176 146.589Z" fill="#728FA3"/>
<path opacity="0.1" d="M120.666 90.7098V144.733H87.5959V90.7098H92.3109V72.4187H111.665V90.7098H120.666Z" fill="#728FA3"/>
<path opacity="0.1" d="M120.662 146.584H87.5959V206.542H120.662V146.584Z" fill="#728FA3"/>
<path opacity="0.1" d="M87.6002 208.401H120.666V258.246C116.765 259.369 112.79 260.214 108.77 260.773C108.441 260.821 108.116 260.86 107.786 260.894C107.301 260.951 106.82 261.003 106.339 261.046L104.887 261.163H104.74L104.098 261.198H103.877C103.617 261.198 103.362 261.228 103.102 261.233H103.08C102.707 261.233 102.339 261.259 101.966 261.267H101.49C101.121 261.267 100.753 261.267 100.376 261.267H99.5611H98.898C98.6163 261.267 98.339 261.267 98.0573 261.233C97.6124 261.215 97.1617 261.189 96.7052 261.155L95.8688 261.094C95.5221 261.068 95.1754 261.033 94.8331 260.998C94.105 260.935 93.3827 260.853 92.6662 260.751L91.7995 260.63L91.3662 260.569C90.6424 260.461 89.9231 260.34 89.1993 260.201C88.662 260.106 88.1333 259.997 87.6002 259.885V208.401Z" fill="#728FA3"/>
<path opacity="0.1" d="M327.385 84.3296H300.117V144.729H327.385V84.3296Z" fill="#728FA3"/>
<path opacity="0.1" d="M327.389 146.584V206.546H192.045V180.683H264.135V195.94H300.118V146.584H327.389Z" fill="#728FA3"/>
<path opacity="0.1" d="M327.818 272.693C327.675 272.693 327.532 272.693 327.385 272.667V312.001C322.499 311.6 317.631 311.038 312.78 310.315C290.932 307.13 269.63 300.93 249.483 291.894C243.668 289.27 237.97 286.411 232.391 283.316C223.075 278.152 214.148 272.312 205.683 265.845C203.551 264.215 201.451 262.549 199.382 260.847C197.948 259.659 196.526 258.446 195.079 257.271C194.082 256.461 193.072 255.659 192.045 254.896V208.401H299.762C299.684 208.124 299.615 207.851 299.537 207.573C299.619 207.851 299.697 208.124 299.766 208.401H327.389V272.663C327.532 272.667 327.675 272.68 327.818 272.693Z" fill="#728FA3"/>
<path opacity="0.1" d="M398.504 79.8306H380.736V74.3086H388.697V57.8596C389.388 58.1139 390.075 58.374 390.76 58.6398V74.3086H398.5L398.504 79.8306Z" fill="#728FA3"/>
<path opacity="0.1" d="M441.316 144.733H354.08C354.089 144.735 354.097 144.735 354.106 144.733H354.067H337.894V84.334H342.479V128.978H363.428V102.538H380.741V81.677H398.508V102.551H415.813V128.991H441.32L441.316 144.733Z" fill="#728FA3"/>
<path opacity="0.1" d="M337.894 146.589V206.546H441.32V146.589H337.894ZM469.381 277.118L469.528 229.657H441.32V208.418H337.894V312.673C346.373 313.026 354.864 312.923 363.332 312.365H363.48C367.524 312.105 371.55 311.735 375.557 311.256H375.648C397.033 308.766 417.942 303.18 437.719 294.672" fill="#728FA3"/>
<path opacity="0.1" d="M481.857 208.401H505.983C505.775 220.576 503.331 232.535 497.978 243.579C493.532 252.755 487.348 260.777 480.037 267.786V229.644H481.857V208.401Z" fill="#728FA3"/>
<path opacity="0.1" d="M506 206.546H481.857V156.436H494.923C501.679 172.226 505.978 189.564 506 206.546Z" fill="#728FA3"/>
<path opacity="0.1" d="M327.389 101.121H312.78V120.058H327.389V101.121Z" fill="#728FA3"/>
<path opacity="0.1" d="M327.389 140.373H312.78V144.733H327.389V140.373Z" fill="#728FA3"/>
<path opacity="0.1" d="M327.389 146.584H312.78V159.306H327.389V146.584Z" fill="#728FA3"/>
<path opacity="0.1" d="M327.389 179.625H312.78V198.562H327.389V179.625Z" fill="#728FA3"/>
<path opacity="0.1" d="M327.389 218.877H312.78V237.814H327.389V218.877Z" fill="#728FA3"/>
<path opacity="0.1" d="M327.389 272.662C327.532 272.662 327.675 272.662 327.822 272.693C327.679 272.693 327.536 272.693 327.389 272.667V277.066H312.78V258.129H327.389V272.662Z" fill="#728FA3"/>
<path opacity="0.1" d="M327.389 297.377V312.001C322.501 311.599 317.631 311.037 312.78 310.315V297.377H327.389Z" fill="#728FA3"/>
<path opacity="0.1" d="M254.653 205.155H192.045V206.546H254.653V205.155Z" fill="#728FA3"/>
<path opacity="0.1" d="M254.653 208.397H192.045V213.728H254.653V208.397Z" fill="#728FA3"/>
<path opacity="0.1" d="M254.653 231.204H192.045V239.778H254.653V231.204Z" fill="#728FA3"/>
<path opacity="0.1" d="M254.653 257.254V265.827H205.683C203.551 264.203 201.451 262.536 199.382 260.825C197.943 259.642 196.522 258.428 195.079 257.254H254.653Z" fill="#728FA3"/>
<path opacity="0.1" d="M254.653 283.299V291.894H249.483C243.668 289.27 237.97 286.411 232.391 283.316L254.653 283.299Z" fill="#728FA3"/>
<path opacity="0.1" d="M375.657 152.396H363.332V164.723H375.657V152.396Z" fill="#728FA3"/>
<path opacity="0.1" d="M108.8 94.9617H96.4755V107.289H108.8V94.9617Z" fill="#728FA3"/>
<path opacity="0.1" d="M108.8 123.595H96.4755V135.922H108.8V123.595Z" fill="#728FA3"/>
<path opacity="0.1" d="M108.8 152.228H96.4755V164.555H108.8V152.228Z" fill="#728FA3"/>
<path opacity="0.1" d="M108.8 180.856H96.4755V193.183H108.8V180.856Z" fill="#728FA3"/>
<path opacity="0.1" d="M108.8 209.489H96.4755V221.816H108.8V209.489Z" fill="#728FA3"/>
<path opacity="0.1" d="M108.8 238.122H96.4755V250.449H108.8V238.122Z" fill="#728FA3"/>
<path opacity="0.1" d="M422.707 152.396H410.383V164.723H422.707V152.396Z" fill="#728FA3"/>
<path opacity="0.1" d="M375.657 182.802H363.332V195.129H375.657V182.802Z" fill="#728FA3"/>
<path opacity="0.1" d="M422.707 182.802H410.383V195.129H422.707V182.802Z" fill="#728FA3"/>
<path opacity="0.1" d="M375.657 213.203H363.332V225.53H375.657V213.203Z" fill="#728FA3"/>
<path opacity="0.1" d="M422.707 213.203H410.383V225.53H422.707V213.203Z" fill="#728FA3"/>
<path opacity="0.1" d="M375.657 243.609H363.332V255.936H375.657V243.609Z" fill="#728FA3"/>
<path opacity="0.1" d="M422.707 243.609H410.383V255.936H422.707V243.609Z" fill="#728FA3"/>
<path opacity="0.1" d="M375.657 274.015H363.332V286.342H375.657V274.015Z" fill="#728FA3"/>
<path opacity="0.1" d="M422.707 274.015H410.383V286.342H422.707V274.015Z" fill="#728FA3"/>
<path opacity="0.1" d="M363.332 312.365V304.416H375.653V311.234L363.332 312.365Z" fill="#728FA3"/>
<path opacity="0.1" d="M34.9204 129.316V136.368H77.0954V129.316H34.9204ZM39.1197 135.926H35.6528V129.762H39.1197V135.926ZM43.319 135.926H39.8521V129.762H43.319V135.926ZM47.5096 135.926H44.0427V129.762H47.5096V135.926ZM51.7089 135.926H48.242V129.762H51.7089V135.926ZM55.9039 135.926H52.437V129.762H55.9039V135.926ZM60.1032 135.926H56.6363V129.762H60.1032V135.926ZM64.3025 135.926H60.8356V129.762H64.3025V135.926ZM68.4974 135.926H65.0305V129.762H68.4974V135.926ZM72.6924 135.926H69.2255V129.762H72.6924V135.926ZM76.8917 135.926H73.4248V129.762H76.8917V135.926Z" fill="#728FA3"/>
<path opacity="0.1" d="M34.9204 149.844V156.896H77.0954V149.844H34.9204ZM39.1197 156.453H35.6528V150.29H39.1197V156.453ZM43.319 156.453H39.8521V150.29H43.319V156.453ZM47.5096 156.453H44.0427V150.29H47.5096V156.453ZM51.7089 156.453H48.242V150.29H51.7089V156.453ZM55.9039 156.453H52.437V150.29H55.9039V156.453ZM60.1032 156.453H56.6363V150.29H60.1032V156.453ZM64.3025 156.453H60.8356V150.29H64.3025V156.453ZM68.4974 156.453H65.0305V150.29H68.4974V156.453ZM72.6924 156.453H69.2255V150.29H72.6924V156.453ZM76.8917 156.453H73.4248V150.29H76.8917V156.453Z" fill="#728FA3"/>
<path opacity="0.1" d="M34.9204 170.375V177.423H77.0954V170.375H34.9204ZM39.1197 176.977H35.6528V170.813H39.1197V176.977ZM43.319 176.977H39.8521V170.813H43.319V176.977ZM47.5096 176.977H44.0427V170.813H47.5096V176.977ZM51.7089 176.977H48.242V170.813H51.7089V176.977ZM55.9039 176.977H52.437V170.813H55.9039V176.977ZM60.1032 176.977H56.6363V170.813H60.1032V176.977ZM64.3025 176.977H60.8356V170.813H64.3025V176.977ZM68.4974 176.977H65.0305V170.813H68.4974V176.977ZM72.6924 176.977H69.2255V170.813H72.6924V176.977ZM76.8917 176.977H73.4248V170.813H76.8917V176.977Z" fill="#728FA3"/>
<path opacity="0.1" d="M34.9204 190.903V197.951H77.0954V190.903H34.9204ZM39.1197 197.509H35.6528V191.337H39.1197V197.509ZM43.319 197.509H39.8521V191.337H43.319V197.509ZM47.5096 197.509H44.0427V191.337H47.5096V197.509ZM51.7089 197.509H48.242V191.337H51.7089V197.509ZM55.9039 197.509H52.437V191.337H55.9039V197.509ZM60.1032 197.509H56.6363V191.337H60.1032V197.509ZM64.3025 197.509H60.8356V191.337H64.3025V197.509ZM68.4974 197.509H65.0305V191.337H68.4974V197.509ZM72.6924 197.509H69.2255V191.337H72.6924V197.509ZM76.8917 197.509H73.4248V191.337H76.8917V197.509Z" fill="#728FA3"/>
<path opacity="0.1" d="M35.1241 211.422C35.2888 212.09 35.4838 212.748 35.6832 213.403V211.869H39.1501V218.028H37.291C37.343 218.175 37.3993 218.327 37.46 218.461H77.1128V211.422H35.1241ZM43.3581 218.028H39.8911V211.869H43.3581V218.028ZM47.5487 218.028H44.0818V211.869H47.5487V218.028ZM51.748 218.028H48.2811V211.869H51.748V218.028ZM55.9429 218.028H52.476V211.869H55.9429V218.028ZM60.1422 218.028H56.6753V211.869H60.1422V218.028ZM64.3415 218.028H60.8746V211.869H64.3415V218.028ZM68.5365 218.028H65.0696V211.869H68.5365V218.028ZM72.7315 218.028H69.2645V211.869H72.7315V218.028ZM76.9308 218.028H73.4638V211.869H76.9308V218.028Z" fill="#728FA3"/>
<path opacity="0.1" d="M44.8922 231.95C45.0048 232.088 45.1088 232.244 45.2172 232.383H47.5097V235.344L48.2507 236.21V232.366H51.7176V238.581H50.2919C50.4305 238.724 50.5649 238.876 50.7252 239.015H77.0868V231.95H44.8922ZM55.9256 238.581H52.4587V232.392H55.9256V238.581ZM60.1249 238.581H56.658V232.392H60.1249V238.581ZM64.3242 238.581H60.8573V232.392H64.3242V238.581ZM68.5192 238.581H65.0522V232.392H68.5192V238.581ZM72.7141 238.581H69.2472V232.392H72.7141V238.581ZM76.9134 238.581H73.4465V232.392H76.9134V238.581Z" fill="#728FA3"/>
<path opacity="0.1" d="M68.0295 252.477C68.4282 252.703 68.8312 252.911 69.2342 253.132V252.915H72.7012V254.87C72.9525 254.978 73.1909 255.095 73.4379 255.208V252.915H76.9048V256.669C76.9707 256.698 77.0388 256.723 77.1085 256.742V252.477H68.0295Z" fill="#728FA3"/>
<path opacity="0.1" d="M327.385 272.662H327.818H327.385ZM299.532 207.573C299.615 207.85 299.688 208.128 299.762 208.401C299.697 208.128 299.619 207.85 299.532 207.573ZM92.3282 79.8304V81.6769H111.687V79.8218L92.3282 79.8304ZM327.389 272.662H327.822H327.389ZM299.532 207.573C299.615 207.85 299.688 208.128 299.762 208.401C299.697 208.128 299.619 207.85 299.532 207.573ZM327.385 272.662H327.818H327.385ZM299.532 207.573C299.615 207.85 299.688 208.128 299.762 208.401C299.697 208.128 299.619 207.85 299.532 207.573Z" fill="#728FA3"/>
<path opacity="0.1" d="M381.113 374C404.435 374 423.34 370.963 423.34 367.217C423.34 363.47 404.435 360.433 381.113 360.433C357.792 360.433 338.886 363.47 338.886 367.217C338.886 370.963 357.792 374 381.113 374Z" fill="#728FA3"/>
<path opacity="0.1" d="M190.667 367.217C213.988 367.217 232.894 364.18 232.894 360.433C232.894 356.687 213.988 353.65 190.667 353.65C167.346 353.65 148.44 356.687 148.44 360.433C148.44 364.18 167.346 367.217 190.667 367.217Z" fill="#728FA3"/>
<path d="M239.282 181.068C239.272 181.025 239.249 180.986 239.217 180.956C238.571 180.319 230.337 168.672 230.337 168.672C230.337 168.672 229.904 167.372 229.202 165.681C229.427 165.39 229.596 165.059 229.7 164.706C229.738 164.557 229.766 164.404 229.783 164.251C229.783 164.203 229.817 164.164 229.83 164.117C229.981 163.529 229.966 162.911 229.787 162.331C229.739 162.48 229.679 162.625 229.609 162.764C229.446 162.259 229.228 161.774 228.959 161.317C227.867 159.436 226.307 157.849 225.159 156.016C223.42 153.167 222.728 149.801 223.204 146.497C223.204 146.666 223.204 146.84 223.204 147.009C223.248 146.354 223.334 145.702 223.464 145.058C223.645 144.326 223.887 143.61 224.188 142.917C225.219 140.555 226.888 138.496 227.902 136.125C228.242 135.326 228.501 134.494 228.673 133.642C229.031 132.219 229.161 130.749 229.059 129.286C229.059 129.632 229.003 129.979 228.951 130.322C228.841 126.803 227.42 123.453 224.968 120.929C221.427 117.37 216.344 115.988 211.482 115.26C209.438 115.021 207.487 114.276 205.805 113.092C203.937 111.883 201.523 111.593 199.339 111.857C196.828 112.129 194.496 113.282 192.756 115.112C190.446 117.652 189.445 121.25 186.75 123.391C185.116 124.691 183.044 125.298 181.142 126.182C179.239 127.066 177.441 128.349 176.83 130.248C176.83 130.248 176.83 130.222 176.83 130.209V130.317L176.804 130.387C176.171 132.632 177.393 134.916 178.03 137.157C178.693 139.476 178.737 141.925 178.771 144.322C178.819 147.252 178.862 150.186 178.815 153.12C178.793 154.273 178.754 155.439 178.667 156.588C177.642 156.898 176.645 157.298 175.69 157.784C174.719 158.417 171.088 162.34 171.088 162.34L163.985 189.481L164.08 189.59L163.985 189.958L164.345 189.876C165.35 190.959 168.353 194.046 171.595 195.97L171.898 201.293C171.898 201.293 172.262 206.633 177.172 208.839C177.285 210.69 177.636 218.205 176.011 221.183C174.885 223.358 174.356 225.793 174.477 228.239C174.477 228.239 175.044 232.756 174.399 235.131C174.021 236.718 173.993 238.369 174.316 239.968C174.316 239.968 174.316 240.493 174.316 241.394C174.316 246.201 174.373 261.605 174.316 263.348C174.234 265.407 174.316 295.856 174.316 295.856C174.316 295.856 173.913 311.074 172.622 315.196C171.33 319.318 171.655 332.966 171.655 332.966C171.655 332.966 170.845 349.225 173.71 352.432C173.71 352.575 173.684 352.723 173.679 352.866C173.679 352.931 173.679 353.004 173.679 353.069C173.645 354.305 173.883 355.618 174.945 356.021C177.112 356.853 179.976 359.35 180.518 360.065C181.059 360.78 184.21 362.562 188.318 362.085C190.892 361.795 193.482 361.677 196.071 361.729C196.071 361.729 197.692 361.435 197.168 359.419C196.83 358.162 195.564 356.229 194.663 354.959C194.827 355.002 194.988 355.037 195.139 355.067L195.295 355.098H195.417C195.483 355.102 195.55 355.102 195.616 355.098H195.703C195.784 355.104 195.865 355.104 195.946 355.098C197.033 354.994 201.09 356.884 201.813 358.132C202.537 359.38 205.09 360.329 207.014 360.568C208.158 360.706 211.044 360.472 213.466 360.16C214.686 360.034 215.895 359.814 217.081 359.501C217.653 359.285 217.774 358.591 217.609 357.811C217.415 356.82 216.885 355.926 216.11 355.28C215.408 354.781 214.481 353.468 213.796 352.393L213.614 352.103C214.823 350.95 217.007 347.179 217.67 346.399C218.476 345.449 216.37 310.735 216.37 310.735V293.333L219.599 276.862L221.856 268.146L223.794 254.987C223.794 254.987 227.182 239.617 226.138 238.109C226.138 238.078 225.271 222.254 224.361 218.452C223.967 216.758 224.067 212.943 224.301 209.233C224.545 208.99 224.716 208.683 224.792 208.347C224.869 208.011 224.849 207.66 224.734 207.335C224.669 207.112 224.585 206.896 224.483 206.689C224.483 206.624 224.483 206.555 224.483 206.49C226.355 205.628 228.311 204.963 230.32 204.504C233.549 203.872 232.742 202.207 232.742 202.207C232.742 202.207 233.471 200.781 233.952 199.91C234.433 199.039 234.034 191.35 233.952 190.717C233.921 190.461 233.722 189.048 233.492 187.444C234.528 186.707 235.876 185.793 237.345 184.926C240.14 183.27 239.512 181.524 239.282 181.068ZM197.159 290.958C197.159 290.958 194.736 297.139 195.707 298.721C196.678 300.303 195.547 306.176 195.547 306.176L194.736 314.892C194.736 314.892 192.479 331.059 193.285 334.861C193.917 337.843 194.151 346.75 194.225 350.464C194.17 350.486 194.116 350.512 194.065 350.542L193.956 350.599C194.329 349.138 194.173 346.182 192.323 340.235L192.167 315.672C192.167 315.672 191.881 287.3 194.121 284.127C196.362 280.954 197.155 275.566 197.155 275.566C197.155 275.566 196.669 283.338 196.353 285.397C196.037 287.456 197.159 290.958 197.159 290.958ZM192.648 352.012C192.626 352.064 192.6 352.116 192.583 352.163L192.461 352.007C192.523 352.013 192.585 352.015 192.648 352.012Z" fill="url(#paint0_linear)"/>
<path d="M217.354 361.747C216.101 362.228 209.31 363.047 207.412 362.817C205.514 362.588 203.001 361.625 202.286 360.368C201.571 359.111 197.562 357.213 196.487 357.334C196.047 357.348 195.607 357.286 195.187 357.152C194.446 356.928 193.721 356.65 193.02 356.32C192.922 355.774 192.939 355.213 193.068 354.673C193.093 354.564 193.125 354.457 193.163 354.352C193.416 353.641 193.94 353.059 194.619 352.731L194.775 352.658C195.076 352.528 195.39 352.432 195.711 352.372C199.118 351.717 213.172 353.03 213.172 353.03C213.172 353.03 213.566 353.737 214.108 354.612C214.784 355.696 215.703 357.018 216.396 357.516C217.164 358.173 217.685 359.072 217.874 360.065C218.038 360.832 217.917 361.534 217.354 361.747Z" fill="white"/>
<path opacity="0.1" d="M217.354 361.747C216.101 362.228 209.315 363.047 207.417 362.817C205.519 362.588 203.005 361.621 202.286 360.368C201.566 359.116 197.566 357.213 196.492 357.334C195.417 357.456 193.025 356.32 193.025 356.32C193.025 356.32 192.652 354.586 193.735 353.403L195.902 354.942C195.902 354.942 201.701 356.741 202.775 358.409C203.85 360.078 205.809 361.01 208.639 361.179C210.754 361.318 215.612 360.494 217.887 360.082C218.038 360.832 217.921 361.534 217.354 361.747Z" fill="black"/>
<path d="M196.609 363.957C194.052 363.907 191.496 364.028 188.955 364.317C184.886 364.794 181.779 363.017 181.237 362.284C180.695 361.552 177.892 359.077 175.738 358.21C174.685 357.802 174.438 356.476 174.485 355.237C174.485 355.171 174.485 355.098 174.485 355.033C174.525 354.248 174.641 353.468 174.832 352.705L191.694 352.345L193.155 354.326L193.38 354.63L194.268 355.839C194.268 355.839 194.671 356.368 195.2 357.139C196.093 358.44 197.341 360.36 197.675 361.63C198.208 363.663 196.609 363.957 196.609 363.957Z" fill="white"/>
<path opacity="0.1" d="M196.609 363.957C194.052 363.907 191.496 364.028 188.955 364.317C184.89 364.794 181.779 363.017 181.241 362.284C180.704 361.552 177.892 359.055 175.738 358.219C174.685 357.811 174.438 356.485 174.485 355.245C175.69 355.527 178.221 356.246 179.213 357.499C180.513 359.172 182.841 361.985 186.147 362.163C188.817 362.306 195.317 361.829 197.701 361.638C198.212 363.662 196.609 363.957 196.609 363.957Z" fill="black"/>
<path opacity="0.1" d="M194.602 352.714C194.407 354.162 193.805 354.552 193.371 354.638C193.265 354.659 193.157 354.659 193.051 354.638C192.994 354.634 192.937 354.626 192.882 354.612C192.882 354.612 177.74 357.959 174.68 355.25C174.603 355.18 174.53 355.105 174.464 355.024C174.504 354.239 174.62 353.459 174.81 352.697L191.673 352.337L193.133 354.318C193.386 353.607 193.909 353.024 194.589 352.697L194.602 352.714Z" fill="black"/>
<path opacity="0.1" d="M214.103 354.595C213.765 354.968 213.484 355.18 213.306 355.106C212.509 354.786 205.974 353.672 203.898 354.63C201.822 355.588 194.797 354.786 194.797 354.786C194.797 354.786 194.797 353.954 194.758 352.619C195.058 352.489 195.372 352.393 195.694 352.332C199.1 351.678 213.154 352.991 213.154 352.991C213.154 352.991 213.566 353.719 214.103 354.595Z" fill="black"/>
<path d="M223.993 256.552L222.077 269.789L219.85 278.561L216.66 295.145V312.699C216.66 312.699 218.732 347.625 217.934 348.579C217.137 349.533 214.108 354.963 213.31 354.647C212.513 354.331 205.978 353.212 203.902 354.166C201.826 355.12 194.801 354.326 194.801 354.326C194.801 354.326 194.641 340.773 193.844 336.945C193.046 333.118 195.278 316.851 195.278 316.851L196.075 308.083C196.075 308.083 197.194 302.179 196.236 300.584C195.278 298.989 197.67 292.783 197.67 292.783C197.67 292.783 196.557 289.267 196.877 287.196C197.198 285.124 197.67 277.309 197.67 277.309C197.67 277.309 196.877 282.735 194.663 285.921C192.448 289.107 192.73 317.658 192.73 317.658L192.886 342.363C196.877 355.445 192.886 354.166 192.886 354.166C192.886 354.166 177.744 357.516 174.685 354.803C171.625 352.09 172.5 335.012 172.5 335.012C172.5 335.012 172.184 321.298 173.458 317.155C174.732 313.011 175.135 297.698 175.135 297.698C175.135 297.698 175.053 267.075 175.135 265.008C175.196 263.274 175.135 247.753 175.135 242.903C175.135 242.001 175.135 241.468 175.135 241.468L176.964 236.925L198.632 234.212H208.998C208.998 234.212 224.599 237.879 226.212 239.461C226.246 239.487 226.275 239.52 226.298 239.556C227.343 241.086 223.993 256.552 223.993 256.552Z" fill="#728FA3"/>
<path opacity="0.1" d="M197.683 326.083C197.683 326.083 202.45 337.565 204.699 338.363C206.949 339.16 197.683 326.083 197.683 326.083Z" fill="black"/>
<path opacity="0.1" d="M199.447 342.988C199.447 342.988 215.542 343.785 215.382 345.54C215.222 347.296 199.447 342.988 199.447 342.988Z" fill="black"/>
<path opacity="0.1" d="M177.913 338.397C178.55 339 190.19 340.131 189.233 341.232C188.275 342.333 178.871 344.474 178.871 344.474L177.913 338.397Z" fill="black"/>
<path opacity="0.1" d="M176.002 318.589C176.002 319.066 178.394 333.898 179.036 334.536C179.677 335.173 184.934 335.81 184.934 335.81L176.002 318.589Z" fill="black"/>
<path d="M193.358 115.854C191.074 118.407 190.086 122.026 187.426 124.184C185.809 125.485 183.764 126.104 181.883 126.989C180.002 127.873 178.139 129.221 177.58 131.223C176.955 133.477 178.16 135.779 178.793 138.033C179.447 140.364 179.486 142.8 179.525 145.241C179.569 148.192 179.616 151.144 179.564 154.096C179.486 158.694 179.105 163.506 176.665 167.402C185.475 170.207 194.845 170.588 204.084 170.948C205.86 171.074 207.643 171.029 209.41 170.813C210.941 170.508 212.456 170.125 213.947 169.665C216.897 168.884 219.936 168.495 222.987 168.508C224.318 168.508 225.674 168.59 226.957 168.243C228.24 167.896 229.475 167.008 229.822 165.725C230.129 164.572 229.679 163.345 229.089 162.309C228.014 160.42 226.489 158.842 225.336 156.978C224.159 155.009 223.461 152.792 223.298 150.504C223.135 148.216 223.511 145.922 224.396 143.806C225.419 141.426 227.065 139.355 228.071 136.971C229.101 134.411 229.374 131.61 228.86 128.899C228.345 126.189 227.063 123.683 225.167 121.679C221.67 118.099 216.652 116.712 211.85 115.975C209.828 115.736 207.899 114.991 206.242 113.808C204.4 112.594 202.013 112.299 199.854 112.568C197.365 112.847 195.059 114.013 193.358 115.854Z" fill="#3F3D56"/>
<g opacity="0.1">
<path opacity="0.1" d="M224.53 141.305C223.647 143.393 223.268 145.661 223.425 147.923C223.522 146.306 223.896 144.716 224.53 143.225C225.549 140.845 227.195 138.774 228.201 136.39C229.023 134.399 229.368 132.244 229.211 130.096C229.121 131.602 228.78 133.081 228.201 134.474C227.195 136.858 225.549 138.925 224.53 141.305Z" fill="black"/>
<path opacity="0.1" d="M179.655 144.651C179.681 146.35 179.707 148.053 179.712 149.753C179.712 147.412 179.69 145.076 179.655 142.74C179.621 140.317 179.577 137.863 178.923 135.527C178.49 134.045 177.848 132.541 177.623 131.045C177.237 133.169 178.334 135.323 178.923 137.443C179.577 139.758 179.621 142.228 179.655 144.651Z" fill="black"/>
<path opacity="0.1" d="M227.104 165.764C225.804 166.115 224.469 166.037 223.139 166.028C220.09 166.009 217.052 166.391 214.103 167.164C212.611 167.622 211.097 168.004 209.566 168.308C207.798 168.528 206.013 168.574 204.236 168.447C195.308 168.096 186.255 167.719 177.705 165.166C177.451 165.732 177.162 166.283 176.838 166.813C185.649 169.613 195.018 169.998 204.253 170.358C206.03 170.486 207.815 170.439 209.583 170.22C211.109 169.918 212.618 169.538 214.103 169.08C217.046 168.304 220.078 167.917 223.122 167.931C224.452 167.931 225.804 168.013 227.087 167.662C228.37 167.311 229.605 166.431 229.952 165.148C230.098 164.554 230.083 163.932 229.908 163.345C229.522 164.559 228.331 165.404 227.104 165.764Z" fill="black"/>
</g>
<path d="M214.268 160.627C213.947 161.347 212.595 167.562 212.275 168.2C211.954 168.837 210.203 179.036 210.043 179.608C209.882 180.18 198.502 177.215 198.502 177.215L191.651 171.472L184.609 164.463C184.609 164.463 184.401 158.14 189.588 156.111C189.941 155.973 190.303 155.86 190.671 155.773C196.964 154.26 196.331 135.124 196.331 135.124L209.245 140.702C209.245 140.702 206.853 151.868 206.936 154.022C206.957 154.746 207.525 155.197 208.266 155.47C209.412 155.796 210.605 155.925 211.794 155.851C211.794 155.851 214.589 159.912 214.268 160.627Z" fill="#FBBEBE"/>
<path d="M237.388 181.597L239.221 182.078C239.221 182.078 240.578 184.141 237.388 186.062C235.363 187.292 233.419 188.651 231.568 190.132L222.142 193.001L220.327 187.301L229.098 180.644L237.388 181.597Z" fill="#728FA3"/>
<path opacity="0.1" d="M237.388 181.597L239.221 182.078C239.221 182.078 240.578 184.141 237.388 186.062C235.363 187.292 233.419 188.651 231.568 190.132L222.142 193.001L220.327 187.301L229.098 180.644L237.388 181.597Z" fill="black"/>
<path d="M168.6 187.102L164.934 190.691C164.934 190.691 171.547 198.345 176.635 198.822C181.722 199.299 185.003 193.001 185.003 193.001L180.6 186.066L168.6 187.102Z" fill="#728FA3"/>
<path opacity="0.1" d="M168.6 187.102L164.934 190.691C164.934 190.691 171.547 198.345 176.635 198.822C181.722 199.299 185.003 193.001 185.003 193.001L180.6 186.066L168.6 187.102Z" fill="black"/>
<path opacity="0.1" d="M203.425 147.629C210.469 147.629 216.179 141.918 216.179 134.873C216.179 127.828 210.469 122.117 203.425 122.117C196.382 122.117 190.671 127.828 190.671 134.873C190.671 141.918 196.382 147.629 203.425 147.629Z" fill="black"/>
<path d="M203.425 146.671C210.469 146.671 216.179 140.96 216.179 133.915C216.179 126.87 210.469 121.159 203.425 121.159C196.382 121.159 190.671 126.87 190.671 133.915C190.671 140.96 196.382 146.671 203.425 146.671Z" fill="#FBBEBE"/>
<path opacity="0.1" d="M226.307 241.004C223.403 241.336 220.542 241.977 217.774 242.916C213.007 244.502 175.651 242.942 175.131 242.916C175.131 242.014 175.131 241.481 175.131 241.481L176.96 236.938L198.628 234.225H208.994C208.994 234.225 224.595 237.892 226.207 239.474C226.272 240.428 226.307 241.004 226.307 241.004Z" fill="black"/>
<path opacity="0.1" d="M214.268 160.628C213.947 161.347 212.595 167.563 212.275 168.2C211.954 168.837 210.203 179.036 210.043 179.608C209.882 180.18 198.502 177.215 198.502 177.215L191.651 171.472L184.609 164.464C184.609 164.464 184.401 158.14 189.588 156.111L202.468 170.922L208.266 155.47C209.412 155.796 210.605 155.925 211.794 155.851C211.794 155.851 214.589 159.912 214.268 160.628Z" fill="black"/>
<path d="M202.468 171.398L189.285 156.228C188.513 155.735 187.631 155.442 186.718 155.375C185.805 155.308 184.89 155.468 184.054 155.842C181.103 157.121 177.437 158.157 176.479 158.794C175.521 159.431 171.933 163.375 171.933 163.375L182.62 191.336L177.913 209.753C177.913 209.753 178.633 219.163 176.799 222.592C175.683 224.784 175.16 227.23 175.283 229.687C175.283 229.687 175.842 234.234 175.205 236.622C174.832 238.219 174.804 239.877 175.122 241.485C175.122 241.485 212.994 243.08 217.774 241.485C220.542 240.544 223.402 239.903 226.307 239.574C226.307 239.574 225.44 223.623 224.574 219.796C223.707 215.969 225.293 201.379 225.293 201.379L224.257 185.749L230.472 169.712C230.472 169.712 227.104 159.431 223.594 158.395C223.594 158.395 217.219 156.878 215.863 156.163C214.506 155.448 210.52 154.806 210.52 154.806L208.426 155.509L202.468 171.398Z" fill="#728FA3"/>
<path opacity="0.1" d="M220.861 185.222L193.12 183.335C192.418 183.287 191.81 183.818 191.762 184.52L188.784 228.326C188.736 229.028 189.267 229.636 189.969 229.684L217.709 231.571C218.412 231.618 219.019 231.088 219.067 230.386L222.045 186.58C222.093 185.878 221.563 185.27 220.861 185.222Z" fill="black"/>
<path d="M221.816 184.27L194.075 182.384C193.373 182.336 192.765 182.867 192.718 183.569L189.739 227.375C189.692 228.077 190.222 228.685 190.924 228.733L218.665 230.619C219.367 230.667 219.975 230.136 220.022 229.434L223 185.628C223.048 184.926 222.518 184.318 221.816 184.27Z" fill="#3F3D56"/>
<path d="M220.9 187.704L194.517 185.91L191.806 225.789L218.189 227.584L220.9 187.704Z" fill="white"/>
<path opacity="0.1" d="M218.535 197.883L196.983 196.374L196.563 202.382L218.114 203.891L218.535 197.883Z" fill="black"/>
<path opacity="0.1" d="M217.755 221.757L214.335 221.524L214.122 224.655L217.542 224.887L217.755 221.757Z" fill="black"/>
<path opacity="0.1" d="M214.381 214.2L196.875 213.01L196.662 216.141L214.169 217.331L214.381 214.2Z" fill="black"/>
<path d="M217.635 186.213L199.406 184.973L199.079 189.786L217.308 191.026L217.635 186.213Z" fill="#3F3D56"/>
<path opacity="0.1" d="M217.635 186.213L199.406 184.973L199.079 189.786L217.308 191.026L217.635 186.213Z" fill="black"/>
<path opacity="0.1" d="M204.062 240.124C204.062 240.124 203.902 263.729 197.683 277.283C197.683 277.283 205.18 259.421 205.18 258.706C205.18 257.991 209.323 250.492 208.214 248.26C207.105 246.028 204.062 240.124 204.062 240.124Z" fill="black"/>
<path opacity="0.1" d="M204.4 130.725C204.162 128.635 204.674 126.529 205.844 124.782C205.704 126.533 206.2 128.276 207.239 129.693C208.278 131.109 209.791 132.105 211.503 132.497C211.357 132.371 211.253 132.202 211.204 132.015C211.155 131.828 211.165 131.63 211.23 131.448C212.119 132.454 212.799 133.646 213.804 134.53C214.81 135.414 216.318 135.943 217.501 135.315C219.109 134.448 219.126 132.164 218.71 130.387C217.817 126.602 215.986 123.103 213.384 120.214C212.735 119.34 211.893 118.629 210.923 118.136C209.953 117.642 208.882 117.38 207.794 117.37C205.332 117.18 202.775 117.396 200.57 118.502C199.328 119.179 198.165 119.992 197.103 120.925L191.036 125.874C190.452 126.295 189.952 126.821 189.562 127.426C189.302 127.932 189.145 128.484 189.103 129.052C188.948 130.673 189.248 132.305 189.969 133.765C190.69 135.225 191.804 136.455 193.185 137.317C193.156 136.036 193.508 134.775 194.197 133.694C194.886 132.614 195.881 131.763 197.055 131.249C197.239 131.403 197.388 131.594 197.492 131.81C197.595 132.026 197.652 132.262 197.657 132.502L198.936 130.222C199.126 129.807 199.426 129.452 199.802 129.195C200.591 128.761 201.575 129.273 202.247 129.884C202.918 130.495 203.573 131.258 204.474 131.353L204.509 127.959" fill="black"/>
<path d="M204.4 130.248C204.161 128.157 204.673 126.05 205.844 124.301C205.453 127.769 208.067 131.349 211.508 132.016C211.361 131.89 211.257 131.723 211.208 131.537C211.159 131.35 211.169 131.153 211.235 130.972C212.123 131.977 212.803 133.165 213.809 134.053C214.814 134.942 216.322 135.466 217.505 134.834C219.113 133.967 219.13 131.682 218.714 129.91C217.822 126.125 215.99 122.627 213.388 119.737C212.581 118.753 211.564 117.962 210.411 117.422C209.577 117.114 208.7 116.935 207.811 116.894C205.349 116.703 202.793 116.915 200.587 118.021C199.346 118.701 198.184 119.515 197.12 120.448L191.053 125.398C190.468 125.817 189.968 126.344 189.579 126.949C189.318 127.455 189.162 128.008 189.12 128.575C188.965 130.195 189.265 131.827 189.987 133.286C190.708 134.745 191.821 135.975 193.202 136.836C193.174 135.555 193.527 134.294 194.216 133.214C194.905 132.134 195.899 131.283 197.072 130.768C197.255 130.922 197.404 131.114 197.508 131.33C197.612 131.546 197.668 131.781 197.675 132.021L198.949 129.749C199.138 129.334 199.438 128.978 199.815 128.722C200.604 128.289 201.588 128.8 202.26 129.411C202.931 130.022 203.586 130.781 204.487 130.881L204.522 127.482" fill="#3F3D56"/>
<path d="M210.441 210.707C209.328 210.143 190.91 213.017 190.91 213.017C190.91 213.017 187.876 212.15 180.544 210.945C173.211 209.74 172.743 202.571 172.743 202.571L171.941 188.22L174.416 186.053L185.016 192.988C185.016 192.988 185.181 196.494 185.016 197.127C184.912 197.561 184.635 198.077 184.661 198.428C184.669 198.523 184.708 198.612 184.772 198.683C184.836 198.754 184.922 198.801 185.016 198.818C185.735 199 195.538 200.586 195.538 200.586C195.538 200.586 218.259 199.03 223.923 206.685C224.372 207.246 224.712 207.887 224.924 208.574C226.329 213.806 211.451 211.205 210.441 210.707Z" fill="#FBBEBE"/>
<path opacity="0.1" d="M224.938 208.605C224.071 208.991 223.533 209.268 223.533 209.268C223.533 209.268 215.404 209.03 210.836 207.374C206.268 205.718 200.717 206.013 200.717 206.013C200.717 206.013 181.684 202.736 184.635 198.458C184.643 198.553 184.682 198.643 184.746 198.713C184.81 198.784 184.896 198.831 184.99 198.848C185.709 199.03 195.512 200.617 195.512 200.617C195.512 200.617 218.233 199.06 223.897 206.715C224.36 207.274 224.713 207.915 224.938 208.605Z" fill="black"/>
<path d="M232.842 183.353C232.842 183.353 233.96 191.245 234.038 191.887C234.116 192.528 234.519 200.257 234.038 201.136C233.557 202.016 232.842 203.447 232.842 203.447C232.842 203.447 233.639 205.12 230.45 205.761C227.26 206.403 223.516 208.31 223.516 208.31C223.516 208.31 215.382 208.071 210.84 206.398C206.299 204.725 200.717 205.042 200.717 205.042C200.717 205.042 176.557 200.894 186.923 195.831C197.289 190.769 204.621 197.626 204.621 197.626L216.179 196.91C216.179 196.91 220.487 194.275 221.683 194.518C222.528 194.625 223.385 194.487 224.153 194.119L224.235 185.745L232.842 183.353Z" fill="#FBBEBE"/>
<path opacity="0.1" d="M174.234 163.978L171.92 163.857L164.908 191.163C164.908 191.163 172.479 189.247 175.742 191.163C179.005 193.079 184.99 193.473 184.99 193.473L182.758 171.706L174.234 163.978Z" fill="black"/>
<path d="M174.234 163.497L171.92 163.375L164.908 190.682C164.908 190.682 172.479 188.766 175.742 190.682C179.005 192.598 184.99 192.992 184.99 192.992L182.758 171.225L174.234 163.497Z" fill="#728FA3"/>
<path opacity="0.1" d="M227.265 169.478L230.45 170.198C230.45 170.198 238.584 181.901 239.221 182.555C239.858 183.21 236.188 185.589 234.675 185.589C233.163 185.589 225.748 186.456 223.594 188.459C221.44 190.461 222.337 180.384 222.337 180.154C222.337 179.924 225.011 173.566 225.011 173.566L227.265 169.478Z" fill="black"/>
<path d="M227.265 169.001L230.45 169.717C230.45 169.717 238.584 181.441 239.221 182.078C239.858 182.715 236.188 185.112 234.675 185.112C233.163 185.112 225.748 185.979 223.594 187.982C221.44 189.984 222.337 179.907 222.337 179.677C222.337 179.447 225.029 173.067 225.029 173.067L227.265 169.001Z" fill="#728FA3"/>
<g opacity="0.1">
<path opacity="0.1" d="M205.822 124.34C205.803 124.008 205.81 123.674 205.843 123.343C205.184 124.334 204.73 125.446 204.509 126.616V127.621C204.509 127.621 204.509 127.6 204.509 127.587V127.825C204.509 128.527 204.509 129.234 204.487 129.936H204.426V130.261C204.426 130.148 204.426 130.04 204.405 129.927C203.538 129.788 202.918 129.06 202.273 128.479C201.627 127.899 200.617 127.344 199.828 127.79C199.451 128.047 199.151 128.402 198.962 128.818L197.675 131.089C197.669 130.85 197.612 130.615 197.508 130.399C197.404 130.184 197.256 129.994 197.072 129.84C195.898 130.354 194.904 131.205 194.214 132.286C193.525 133.366 193.173 134.627 193.202 135.909C192.018 135.167 191.028 134.153 190.313 132.953C189.597 131.752 189.178 130.399 189.09 129.004C189.014 130.561 189.356 132.11 190.079 133.492C190.802 134.873 191.88 136.037 193.202 136.862C193.174 135.581 193.527 134.321 194.216 133.24C194.905 132.16 195.899 131.309 197.072 130.794C197.255 130.948 197.404 131.14 197.508 131.356C197.612 131.572 197.668 131.807 197.675 132.047L198.949 129.775C199.138 129.36 199.438 129.004 199.815 128.748C200.604 128.315 201.588 128.826 202.26 129.437C202.931 130.049 203.586 130.807 204.487 130.907C204.487 129.797 204.499 128.69 204.522 127.587C204.734 126.429 205.176 125.325 205.822 124.34Z" fill="black"/>
<path opacity="0.1" d="M204.357 128.705C204.379 128.41 204.413 128.115 204.457 127.838L204.504 126.642C204.374 127.321 204.325 128.014 204.357 128.705Z" fill="black"/>
<path opacity="0.1" d="M217.505 133.876C216.322 134.509 214.814 133.98 213.809 133.096C212.803 132.211 212.123 131.019 211.235 130.014C211.169 130.196 211.16 130.393 211.208 130.581C211.257 130.768 211.361 130.936 211.508 131.063C211.421 131.063 211.339 131.019 211.256 130.998C212.123 131.995 212.812 133.165 213.809 134.032C214.805 134.899 216.322 135.445 217.505 134.812C218.688 134.179 219.026 132.697 218.922 131.254C218.844 132.389 218.437 133.373 217.505 133.876Z" fill="black"/>
<path opacity="0.1" d="M211.23 130.989C209.781 130.594 208.487 129.765 207.522 128.614C206.557 127.463 205.967 126.044 205.83 124.548C205.583 127.951 208.149 131.362 211.508 132.016C211.364 131.892 211.262 131.728 211.212 131.545C211.163 131.362 211.169 131.168 211.23 130.989Z" fill="black"/>
</g>
<path d="M419.349 201.83C419.349 201.83 417.641 201.592 417.641 199.108C417.641 196.624 416.419 191.974 416.419 191.974C416.419 191.974 415.362 183.881 413.902 182.598C412.441 181.315 410.565 173.782 410.565 173.782C410.565 173.782 410.244 169.695 409.59 168.815C408.935 167.935 408.051 165.781 406.747 162.708C405.442 159.635 400.017 157.528 400.017 157.528C400.017 157.528 390.184 151.824 387.397 149.965C387.142 149.811 386.904 149.631 386.686 149.427C386.201 148.795 384.086 148.782 384.086 148.782C383.865 147.382 383.653 145.778 383.583 144.326C383.583 144.17 383.583 144.014 383.583 143.858C386.691 142.021 389.031 139.124 390.175 135.7C390.227 135.536 390.27 135.367 390.318 135.198C390.508 135.139 390.684 135.041 390.833 134.909C390.982 134.778 391.102 134.616 391.185 134.435C391.432 133.876 391.44 133.226 391.752 132.701C392.116 132.086 392.81 131.756 393.356 131.297C394.734 130.122 395.089 128.15 395.024 126.36C394.981 124.904 394.747 123.439 394.838 121.995C394.838 121.874 394.838 121.752 394.864 121.631C394.89 121.419 394.92 121.198 394.959 120.99C395.172 119.915 395.635 118.9 395.895 117.834C396.155 116.768 396.181 115.567 395.575 114.648C394.686 113.3 392.836 113.032 391.211 112.915C389.369 112.759 387.744 112.958 386.543 111.428C385.993 110.629 385.372 109.88 384.688 109.191C384.446 108.966 382.088 107.523 382.088 107.432C379.782 106.359 377.165 106.157 374.721 106.864C373.495 107.219 372.346 107.8 371.103 108.091C368.433 108.723 365.356 108.039 363.085 109.569C361.82 110.435 361.061 111.818 360.351 113.157C359.773 114.261 359.186 115.366 358.591 116.473C357.629 118.289 356.658 120.136 356.255 122.147C356.171 122.586 356.118 123.031 356.095 123.478C356.095 123.638 356.095 123.798 356.095 123.959C356.095 124.028 356.095 124.097 356.095 124.167C356.095 124.314 356.095 124.461 356.121 124.6C356.147 124.739 356.121 124.778 356.151 124.869C356.182 124.96 356.19 125.164 356.216 125.302C356.242 125.441 356.294 125.688 356.346 125.874C356.346 125.957 356.398 126.035 356.424 126.117C356.45 126.2 356.52 126.408 356.576 126.551C356.632 126.694 356.637 126.702 356.671 126.776C356.736 126.928 356.814 127.075 356.892 127.209C356.927 127.266 356.953 127.322 356.988 127.378C357.107 127.581 357.24 127.775 357.387 127.959C358.31 129.117 359.679 129.853 360.689 130.937C360.689 130.98 360.689 131.024 360.689 131.067C360.689 131.184 360.689 131.301 360.689 131.422C360.751 133.839 361.402 136.204 362.586 138.312C363.771 140.42 365.452 142.206 367.484 143.515C367.484 143.68 367.506 143.849 367.514 144.018C367.599 145.303 367.583 146.593 367.467 147.876C367.29 147.668 367.069 147.503 366.82 147.392C366.571 147.281 366.3 147.227 366.028 147.234C365.842 147.225 365.655 147.241 365.473 147.282L365.434 147.252V147.291C364.481 147.525 363.306 148.517 362.184 151.339C362.184 151.339 358.769 155.188 356.169 155.027C353.569 154.867 346.986 159.037 346.986 159.037C346.986 159.037 340.563 163.202 339.185 167.45C338.415 169.859 337.49 172.216 336.416 174.506L328.455 190.855L326.995 203.858C326.995 203.858 327.805 209.628 327.645 210.512C327.484 211.396 330.977 219.328 330.977 219.328C330.977 219.328 342.518 239.604 347.233 240.644L347.571 240.41C347.773 240.513 347.987 240.591 348.208 240.644L349.179 239.964C349.239 240.726 349.213 241.492 349.101 242.248C348.455 244.255 349.348 257.319 350.483 259.88C351.618 262.442 351.215 296.033 351.215 296.033L351.055 298.994C351.055 298.994 351.055 299.089 351.094 299.254L351.055 299.956L351.172 300.017C351.293 300.958 351.254 301.914 351.055 302.843C350.648 304.143 350.483 307.814 350.483 307.814C350.483 307.814 347.233 328.567 348.776 332.737C350.318 336.906 351.623 341.475 351.623 341.475C351.623 341.475 353.248 346.676 351.701 347.543C350.154 348.41 345.772 349.949 346.665 352.111C347.489 354.114 350.613 359.48 351.077 360.264L351.038 360.698L350.401 367.602C350.504 368.514 350.751 369.404 351.133 370.238C351.831 371.746 353.183 373.302 355.766 373.133C356.199 373.103 356.697 373.055 357.187 372.99C361.907 372.353 367.714 370.246 367.714 370.246C367.413 370.056 367.137 369.827 366.895 369.566C366.663 369.341 366.479 369.072 366.354 368.773C366.23 368.475 366.167 368.155 366.171 367.832C366.24 366.571 363.887 360.585 363.298 359.107L363.163 358.778C363.163 358.778 368.528 353.165 367.636 348.197C367.636 348.197 361.699 344.73 363.653 342.823C365.607 340.916 369.1 335.454 369.1 335.454C369.1 335.454 369.261 315.018 369.1 311.971C368.933 309.851 369.034 307.719 369.399 305.625C369.464 305.313 369.542 305.005 369.625 304.698C372.33 305.106 375.062 305.313 377.798 305.317C378.798 305.317 379.809 305.297 380.832 305.257C380.832 305.546 380.845 305.858 380.871 306.193C381.096 311.256 381.516 320.137 381.859 323.435C382.344 328.16 385.026 340.907 385.026 340.907C385.026 340.907 379.908 344.188 385.919 352.289C385.919 352.289 385.919 355.219 385.521 355.648C385.095 357.038 384.752 358.452 384.493 359.883C384.242 361.404 384.138 362.952 384.545 363.749C385.521 365.665 391.371 365.509 391.371 365.509C391.418 365.498 391.466 365.491 391.514 365.487C392.618 365.371 393.735 365.475 394.798 365.795C395.861 366.115 396.85 366.644 397.707 367.351C399.93 369.137 408.363 368.357 412.935 367.784C414.725 367.555 415.921 367.351 415.921 367.351C415.979 367.148 415.999 366.937 415.982 366.727C415.934 365.604 415.054 363.142 409.091 360.945C409.091 360.945 403.483 357.174 403.561 353.888H403.436H402.79C403.197 353.875 403.483 353.875 403.483 353.875C403.483 353.875 401.286 345.861 402.183 345.207C403.08 344.552 400.394 335.671 400.394 335.671C400.394 335.671 398.855 320.761 398.768 319.721C398.774 318.824 398.911 317.933 399.176 317.077L398.768 308.898C398.768 308.898 398.69 306.18 398.768 305.296C398.76 304.528 398.699 303.762 398.586 303.003C398.547 302.7 398.508 302.383 398.465 302.071C400.567 301.538 401.932 301.048 401.932 301.048L401.689 272.593C403.475 269.125 403.804 261.514 403.795 256.122C403.795 252.655 403.639 250.089 403.639 250.089L406.079 246.106C406.079 246.106 406.643 241.338 405.75 240.293C405.356 239.821 405.533 239.331 405.858 238.928C406.029 238.788 406.21 238.66 406.4 238.546C406.379 238.516 406.36 238.484 406.344 238.451C406.514 238.309 406.695 238.18 406.885 238.065C406.885 238.065 406.019 236.722 406.794 236.154C407.522 236.648 408.172 237.042 408.666 237.324C408.632 237.641 408.597 237.823 408.597 237.823L408.805 237.389C409.282 237.658 409.572 237.823 409.572 237.823C409.572 237.823 413.394 230.207 413.312 229.089C413.23 227.971 415.912 223.237 415.912 223.237C415.912 223.237 416.237 220.75 417.702 219.709C419.167 218.669 418.838 211.132 418.838 211.132C418.838 211.132 419.245 207.205 420.22 205.605C421.195 204.006 419.349 201.83 419.349 201.83ZM346.214 198.488L346.288 200.304C345.855 199.606 345.543 199.108 345.543 199.108L346.214 198.488Z" fill="url(#paint1_linear)"/>
<path d="M409.798 234.529L408.861 238.516C408.861 238.516 401.364 234.68 400.017 229.826C398.669 224.971 402.274 223.121 402.274 223.121L409.265 226.077L409.798 234.529Z" fill="white"/>
<path opacity="0.1" d="M409.798 234.529L408.861 238.516C408.861 238.516 401.364 234.68 400.017 229.826C398.669 224.971 402.274 223.121 402.274 223.121L409.265 226.077L409.798 234.529Z" fill="black"/>
<path d="M367.722 370.242C367.722 370.242 360.788 372.791 356.021 373.111C353.491 373.28 352.16 371.729 351.475 370.233C351.103 369.409 350.861 368.531 350.756 367.633L351.384 360.763L351.714 357.109L361.842 354.474L363.276 358.864L363.41 359.194C363.982 360.663 366.297 366.619 366.227 367.863C366.222 368.184 366.281 368.504 366.403 368.802C366.524 369.1 366.705 369.37 366.934 369.596C367.168 369.844 367.433 370.061 367.722 370.242Z" fill="white"/>
<path d="M415.063 366.749C415.081 366.959 415.06 367.17 415.002 367.373C415.002 367.373 400.173 369.843 397.139 367.373C396.286 366.651 395.292 366.115 394.221 365.799C393.149 365.484 392.024 365.395 390.916 365.539C390.916 365.539 385.178 365.695 384.22 363.805C383.822 363.012 383.926 361.474 384.173 359.961C384.425 358.538 384.761 357.131 385.178 355.748L385.408 355.566L386.773 354.469L402.755 353.997H402.877C402.799 357.265 408.298 361.014 408.298 361.014C414.153 363.181 415.015 365.63 415.063 366.749Z" fill="white"/>
<path opacity="0.1" d="M415.067 366.749C415.083 366.959 415.061 367.17 415.002 367.373C415.002 367.373 400.173 369.843 397.143 367.373C396.29 366.65 395.295 366.114 394.223 365.798C393.151 365.483 392.024 365.394 390.916 365.539C390.916 365.539 385.174 365.695 384.216 363.805C383.822 363.012 383.921 361.474 384.168 359.957C386.379 360.178 389.867 360.728 391.237 362.046C393.308 364.04 396.818 366.033 398.968 366.194C400.667 366.298 410.768 366.618 415.067 366.749Z" fill="black"/>
<path opacity="0.1" d="M367.722 370.242C367.722 370.242 360.788 372.791 356.021 373.111C353.491 373.28 352.16 371.729 351.475 370.233C353.244 370.827 355.692 371.447 356.979 370.879C358.505 370.199 363.913 369.765 366.946 369.579C367.175 369.833 367.436 370.056 367.722 370.242Z" fill="black"/>
<path d="M378.01 164.84C372.29 162.617 364.931 155.27 366.769 151.837C367.175 150.97 367.417 150.036 367.484 149.081C367.602 147.784 367.62 146.479 367.536 145.18C367.407 143.05 367.151 140.929 366.769 138.83C366.769 138.83 384.628 139.233 383.588 141.864C383.284 142.64 383.232 143.979 383.319 145.474C383.406 146.97 383.618 148.673 383.843 150.108C384.151 152.071 384.467 153.575 384.467 153.575C384.467 153.575 383.371 155.105 382.734 155.188C382.097 155.27 386.218 168.026 378.01 164.84Z" fill="#CF6F80"/>
<path opacity="0.1" d="M363.393 359.172L363.259 359.319C357.92 352.861 351.462 360.914 351.462 360.914L351.367 360.741L351.696 357.087L361.824 354.452L363.259 358.843L363.393 359.172Z" fill="black"/>
<path opacity="0.1" d="M402.885 354.452C402.885 354.452 398.985 354.374 396.905 356.212C394.825 358.049 384.771 356.606 385.204 356.212C385.331 356.012 385.408 355.784 385.43 355.549L386.795 354.452L402.777 353.979C402.838 354.283 402.885 354.452 402.885 354.452Z" fill="black"/>
<path d="M370.036 303.735C369.747 304.454 369.526 305.198 369.378 305.959C369.016 308.042 368.916 310.162 369.079 312.27C369.239 315.304 369.079 335.636 369.079 335.636C369.079 335.636 365.651 341.059 363.735 342.97C361.82 344.882 367.636 348.314 367.636 348.314C368.502 353.26 363.25 358.843 363.25 358.843C357.911 352.384 351.454 360.433 351.454 360.433C351.454 360.433 347.944 354.365 347.068 352.198C346.193 350.031 350.496 348.536 352.008 347.651C353.521 346.767 351.93 341.583 351.93 341.583C351.93 341.583 350.656 337.036 349.14 332.888C347.623 328.74 350.812 308.096 350.812 308.096C350.812 308.096 350.977 304.425 351.371 303.146C351.568 302.223 351.608 301.273 351.488 300.337C351.462 300.021 351.432 299.761 351.41 299.579C351.389 299.397 351.371 299.319 351.371 299.319L351.432 299.215L353.599 295.175C353.599 295.175 371.077 301.191 370.036 303.735Z" fill="#728FA3"/>
<path d="M402.885 353.975C402.885 353.975 398.985 353.893 396.905 355.709C394.825 357.525 384.771 356.108 385.204 355.709C385.638 355.31 385.598 352.363 385.598 352.363C379.7 344.305 384.732 341.037 384.732 341.037C384.732 341.037 382.101 328.359 381.625 323.656C381.291 320.375 380.879 311.52 380.658 306.505C380.563 304.338 380.506 302.843 380.506 302.843L385.282 301.893L385.902 301.772L397.525 299.436C397.525 299.436 397.845 301.603 398.062 303.376C398.172 304.132 398.231 304.895 398.24 305.66C398.166 306.527 398.24 309.244 398.24 309.244L398.638 317.376C398.381 318.229 398.247 319.115 398.24 320.007C398.322 321.047 399.835 335.875 399.835 335.875C399.835 335.875 402.465 344.726 401.568 345.363C400.671 346 402.885 353.975 402.885 353.975Z" fill="#728FA3"/>
<path opacity="0.1" d="M383.588 141.877C383.284 142.653 383.232 143.992 383.319 145.488C380.927 146.928 378.177 147.665 375.385 147.613C372.593 147.561 369.873 146.722 367.536 145.193C367.407 143.063 367.151 140.942 366.769 138.843C366.769 138.843 384.628 139.246 383.588 141.877Z" fill="black"/>
<path d="M390.483 132.307C390.53 136.239 389.013 140.029 386.266 142.844C383.519 145.658 379.767 147.265 375.835 147.312C371.903 147.359 368.113 145.842 365.3 143.095C362.486 140.347 360.879 136.595 360.832 132.662C360.832 132.541 360.832 132.428 360.832 132.307C360.832 128.373 362.394 124.6 365.175 121.819C367.956 119.037 371.728 117.474 375.661 117.474C379.595 117.474 383.367 119.037 386.148 121.819C388.929 124.6 390.491 128.373 390.491 132.307H390.483Z" fill="#CF6F80"/>
<path opacity="0.1" d="M378.01 164.841C372.29 162.617 364.931 155.27 366.769 151.837C367.175 150.97 367.417 150.036 367.484 149.081L375.315 155.522L380.16 159.496L383.843 150.121C384.151 152.085 384.467 153.589 384.467 153.589C384.467 153.589 383.371 155.119 382.734 155.201C382.097 155.283 386.218 168.026 378.01 164.841Z" fill="black"/>
<path d="M398.261 193.304L391.722 303.181L383.193 303.74L361.105 240.029L364.728 164.39L365.495 148.409L375.315 156.475L380.16 160.45L383.952 150.797L391.003 156.943L398.261 193.304Z" fill="#728FA3"/>
<path opacity="0.1" d="M370.036 303.735C369.747 304.454 369.526 305.198 369.378 305.959C363.166 305.002 357.133 303.119 351.48 300.372L351.363 300.311L351.402 299.613V299.249L353.569 295.21C353.569 295.21 371.076 301.191 370.036 303.735Z" fill="black"/>
<path opacity="0.1" d="M385.425 305.976C383.839 306.248 382.239 306.431 380.632 306.527C380.537 304.36 380.48 302.864 380.48 302.864L385.282 301.893L385.425 305.976Z" fill="black"/>
<path opacity="0.1" d="M398.079 303.376C394.998 304.178 390.235 305.079 385.98 304.516L385.919 301.772L397.542 299.436C397.542 299.436 397.85 301.586 398.079 303.376Z" fill="black"/>
<path opacity="0.1" d="M385.902 305.018C368.134 308.053 351.861 299.353 351.861 299.353L352.017 296.406C352.017 296.406 352.42 262.992 351.302 260.431C350.184 257.869 349.313 244.896 349.946 242.916C350.578 240.935 347.636 211.028 347.636 211.028L347.159 198.891L329.699 191.796L337.499 175.529C338.553 173.249 339.459 170.904 340.212 168.507C341.569 164.281 347.866 160.133 347.866 160.133C347.866 160.133 354.323 155.99 356.875 156.146C359.428 156.302 362.773 152.479 362.773 152.479C365.243 146.181 367.48 149.011 367.48 149.011C367.48 149.315 367.48 149.011 367.358 149.943C366.492 156.857 381.373 178.702 381.586 179.092L383.02 213.62L384.454 257.314L385.902 305.018Z" fill="black"/>
<path d="M385.425 305.018C367.657 308.053 351.38 299.353 351.38 299.353L351.541 296.406C351.541 296.406 351.939 262.992 350.821 260.431C349.703 257.869 348.832 244.883 349.469 242.885C350.106 240.887 347.146 211.01 347.146 211.01L346.665 198.874L329.209 191.779L337.01 175.512C338.061 173.232 338.967 170.888 339.723 168.494C341.079 164.281 347.398 160.129 347.398 160.129C347.398 160.129 353.855 155.985 356.403 156.141C358.951 156.297 362.314 152.479 362.314 152.479C364.788 146.181 367.514 149.011 367.514 149.011C367.514 149.315 367.254 149.445 367.393 149.943C369.3 156.649 380.931 178.702 381.144 179.092L382.578 213.62L383.982 257.336L385.425 305.018Z" fill="white"/>
<path opacity="0.1" d="M380.637 180.067C378.725 179.27 368.602 167.71 368.602 167.71V165.079C368.234 164.212 366.041 164.741 364.268 165.348L365.031 149.367L365.898 150.086C367.792 156.787 380.428 179.681 380.637 180.067Z" fill="black"/>
<path d="M381.118 179.114C379.202 178.312 369.079 166.756 369.079 166.756V164.121C368.71 163.254 366.522 163.783 364.745 164.39L365.495 148.426L366.361 149.141C368.273 155.834 380.905 178.724 381.118 179.114Z" fill="white"/>
<path opacity="0.1" d="M351.861 236.761C352.1 236.761 364.216 235.486 364.216 235.486C364.216 235.486 371.553 249.92 371.072 253.426C370.591 256.933 369.72 260.045 366.769 259.494C363.818 258.944 350.886 259.928 350.886 259.928L351.861 236.761Z" fill="black"/>
<path d="M351.38 235.803C351.623 235.803 363.74 234.529 363.74 234.529C363.74 234.529 371.072 248.984 370.595 252.451C370.119 255.919 369.239 259.07 366.292 258.519C363.345 257.969 350.405 258.953 350.405 258.953L351.38 235.803Z" fill="white"/>
<path d="M360.511 229.046C360.511 229.046 371.631 235.027 371.869 236.848C372.108 238.668 366.21 236.05 364.936 235.729C364.097 235.53 363.243 235.397 362.383 235.33L353.885 235.56L360.511 229.046Z" fill="#CF6F80"/>
<path opacity="0.1" d="M377.529 180.813C378.175 180.813 378.699 180.289 378.699 179.642C378.699 178.996 378.175 178.472 377.529 178.472C376.883 178.472 376.359 178.996 376.359 179.642C376.359 180.289 376.883 180.813 377.529 180.813Z" fill="black"/>
<path d="M377.529 180.336C378.175 180.336 378.699 179.812 378.699 179.166C378.699 178.519 378.175 177.995 377.529 177.995C376.883 177.995 376.359 178.519 376.359 179.166C376.359 179.812 376.883 180.336 377.529 180.336Z" fill="#3F3D56"/>
<path opacity="0.1" d="M379.683 231.473C380.329 231.473 380.853 230.949 380.853 230.303C380.853 229.656 380.329 229.132 379.683 229.132C379.037 229.132 378.513 229.656 378.513 230.303C378.513 230.949 379.037 231.473 379.683 231.473Z" fill="black"/>
<path d="M379.683 230.992C380.329 230.992 380.853 230.468 380.853 229.821C380.853 229.175 380.329 228.651 379.683 228.651C379.037 228.651 378.513 229.175 378.513 229.821C378.513 230.468 379.037 230.992 379.683 230.992Z" fill="#3F3D56"/>
<path opacity="0.1" d="M378.699 206.143C379.346 206.143 379.869 205.619 379.869 204.973C379.869 204.326 379.346 203.802 378.699 203.802C378.053 203.802 377.529 204.326 377.529 204.973C377.529 205.619 378.053 206.143 378.699 206.143Z" fill="black"/>
<path d="M378.699 205.666C379.346 205.666 379.869 205.142 379.869 204.496C379.869 203.849 379.346 203.325 378.699 203.325C378.053 203.325 377.529 203.849 377.529 204.496C377.529 205.142 378.053 205.666 378.699 205.666Z" fill="#3F3D56"/>
<path d="M405.672 235.088C405.672 235.088 406.469 236.284 405.672 236.821C404.875 237.359 405.75 238.737 405.75 238.737C405.75 238.737 403.761 239.899 404.636 240.952C405.512 242.005 404.957 246.734 404.957 246.734L402.565 250.717C402.565 250.717 402.708 253.27 402.716 256.721C402.716 262.104 402.4 269.672 400.649 273.122L400.883 301.43C400.883 301.43 392.506 304.494 385.495 303.558L384.454 258.134C384.454 258.134 385.971 232.374 386.53 227.433C386.857 224.868 386.991 222.282 386.929 219.696C386.929 219.696 386.691 211.964 385.889 208.379C385.889 208.379 385.022 192.828 384.935 188.524C384.896 186.465 385.005 180.457 385.126 174.745C385.261 168.499 385.412 162.608 385.412 162.608L383.83 150.086C383.83 150.086 385.412 149.93 385.889 150.563C386.102 150.763 386.335 150.941 386.582 151.096C389.317 152.943 398.963 158.621 398.963 158.621C398.963 158.621 404.303 160.745 405.581 163.787C406.859 166.83 407.748 168.989 408.367 169.855C408.987 170.722 409.325 174.797 409.325 174.797C409.325 174.797 411.163 182.295 412.597 183.565C414.032 184.835 415.063 192.897 415.063 192.897L402.387 202.866C402.387 202.866 401.273 219.449 401.035 220.091C400.797 220.732 405.672 235.088 405.672 235.088Z" fill="white"/>
<path d="M406.153 235.088C406.153 235.088 406.946 236.284 406.153 236.821C405.36 237.359 406.227 238.737 406.227 238.737C406.227 238.737 404.238 239.899 405.113 240.952C405.988 242.005 405.434 246.734 405.434 246.734L403.05 250.717C403.05 250.717 403.193 253.27 403.206 256.721C403.206 262.104 402.89 269.672 401.139 273.122L401.377 301.43C401.377 301.43 393 304.494 385.989 303.558L384.953 258.134C384.953 258.134 386.465 232.374 387.029 227.433C387.356 224.868 387.488 222.282 387.423 219.696C387.423 219.696 387.185 211.964 386.387 208.379C386.387 208.379 385.521 192.828 385.43 188.523C385.391 186.465 385.499 180.457 385.62 174.745C385.755 168.499 385.906 162.608 385.906 162.608L383.817 149.917C383.817 149.917 385.906 149.917 386.387 150.563C386.599 150.765 386.831 150.944 387.081 151.096C389.811 152.943 399.458 158.621 399.458 158.621C399.458 158.621 404.784 160.745 406.084 163.787C407.384 166.83 408.25 168.988 408.87 169.855C409.49 170.722 409.828 174.797 409.828 174.797C409.828 174.797 411.665 182.295 413.1 183.565C414.534 184.835 415.57 192.897 415.57 192.897L402.894 202.866C402.894 202.866 401.78 219.449 401.538 220.091C401.295 220.732 406.153 235.088 406.153 235.088Z" fill="white"/>
<path opacity="0.1" d="M390.972 166.288L392.121 169.626L386.093 175.694C386.227 169.448 386.379 163.558 386.379 163.558L384.29 150.871C384.29 150.871 386.379 150.871 386.86 151.517C387.071 151.719 387.304 151.897 387.553 152.05L392.675 166.826L390.972 166.288Z" fill="black"/>
<path d="M390.483 165.33L391.631 168.663L385.607 174.732C385.737 168.486 385.893 162.595 385.893 162.595L383.8 149.904C383.8 149.904 385.893 149.904 386.37 150.55C386.582 150.751 386.815 150.929 387.063 151.083L392.216 165.872L390.483 165.33Z" fill="white"/>
<path opacity="0.1" d="M390.483 132.307C390.484 133.868 390.238 135.421 389.754 136.905C389.673 136.919 389.589 136.916 389.509 136.897C389.429 136.877 389.353 136.842 389.286 136.793C389.169 132.892 387.254 129.225 384.892 126.108C384.228 125.168 383.424 124.335 382.509 123.638C381.582 122.942 380.43 122.616 379.276 122.723C377.976 122.901 376.827 123.785 375.514 123.898C373.781 124.041 372.229 122.84 370.509 122.784C369.809 122.79 369.119 122.945 368.484 123.24C367.85 123.534 367.286 123.961 366.83 124.492C365.925 125.559 365.253 126.804 364.858 128.146C364.176 130.182 363.805 132.31 363.757 134.456C363.735 135.67 363.618 137.191 362.492 137.634C362.577 136.742 362.476 135.842 362.194 134.991C361.913 134.14 361.458 133.358 360.858 132.692L360.832 132.662C360.832 132.541 360.832 132.428 360.832 132.307C360.832 128.373 362.394 124.6 365.175 121.819C367.956 119.037 371.728 117.474 375.661 117.474C379.595 117.474 383.367 119.037 386.148 121.819C388.929 124.6 390.491 128.373 390.491 132.307H390.483Z" fill="black"/>
<path d="M381.815 108.758C379.563 107.699 377.002 107.498 374.613 108.195C373.412 108.55 372.281 109.127 371.063 109.417C368.463 110.045 365.43 109.365 363.198 110.886C361.959 111.753 361.213 113.123 360.52 114.458L358.786 117.756C357.842 119.564 356.888 121.402 356.494 123.391C356.099 125.38 356.338 127.608 357.599 129.212C358.513 130.374 359.874 131.106 360.871 132.203C361.47 132.871 361.924 133.657 362.204 134.509C362.484 135.362 362.585 136.263 362.5 137.157C363.627 136.724 363.74 135.193 363.766 133.98C363.814 131.833 364.185 129.706 364.866 127.669C365.262 126.327 365.934 125.082 366.838 124.015C367.294 123.484 367.858 123.056 368.493 122.761C369.127 122.466 369.818 122.31 370.517 122.303C372.251 122.364 373.807 123.564 375.523 123.417C376.823 123.309 377.976 122.424 379.284 122.247C380.438 122.138 381.591 122.464 382.517 123.161C383.434 123.857 384.236 124.69 384.896 125.632C387.263 128.753 389.182 132.402 389.295 136.316C389.785 136.672 390.491 136.203 390.734 135.649C390.977 135.094 390.985 134.444 391.293 133.915C391.648 133.304 392.329 132.974 392.862 132.515C394.214 131.349 394.552 129.385 394.5 127.604C394.448 125.823 394.101 124.015 394.439 122.264C394.643 121.193 395.102 120.184 395.354 119.122C395.605 118.06 395.635 116.868 395.042 115.953C394.175 114.614 392.35 114.345 390.76 114.219C388.953 114.063 387.336 114.263 386.184 112.741C385.641 111.949 385.032 111.203 384.363 110.514C384.125 110.284 381.815 108.854 381.815 108.758Z" fill="#512E4E"/>
<path opacity="0.1" d="M334.7 200.161L330.176 191.792L328.741 204.708C328.741 204.708 329.539 210.447 329.378 211.327C329.218 212.207 332.646 220.095 332.646 220.095C332.646 220.095 343.97 240.272 348.594 241.308L364.195 230.142L360.052 224.88C360.052 224.88 358.617 224.321 358.258 224.88C358.258 224.88 350.561 211.643 349.768 210.69C348.975 209.736 349.127 207.816 349.127 207.816C349.127 207.816 347.931 206.542 348.329 205.345C348.728 204.149 346.041 200.005 346.041 200.005L348.511 197.695L334.7 200.161Z" fill="black"/>
<path d="M330.414 190.834L329.218 191.792L327.783 204.708C327.783 204.708 328.581 210.447 328.42 211.327C328.26 212.207 331.692 220.095 331.692 220.095C331.692 220.095 343.012 240.272 347.636 241.308L363.263 230.142L359.116 224.88C359.116 224.88 357.681 224.321 357.321 224.88C357.321 224.88 349.629 211.643 348.832 210.69C348.035 209.736 348.195 207.816 348.195 207.816C348.195 207.816 346.999 206.542 347.397 205.345C347.796 204.149 345.083 200.005 345.083 200.005L347.553 197.695L330.414 190.834Z" fill="white"/>
<path opacity="0.1" d="M404.636 241.451C405.503 242.504 404.957 247.237 404.957 247.237L402.565 251.194C402.565 251.194 402.708 253.752 402.716 257.202L398.695 258.459C398.331 258.572 397.945 258.597 397.569 258.531C397.194 258.465 396.839 258.31 396.536 258.08C396.232 257.849 395.988 257.549 395.824 257.205C395.66 256.86 395.58 256.482 395.592 256.101L396.29 233.735L405.672 237.32C404.875 237.875 405.75 239.236 405.75 239.236C405.75 239.236 403.761 240.397 404.636 241.451Z" fill="black"/>
<path d="M405.113 240.974C405.98 242.023 405.434 246.756 405.434 246.756L403.05 250.718C403.05 250.718 403.193 253.27 403.206 256.721L399.111 257.999C398.755 258.111 398.378 258.136 398.011 258.072C397.644 258.008 397.297 257.857 397 257.631C396.703 257.406 396.465 257.113 396.304 256.777C396.143 256.44 396.066 256.07 396.077 255.698L396.775 233.254L406.153 236.848C405.351 237.402 406.227 238.763 406.227 238.763C406.227 238.763 404.237 239.921 405.113 240.974Z" fill="white"/>
<path d="M408.225 230.303C408.225 230.303 407.587 234.373 405.993 234.611C404.398 234.849 403.683 241.195 402.092 240.974C400.502 240.753 401.555 235.07 401.611 233.97C401.668 232.869 399.878 228.309 401.213 227.273C402.547 226.237 406.794 227.273 406.794 227.273L408.225 230.303Z" fill="#CF6F80"/>
<path opacity="0.1" d="M411.596 198.965L414.599 192.897C414.599 192.897 415.8 197.522 415.8 199.992C415.8 202.463 417.473 202.706 417.473 202.706C417.473 202.706 419.306 204.873 418.339 206.455C417.373 208.037 416.987 211.955 416.987 211.955C416.987 211.955 417.303 219.449 415.869 220.485C414.435 221.521 414.114 223.996 414.114 223.996C414.114 223.996 411.483 228.699 411.566 229.817C411.648 230.935 407.899 238.508 407.899 238.508C407.899 238.508 409.733 229.098 399.05 225.032C399.05 225.032 398.968 221.842 399.765 220.966C400.563 220.091 401.806 219.666 401.026 215.262C400.246 210.859 400.801 205.549 400.801 204.487C400.801 203.425 403.193 196.807 403.193 196.807L411.596 198.965Z" fill="black"/>
<path d="M412.931 192.03L415.557 192.897C415.557 192.897 416.757 197.522 416.757 199.992C416.757 202.463 418.43 202.706 418.43 202.706C418.43 202.706 420.263 204.873 419.297 206.455C418.33 208.037 417.94 211.955 417.94 211.955C417.94 211.955 418.261 219.449 416.827 220.485C415.392 221.521 415.093 223.996 415.093 223.996C415.093 223.996 412.463 228.699 412.545 229.817C412.627 230.935 408.874 238.508 408.874 238.508C408.874 238.508 410.708 229.098 400.025 225.032C400.025 225.032 399.947 221.842 400.745 220.966C401.542 220.091 402.786 219.666 402.006 215.262C401.226 210.859 401.78 205.549 401.78 204.487C401.78 203.425 404.172 196.807 404.172 196.807L412.931 192.03Z" fill="white"/>
<path opacity="0.1" d="M354.912 349.311C354.912 349.311 359.098 346.68 361.846 348.592C364.593 350.503 354.912 349.311 354.912 349.311Z" fill="black"/>
<path opacity="0.1" d="M387.449 341.176C387.449 341.176 391.154 340.699 394.266 344.049C397.377 347.4 387.449 341.176 387.449 341.176Z" fill="black"/>
<g opacity="0.1">
<path opacity="0.1" d="M392.862 131.561C392.329 132.025 391.644 132.35 391.289 132.961C390.985 133.486 390.977 134.136 390.734 134.695C390.491 135.254 389.785 135.718 389.291 135.362C389.178 131.462 387.258 127.799 384.896 124.678C384.236 123.738 383.433 122.906 382.517 122.212C381.59 121.513 380.436 121.185 379.28 121.293C377.98 121.471 376.836 122.355 375.523 122.468C373.789 122.611 372.234 121.41 370.513 121.354C369.814 121.359 369.124 121.514 368.49 121.809C367.856 122.103 367.293 122.531 366.838 123.062C365.933 124.129 365.262 125.373 364.866 126.715C364.185 128.752 363.814 130.879 363.766 133.026C363.74 134.236 363.627 135.744 362.509 136.195C362.535 136.516 362.535 136.84 362.509 137.161C363.64 136.728 363.753 135.198 363.779 133.984C363.827 131.837 364.198 129.71 364.879 127.673C365.275 126.331 365.946 125.087 366.851 124.019C367.306 123.489 367.87 123.061 368.504 122.766C369.137 122.471 369.827 122.314 370.526 122.307C372.26 122.368 373.82 123.569 375.536 123.421C376.836 123.313 377.989 122.429 379.293 122.251C380.448 122.142 381.603 122.468 382.53 123.166C383.447 123.861 384.249 124.694 384.909 125.636C387.271 128.757 389.191 132.406 389.304 136.32C389.798 136.676 390.504 136.208 390.747 135.653C390.99 135.098 390.998 134.448 391.302 133.919C391.657 133.308 392.342 132.979 392.875 132.519C394.227 131.353 394.565 129.39 394.513 127.608C394.513 127.552 394.513 127.5 394.513 127.444C394.426 128.995 394.014 130.569 392.862 131.561Z" fill="black"/>
<path opacity="0.1" d="M360.866 131.258C359.874 130.161 358.513 129.424 357.599 128.263C356.827 127.237 356.387 126 356.338 124.717C356.202 126.321 356.65 127.921 357.599 129.221C358.513 130.382 359.874 131.115 360.866 132.211C361.825 133.283 362.401 134.643 362.505 136.078C362.57 135.205 362.458 134.329 362.177 133.501C361.895 132.673 361.45 131.91 360.866 131.258Z" fill="black"/>
<path opacity="0.1" d="M395.354 118.168C395.098 119.23 394.643 120.24 394.435 121.31C394.31 122.034 394.265 122.77 394.3 123.504C394.315 123.089 394.36 122.676 394.435 122.268C394.643 121.198 395.098 120.188 395.354 119.126C395.5 118.54 395.549 117.933 395.497 117.332C395.469 117.613 395.421 117.893 395.354 118.168Z" fill="black"/>
</g>
<path opacity="0.1" d="M57.5204 363.602C80.8417 363.602 99.7473 360.565 99.7473 356.818C99.7473 353.072 80.8417 350.035 57.5204 350.035C34.1991 350.035 15.2934 353.072 15.2934 356.818C15.2934 360.565 34.1991 363.602 57.5204 363.602Z" fill="#728FA3"/>
<path d="M58.8811 226.87H56.1639V288.058H58.8811V226.87Z" fill="#535461"/>
<path d="M75.96 287.876L75.7867 290.633L75.5483 294.534L75.4486 296.155L75.206 300.056L75.1019 301.677L74.8636 305.578L72.1204 349.818C72.0034 351.722 71.1649 353.509 69.7758 354.816C68.3867 356.122 66.5516 356.849 64.6449 356.849H50.4002C48.4882 356.85 46.6484 356.119 45.2583 354.806C43.8681 353.493 43.0332 351.697 42.9247 349.788L40.1815 305.547L39.9431 301.646L39.8435 300.025L39.5964 296.124L39.4968 294.503L39.2584 290.602L39.0851 287.846C39.0551 287.317 39.1329 286.788 39.3138 286.291C39.4947 285.794 39.7749 285.338 40.1373 284.953C40.4997 284.567 40.9368 284.259 41.422 284.048C41.9071 283.837 42.4302 283.726 42.9593 283.724H72.0901C72.6216 283.727 73.1468 283.838 73.6336 284.052C74.1204 284.265 74.5584 284.576 74.9208 284.965C75.2832 285.353 75.5624 285.812 75.7411 286.313C75.9198 286.814 75.9943 287.345 75.96 287.876Z" fill="#3F3D56"/>
<path d="M75.7867 290.628L75.544 294.521H39.4968L39.2541 290.628H75.7867Z" fill="#9D9CB5"/>
<path d="M75.4443 296.142L75.2059 300.034H39.8391L39.5964 296.142H75.4443Z" fill="#9D9CB5"/>
<path d="M75.102 301.659L74.8636 305.547H40.1815L39.9388 301.659H75.102Z" fill="#9D9CB5"/>
<path d="M35.1241 249.807C50.9506 261.259 57.542 279.168 57.542 279.168C57.542 279.168 38.474 278.514 22.6433 267.062C6.81247 255.611 0.212341 237.714 0.212341 237.714C0.212341 237.714 19.2803 238.356 35.1241 249.807Z" fill="#728FA3"/>
<path d="M0.212341 237.714C0.212341 237.714 20.0041 248.702 26.3528 257.8C32.7016 266.898 57.5247 279.177 57.5247 279.177" stroke="#535461" stroke-width="2" stroke-miterlimit="10"/>
<path d="M45.3212 226.74C53.9365 232.968 57.5247 242.716 57.5247 242.716C57.5247 242.716 47.124 242.361 38.5304 236.132C29.9368 229.904 26.3268 220.151 26.3268 220.151C26.3268 220.151 36.7102 220.507 45.3212 226.74Z" fill="#728FA3"/>
<path d="M26.3268 220.151C26.3268 220.151 37.1003 226.133 40.5585 231.083C44.0168 236.033 57.5247 242.716 57.5247 242.716" stroke="#535461" stroke-width="2" stroke-miterlimit="10"/>
<path d="M70.0403 242.222C60.1466 253.097 58.0535 267.309 58.0535 267.309C58.0535 267.309 72.0034 263.885 81.8885 253.006C91.7735 242.127 93.8753 227.919 93.8753 227.919C93.8753 227.919 79.934 231.347 70.0403 242.222Z" fill="#728FA3"/>
<path d="M93.884 227.923C93.884 227.923 80.9957 239.071 77.7195 246.751C74.4433 254.432 58.0535 267.309 58.0535 267.309" stroke="#535461" stroke-width="2" stroke-miterlimit="10"/>
</g>
<defs>
<linearGradient id="paint0_linear" x1="201.744" y1="362.163" x2="201.744" y2="111.788" gradientUnits="userSpaceOnUse">
<stop stop-color="#808080" stop-opacity="0.25"/>
<stop offset="0.54" stop-color="#808080" stop-opacity="0.12"/>
<stop offset="1" stop-color="#808080" stop-opacity="0.1"/>
</linearGradient>
<linearGradient id="paint1_linear" x1="82460.1" y1="234642" x2="82460.1" y2="70532.9" gradientUnits="userSpaceOnUse">
<stop stop-color="#808080" stop-opacity="0.25"/>
<stop offset="0.54" stop-color="#808080" stop-opacity="0.12"/>
<stop offset="1" stop-color="#808080" stop-opacity="0.1"/>
</linearGradient>
<clipPath id="clip0">
<rect width="506" height="374" fill="white"/>
</clipPath>
</defs>
</svg>
